{"glyphs":{"0":{"ha":746,"x_min":58,"x_max":687,"o":"m 372 892 q 242 797 262 890 q 222 637 222 704 l 222 299 q 244 138 222 232 q 372 44 267 44 q 484 117 445 44 q 523 299 523 191 l 523 637 q 486 823 523 745 q 374 892 452 892 l 372 892 m 372 967 q 606 873 526 967 q 687 652 687 779 l 687 284 q 595 63 687 155 q 372 -30 503 -30 q 133 63 209 -30 q 58 284 58 156 l 58 652 q 140 874 58 781 q 372 967 222 967 z "},"1":{"ha":678,"x_min":138,"x_max":491,"o":"m 237 -14 q 207 14 207 -14 q 240 51 207 39 q 273 96 273 62 l 273 812 l 138 812 l 138 857 q 181 902 138 886 q 284 934 224 918 q 351 951 319 943 q 425 973 382 960 l 425 96 q 458 51 425 62 q 491 14 491 39 q 460 -14 491 -14 l 237 -14 z "},"2":{"ha":746,"x_min":93,"x_max":664,"o":"m 100 -14 l 100 54 q 136 159 100 114 q 244 281 170 201 q 330 371 288 323 q 412 465 373 418 q 492 597 467 530 q 510 682 510 643 q 494 747 510 718 q 402 831 463 808 q 330 844 368 844 q 270 837 301 844 q 151 750 198 819 q 125 680 133 724 l 93 800 q 108 834 100 819 q 189 919 138 882 q 314 967 241 956 q 372 971 343 971 q 549 924 465 971 q 661 719 659 861 l 661 716 q 612 541 661 623 q 495 384 562 458 q 360 242 428 309 q 267 132 292 176 l 485 132 q 664 168 566 132 l 664 21 q 570 -11 616 -9 q 485 -14 524 -14 l 100 -14 z "},"3":{"ha":746,"x_min":101,"x_max":642,"o":"m 490 33 q 303 -32 418 -18 q 269 -34 286 -34 q 105 22 177 -34 l 101 216 q 257 62 168 85 q 321 53 291 53 q 411 75 370 53 q 496 170 474 108 q 509 240 509 205 q 500 298 509 269 q 418 407 481 361 q 233 456 356 454 l 232 497 q 342 539 287 515 q 427 614 398 564 q 451 695 451 654 q 449 719 451 707 q 407 804 440 770 q 310 850 369 844 l 298 850 q 195 803 237 850 q 146 726 161 766 l 122 850 q 245 942 183 918 q 367 967 308 967 q 584 836 532 965 q 599 763 599 800 q 507 587 599 674 q 479 562 484 565 q 604 444 559 522 q 642 304 642 376 q 642 281 642 290 q 490 33 629 135 z "},"4":{"ha":746,"x_min":38,"x_max":707,"o":"m 421 260 l 38 260 l 38 353 l 428 939 l 574 939 l 574 380 l 707 380 l 707 260 l 574 260 l 574 96 q 621 52 574 64 q 667 14 667 40 q 637 -14 667 -14 l 358 -14 q 327 14 327 -14 q 374 52 327 40 q 421 96 421 64 l 421 260 m 421 380 l 421 766 l 167 380 l 421 380 z "},"5":{"ha":746,"x_min":57,"x_max":681,"o":"m 173 797 l 173 528 q 202 545 174 528 q 263 574 230 562 q 402 600 328 600 q 425 600 413 600 q 608 498 531 591 q 681 288 681 404 l 681 284 q 581 66 679 165 q 340 -29 485 -29 l 334 -29 q 197 -14 245 -27 q 98 22 148 0 q 58 68 60 37 q 57 98 57 84 q 75 161 57 144 q 107 178 93 178 q 125 172 118 178 q 197 101 152 139 q 309 67 237 67 l 314 67 q 426 105 375 67 q 502 201 477 142 q 519 288 519 242 q 511 354 519 319 q 423 474 492 435 q 331 501 373 501 q 295 496 312 501 q 197 444 235 478 q 154 421 174 425 q 129 418 142 418 q 119 418 123 418 q 92 420 109 418 q 75 453 75 421 l 75 895 q 82 931 75 924 q 123 939 89 939 l 448 939 q 530 937 486 939 q 623 905 575 935 l 623 763 q 448 797 530 797 l 173 797 z "},"6":{"ha":746,"x_min":39,"x_max":707,"o":"m 364 585 q 237 499 292 581 q 182 302 182 417 q 239 111 182 188 q 357 42 289 42 l 364 42 q 491 127 436 45 q 545 324 545 210 q 489 515 545 438 q 371 585 439 585 l 364 585 m 247 642 q 356 654 268 654 q 402 651 378 654 q 593 570 518 638 q 707 313 705 465 q 608 70 707 172 q 374 -31 510 -31 l 366 -31 q 127 73 220 -27 q 39 307 39 170 l 39 313 q 134 680 41 528 q 393 946 227 832 l 412 960 q 459 970 433 970 l 461 970 q 504 970 484 970 q 549 950 549 970 q 532 930 549 939 q 353 781 424 854 q 247 642 282 708 z "},"7":{"ha":746,"x_min":92,"x_max":646,"o":"m 275 96 q 235 -14 252 50 l 94 -13 q 92 17 92 8 q 106 85 92 52 q 141 158 124 125 q 336 504 225 315 q 509 797 446 692 l 273 797 q 98 763 190 797 l 98 905 q 190 937 145 935 q 273 939 235 939 l 598 939 q 638 932 631 939 q 646 895 646 924 q 624 805 644 846 q 449 451 536 628 q 275 96 362 273 z "},"8":{"ha":746,"x_min":26,"x_max":719,"o":"m 378 485 q 250 436 303 485 q 196 267 196 387 q 243 98 196 146 q 378 49 290 49 q 513 96 466 49 q 559 267 559 143 q 506 438 559 391 q 378 485 453 485 m 400 968 q 617 896 547 966 q 684 726 684 829 l 684 718 q 551 524 680 552 q 654 446 593 513 q 719 266 715 378 l 719 254 q 623 47 719 116 q 367 -26 524 -25 l 361 -26 q 117 49 208 -26 q 26 265 26 125 q 90 444 26 375 q 203 526 154 513 q 77 727 77 555 l 77 730 q 168 910 77 848 q 391 968 253 968 l 400 968 m 382 899 q 269 849 304 899 q 235 728 235 800 q 264 606 235 654 q 382 557 294 557 q 499 606 469 557 q 529 728 529 654 q 494 849 529 800 q 382 899 460 899 z "},"9":{"ha":746,"x_min":39,"x_max":707,"o":"m 380 355 q 508 440 453 358 q 562 636 562 522 q 505 827 562 751 q 389 897 455 897 l 381 897 q 254 812 308 893 q 199 618 199 730 l 199 615 q 256 424 199 500 q 372 355 304 355 l 380 355 m 498 297 q 389 285 477 285 q 342 288 366 285 q 151 370 226 300 q 39 626 39 474 l 39 630 q 136 869 39 768 q 370 970 234 970 l 379 970 q 617 866 525 966 q 707 630 707 768 l 707 626 q 611 258 704 410 q 353 -7 518 106 q 342 -14 347 -11 q 332 -20 338 -16 q 286 -31 311 -31 q 275 -31 276 -31 l 241 -31 q 195 -11 195 -31 q 212 9 195 0 q 391 157 320 84 q 498 297 463 231 z "}," ":{"ha":373,"x_min":0,"x_max":0,"o":""},"!":{"ha":338,"x_min":84,"x_max":267,"o":"m 216 254 q 182 224 216 224 l 168 224 q 135 254 135 224 l 87 901 l 87 909 q 154 966 87 966 l 197 966 q 264 908 264 966 l 264 901 l 216 254 m 176 170 q 267 97 267 170 l 267 41 q 176 -31 267 -31 q 84 41 84 -31 l 84 97 q 176 170 84 170 z "},"\"":{"ha":566,"x_min":63,"x_max":455,"o":"m 168 656 q 138 635 168 635 l 127 635 q 98 656 98 635 l 63 955 l 63 958 q 117 992 63 992 l 149 992 q 202 959 202 992 l 202 955 l 168 656 m 420 656 q 391 635 420 635 l 380 635 q 351 656 351 635 l 316 955 l 316 958 q 370 992 316 992 l 401 992 q 455 958 455 992 l 455 955 l 420 656 z "},"#":{"ha":765,"x_min":44,"x_max":745,"o":"m 243 12 l 243 245 l 71 245 q 44 265 44 245 l 44 323 q 71 343 44 343 l 243 343 l 243 503 l 71 503 q 44 523 44 503 l 44 581 q 71 601 44 601 l 243 601 l 243 833 q 267 859 243 859 l 324 859 q 348 833 348 859 l 348 601 l 441 601 l 441 833 q 465 859 441 859 l 522 859 q 547 833 547 859 l 547 601 l 718 601 q 745 581 745 601 l 745 523 q 718 503 745 503 l 547 503 l 547 343 l 718 343 q 745 323 745 343 l 745 265 q 718 245 745 245 l 547 245 l 547 12 q 522 -14 547 -14 l 465 -14 q 441 12 441 -14 l 441 245 l 348 245 l 348 12 q 324 -14 348 -14 l 267 -14 q 243 12 243 -14 m 348 503 l 348 343 l 441 343 l 441 503 l 348 503 z "},"$":{"ha":694,"x_min":28,"x_max":675,"o":"m 317 1034 l 348 1034 q 380 1004 380 1034 l 380 934 q 627 856 507 934 l 611 715 q 584 690 608 690 q 576 691 578 690 q 548 718 559 692 q 474 809 522 772 q 380 848 425 847 l 380 533 q 440 524 401 530 q 515 507 478 517 q 617 448 581 486 q 657 387 644 419 q 675 290 675 344 q 560 54 675 149 q 427 -18 500 5 q 380 -31 399 -27 l 380 -144 q 348 -174 380 -174 l 317 -174 q 284 -144 284 -174 l 284 -40 l 282 -40 q 91 -12 182 -40 l 28 165 l 29 183 q 60 207 33 207 l 63 207 q 93 180 81 203 q 176 75 128 104 q 284 45 224 45 l 284 405 q 225 417 261 409 q 155 443 189 426 q 64 527 94 471 q 35 646 35 583 q 123 852 35 770 q 284 928 190 913 l 284 1004 q 317 1034 284 1034 m 380 389 l 380 52 q 503 136 456 62 q 531 247 531 182 l 531 253 q 483 352 530 318 q 429 377 460 368 q 380 389 400 385 m 284 550 l 284 839 q 265 830 284 838 q 223 800 239 818 q 196 760 208 785 q 181 713 186 737 q 177 677 177 694 q 184 634 177 654 q 224 575 195 596 q 273 553 246 559 q 284 550 277 551 z "},"%":{"ha":694,"x_min":-14,"x_max":718,"o":"m 517 394 q 457 348 467 393 q 447 269 447 302 l 447 137 q 458 57 447 102 q 517 12 469 12 q 569 47 550 12 q 588 137 588 82 l 588 269 q 571 358 588 323 q 517 394 553 394 m 517 446 q 646 395 602 446 q 690 276 690 344 l 690 129 q 640 9 690 59 q 517 -40 589 -40 q 386 10 427 -40 q 345 129 345 60 l 345 276 q 390 395 345 345 q 517 446 435 446 m 186 882 q 125 836 135 881 q 115 756 115 790 l 115 625 q 126 545 115 590 q 186 499 137 499 q 237 534 218 499 q 256 625 256 570 l 256 756 q 239 847 256 811 q 186 882 222 882 m 186 934 q 315 883 271 934 q 359 764 359 832 l 359 616 q 308 497 359 547 q 186 447 258 447 q 55 498 96 447 q 14 616 14 549 l 14 764 q 58 883 14 833 q 186 934 103 934 m 620 963 l 718 963 l 83 -14 l -14 -14 l 620 963 z "},"&":{"ha":876,"x_min":60,"x_max":851,"o":"m 614 205 l 690 112 q 789 39 721 72 q 821 16 812 29 q 823 3 823 9 q 821 -3 821 0 q 795 -15 809 -15 l 629 -15 q 562 39 595 -15 q 530 83 539 73 q 422 -3 488 30 q 273 -35 356 -35 q 113 25 173 -35 q 60 163 60 79 q 60 180 60 172 q 112 331 64 264 q 252 458 156 395 q 193 562 216 506 q 172 666 172 611 q 172 685 172 675 q 235 838 176 779 q 390 897 294 897 q 534 848 484 897 q 581 732 581 804 l 581 720 q 532 587 576 645 q 406 475 487 526 l 563 270 l 626 387 q 631 406 630 397 q 632 412 632 410 q 631 421 632 418 q 624 433 629 428 q 617 448 620 439 q 616 455 616 452 l 616 457 q 618 465 616 459 q 648 488 626 488 l 823 488 q 847 479 839 488 q 851 468 851 475 l 851 467 q 850 458 851 463 q 819 433 843 445 q 797 423 808 429 q 775 411 785 418 q 693 329 728 380 q 614 205 659 277 m 362 534 q 433 604 406 560 q 463 713 458 646 l 463 723 q 448 798 463 766 q 385 825 433 825 q 327 800 348 825 q 300 720 302 771 q 299 706 299 712 q 362 534 299 614 m 483 145 l 293 396 q 202 228 208 334 q 201 214 201 221 q 237 103 201 149 q 328 56 273 56 q 417 83 377 56 q 483 145 456 111 z "},"'":{"ha":289,"x_min":63,"x_max":202,"o":"m 168 656 q 138 635 168 635 l 127 635 q 98 656 98 635 l 63 955 l 63 958 q 117 992 63 992 l 149 992 q 202 959 202 992 l 202 955 l 168 656 z "},"(":{"ha":463,"x_min":77,"x_max":425,"o":"m 77 513 q 90 695 77 608 q 146 849 102 782 q 190 912 168 884 q 250 964 212 941 q 393 1008 322 1008 q 425 975 425 1008 q 421 952 425 956 q 377 934 415 943 q 299 884 339 925 q 236 755 255 841 q 217 434 217 668 l 217 337 q 236 15 217 102 q 300 -114 255 -70 q 343 -148 323 -136 q 395 -169 363 -159 q 425 -186 418 -177 q 425 -203 425 -191 l 425 -207 q 418 -229 425 -221 q 391 -239 409 -239 q 282 -212 338 -239 q 174 -119 224 -184 q 104 13 124 -55 q 77 256 77 102 l 77 513 z "},")":{"ha":463,"x_min":77,"x_max":425,"o":"m 425 513 l 425 256 q 399 12 425 98 q 328 -119 378 -55 q 221 -212 278 -184 q 113 -239 165 -239 q 85 -230 94 -239 q 77 -206 77 -222 l 77 -203 q 81 -181 78 -183 q 108 -169 82 -178 q 161 -147 138 -160 q 203 -114 181 -135 q 267 15 248 -70 q 286 337 286 105 l 286 434 q 267 755 286 665 q 203 886 248 840 q 124 934 163 925 q 81 954 85 943 q 77 975 77 960 q 109 1008 77 1008 q 253 964 180 1008 q 313 912 290 941 q 357 849 335 884 q 412 695 399 782 q 425 513 425 608 z "},"*":{"ha":694,"x_min":116,"x_max":606,"o":"m 193 583 l 308 517 l 308 653 q 343 692 308 692 l 378 692 q 414 653 414 692 l 414 517 l 528 583 q 555 591 542 591 q 584 574 574 591 l 602 543 q 606 530 606 536 q 583 499 606 512 l 461 429 l 584 357 q 606 327 606 344 q 602 313 606 320 l 584 282 q 555 266 574 266 q 528 274 542 266 l 414 340 l 414 203 q 378 165 414 165 l 343 165 q 308 203 308 165 l 308 340 l 194 274 q 167 265 180 265 q 138 282 147 265 l 120 313 q 116 328 116 321 q 138 357 116 345 l 260 429 l 138 499 q 116 528 116 511 q 120 543 116 536 l 138 574 q 167 591 147 591 q 193 583 180 591 z "},"+":{"ha":694,"x_min":94,"x_max":628,"o":"m 136 477 l 308 477 l 308 653 q 343 692 308 692 l 378 692 q 414 653 414 692 l 414 477 l 586 477 q 628 446 628 477 l 628 410 q 586 379 628 379 l 414 379 l 414 203 q 378 165 414 165 l 343 165 q 308 203 308 165 l 308 379 l 136 379 q 94 410 94 379 l 94 446 q 136 477 94 477 z "},",":{"ha":326,"x_min":45,"x_max":262,"o":"m 170 170 q 262 97 262 170 l 262 41 q 255 5 262 25 q 244 -28 248 -14 q 135 -163 215 -108 q 83 -182 104 -182 q 55 -172 65 -182 q 45 -152 45 -162 q 55 -131 45 -142 q 85 -107 66 -118 q 151 -31 143 -72 l 170 -31 q 79 41 79 -31 l 79 97 q 170 170 79 170 z "},"-":{"ha":694,"x_min":94,"x_max":628,"o":"m 136 477 l 586 477 q 628 446 628 477 l 628 410 q 586 379 628 379 l 136 379 q 94 410 94 379 l 94 446 q 136 477 94 477 z "},".":{"ha":326,"x_min":83,"x_max":266,"o":"m 174 170 q 266 97 266 170 l 266 41 q 174 -31 266 -31 q 83 41 83 -31 l 83 97 q 174 170 83 170 z "},"/":{"ha":694,"x_min":-26,"x_max":692,"o":"m -26 -61 l 561 1013 l 692 1013 l 106 -61 l -26 -61 z "},":":{"ha":347,"x_min":83,"x_max":266,"o":"m 174 656 q 266 584 266 656 l 266 528 q 174 456 266 456 q 83 528 83 456 l 83 584 q 174 656 83 656 m 174 170 q 266 97 266 170 l 266 41 q 174 -31 266 -31 q 83 41 83 -31 l 83 97 q 174 170 83 170 z "},";":{"ha":347,"x_min":50,"x_max":266,"o":"m 174 656 q 266 584 266 656 l 266 528 q 174 456 266 456 q 83 528 83 456 l 83 584 q 174 656 83 656 m 174 170 q 266 97 266 170 l 266 41 q 259 5 266 25 q 248 -28 252 -14 q 139 -163 220 -108 q 87 -182 109 -182 q 58 -170 68 -182 q 50 -152 50 -162 q 59 -131 50 -142 q 90 -107 71 -118 q 155 -31 147 -72 l 174 -31 q 83 41 83 -29 l 83 97 q 174 170 83 170 z "},"<":{"ha":694,"x_min":104,"x_max":648,"o":"m 115 404 q 104 427 104 414 q 122 460 104 442 l 541 869 q 578 886 559 886 q 606 874 594 886 l 639 841 q 648 818 648 830 q 631 785 648 802 l 267 428 l 632 71 q 648 38 648 54 q 639 16 648 26 l 605 -18 q 578 -29 594 -29 q 541 -12 559 -29 l 115 404 z "},"=":{"ha":694,"x_min":96,"x_max":630,"o":"m 138 378 l 588 378 q 630 346 630 378 l 630 311 q 588 279 630 279 l 138 279 q 96 311 96 279 l 96 346 q 138 378 96 378 m 138 578 l 588 578 q 630 546 630 578 l 630 511 q 588 479 630 479 l 138 479 q 96 511 96 479 l 96 546 q 138 578 96 578 z "},">":{"ha":694,"x_min":104,"x_max":649,"o":"m 638 453 q 649 430 649 443 q 631 397 649 414 l 212 -12 q 174 -29 193 -29 q 148 -18 159 -29 l 115 14 q 104 39 104 26 q 122 72 104 54 l 487 429 l 122 785 q 104 818 104 802 q 114 841 104 829 l 146 874 q 174 886 159 886 q 212 869 193 886 l 638 453 z "},"?":{"ha":532,"x_min":36,"x_max":513,"o":"m 301 299 q 294 239 301 262 q 257 212 282 212 q 222 242 233 212 q 214 300 214 263 l 214 514 q 332 623 302 576 q 361 734 361 670 q 334 839 361 804 q 256 869 309 869 q 193 842 212 869 q 163 724 170 810 q 143 691 161 703 q 98 679 126 679 q 51 692 68 679 q 36 730 36 705 q 100 882 36 825 q 272 939 163 939 q 449 884 384 939 q 513 735 513 829 q 393 543 513 617 q 363 525 380 535 q 317 481 326 501 q 304 416 306 463 l 301 299 m 257 165 q 347 94 347 165 l 347 40 q 257 -30 347 -30 q 168 40 168 -30 l 168 94 q 257 165 168 165 z "},"@":{"ha":1437,"x_min":16,"x_max":1386,"o":"m 1261 114 q 1179 28 1226 68 q 1078 -33 1133 -11 q 951 -60 1014 -60 q 859 -45 905 -60 q 785 59 785 -19 l 785 41 l 599 -22 q 555 -31 574 -31 l 527 -31 q 365 55 421 -25 q 321 203 321 116 q 353 359 321 281 q 429 490 384 437 q 509 555 456 522 q 549 575 526 566 q 668 616 608 595 q 787 656 727 636 q 817 662 802 662 l 821 662 q 926 639 867 660 q 935 635 932 637 q 966 623 947 630 q 975 621 971 621 q 984 624 979 621 q 1006 642 1000 635 q 1030 652 1015 652 q 1044 650 1037 652 q 1065 625 1065 640 l 1065 623 l 952 133 q 946 87 946 106 q 983 28 946 37 q 1003 25 993 25 q 1051 36 1025 25 q 1129 85 1095 52 q 1227 241 1188 138 q 1267 474 1267 347 q 1131 807 1267 701 q 791 916 990 916 q 496 841 642 916 q 260 613 351 767 q 168 262 168 459 q 229 -15 168 110 q 406 -206 289 -137 q 682 -274 519 -274 q 941 -226 819 -274 q 1137 -111 1052 -182 q 1156 -103 1145 -103 q 1177 -112 1168 -103 q 1187 -133 1187 -121 q 1182 -151 1187 -142 q 1162 -180 1174 -169 q 929 -316 1060 -275 q 651 -357 799 -357 q 193 -181 372 -357 q 16 263 16 -6 q 237 781 16 569 q 785 991 460 991 q 1216 850 1045 991 q 1386 476 1386 708 q 1261 114 1386 277 m 790 108 l 884 519 q 831 558 868 538 q 764 579 794 578 l 762 579 q 741 575 751 579 q 687 557 713 566 q 634 539 661 548 q 609 524 620 534 q 531 420 559 481 q 493 298 502 358 q 488 239 488 267 q 508 145 488 184 q 593 71 537 88 q 638 64 615 64 q 654 65 646 64 q 687 73 667 66 q 738 90 702 78 q 790 108 774 102 z "},"A":{"ha":1080,"x_min":18,"x_max":1065,"o":"m 581 981 q 668 776 618 892 q 771 537 718 660 q 874 298 825 414 q 959 103 924 182 q 994 64 968 81 q 1023 48 1008 55 q 1049 34 1038 41 q 1063 19 1059 26 q 1065 9 1065 14 q 1062 -2 1065 4 q 1039 -14 1057 -14 l 810 -14 q 787 -6 798 -14 q 773 9 775 2 q 771 18 771 13 q 783 40 771 30 q 798 52 790 46 q 808 66 805 58 q 809 75 809 70 q 804 96 809 84 l 708 318 l 337 318 q 293 211 317 269 q 244 96 269 153 q 238 74 239 83 q 237 66 237 70 q 239 56 237 60 q 245 43 241 49 q 253 28 250 38 q 254 19 254 22 q 252 10 254 14 q 220 -14 243 -14 l 45 -14 q 19 1 28 -14 q 18 5 19 2 q 20 18 18 10 q 51 43 26 33 q 72 54 60 48 q 94 66 83 59 q 125 104 116 82 l 514 981 l 581 981 m 673 400 l 519 758 q 449 589 492 692 q 371 400 406 486 l 673 400 z "},"B":{"ha":841,"x_min":60,"x_max":818,"o":"m 477 966 q 624 941 547 966 q 743 843 701 916 q 775 706 775 786 q 731 569 774 629 q 665 507 699 523 q 783 403 734 485 q 818 252 818 340 q 770 102 817 168 q 653 15 728 43 q 516 -14 578 -14 l 91 -14 q 60 14 60 -14 q 94 52 60 40 q 127 99 127 64 l 127 853 q 94 899 127 887 q 60 938 60 911 q 91 966 60 966 l 477 966 m 283 452 l 283 63 l 420 63 q 513 77 467 63 q 594 123 560 90 q 646 260 646 174 q 591 396 646 342 q 434 452 533 452 l 283 452 m 283 538 l 452 538 q 570 589 525 547 q 616 712 616 635 q 567 835 616 787 q 427 885 515 885 l 283 885 l 283 538 z "},"C":{"ha":949,"x_min":28,"x_max":926,"o":"m 575 -39 q 194 98 360 -39 q 28 475 28 235 q 190 851 28 709 q 575 994 351 994 q 746 976 655 994 q 926 901 836 958 l 909 750 q 878 726 903 726 l 876 726 q 843 754 857 728 q 740 873 801 844 q 575 902 679 902 q 318 801 431 902 q 205 475 205 701 q 311 198 205 332 q 576 58 418 65 q 606 57 592 57 q 741 81 688 57 q 843 200 801 110 q 875 228 856 224 l 880 228 q 909 203 905 228 l 911 184 l 849 12 q 706 -29 775 -19 q 575 -39 637 -39 z "},"D":{"ha":1075,"x_min":56,"x_max":1036,"o":"m 1034 537 q 1036 493 1036 514 q 993 286 1036 378 q 849 105 941 176 q 467 -18 692 -16 l 413 -18 q 339 -18 374 -18 l 260 -18 q 174 -16 203 -18 l 158 -16 q 88 -20 132 -16 q 56 9 56 -20 q 90 47 56 35 q 124 94 124 59 l 124 856 q 90 902 124 890 q 56 941 56 914 q 87 968 56 968 q 145 968 116 968 q 203 968 174 968 q 317 972 261 970 l 357 972 q 568 966 462 972 q 798 915 695 959 q 960 783 896 871 q 1034 537 1024 694 m 288 880 l 288 79 q 432 66 357 66 q 489 68 461 66 q 665 116 589 75 q 809 263 756 163 q 858 499 858 355 l 858 522 q 820 701 855 629 q 728 814 785 772 q 526 888 645 877 q 441 891 484 891 q 288 880 359 891 z "},"E":{"ha":848,"x_min":88,"x_max":808,"o":"m 313 77 l 585 77 q 681 123 640 77 q 744 195 722 168 q 777 216 762 216 q 808 189 808 216 q 806 172 808 178 l 754 -14 l 117 -14 q 88 14 88 -14 q 122 52 88 40 q 156 99 156 64 l 156 852 q 122 900 156 888 q 88 938 88 911 q 119 966 88 966 l 766 966 l 766 778 q 734 750 766 750 q 694 784 718 750 q 640 853 661 830 q 585 876 618 876 l 313 876 l 313 534 l 451 534 q 496 569 482 534 q 539 604 509 604 q 570 576 570 604 l 570 404 q 539 376 570 376 q 494 411 510 376 q 447 446 479 446 l 313 446 l 313 77 z "},"F":{"ha":772,"x_min":88,"x_max":766,"o":"m 118 -14 q 88 14 88 -14 q 109 42 88 29 q 131 57 119 49 q 151 76 144 64 q 156 99 156 87 l 156 852 q 122 900 156 888 q 88 938 88 911 q 119 966 88 966 l 766 966 l 766 778 q 734 750 766 750 q 694 784 718 750 q 640 853 661 830 q 585 876 618 876 l 313 876 l 313 534 l 451 534 q 487 553 471 534 q 508 586 498 567 q 539 604 517 604 q 570 576 570 604 l 570 404 q 539 376 570 376 q 505 397 515 376 q 482 433 495 418 q 451 446 469 446 l 313 446 l 313 99 q 319 72 313 83 q 337 56 326 62 q 357 43 347 49 q 380 14 380 29 q 378 3 380 9 q 349 -14 368 -14 l 118 -14 z "},"G":{"ha":1060,"x_min":28,"x_max":1049,"o":"m 575 -39 q 194 98 360 -39 q 28 475 28 235 q 190 851 28 709 q 575 994 351 994 q 746 976 655 994 q 926 901 836 958 l 909 750 q 878 726 903 726 l 876 726 q 843 754 857 728 q 740 873 801 844 q 575 902 679 902 q 318 801 431 902 q 205 475 205 701 q 311 198 205 332 q 576 58 418 65 q 606 57 592 57 q 729 76 680 57 q 825 165 787 98 l 825 290 q 811 311 825 304 q 754 337 794 321 q 715 376 715 353 q 746 404 715 404 l 1018 404 q 1049 376 1049 404 q 1015 337 1049 349 q 981 290 981 325 l 981 14 q 768 -16 863 8 q 669 -34 718 -29 q 575 -39 620 -39 z "},"H":{"ha":1111,"x_min":88,"x_max":1076,"o":"m 312 852 l 312 549 l 851 549 l 851 852 q 817 899 851 887 q 783 938 783 911 q 814 966 783 966 l 1044 966 q 1076 938 1076 966 q 1041 899 1076 911 q 1007 852 1007 887 l 1007 99 q 1041 52 1007 64 q 1076 14 1076 40 q 1044 -14 1076 -14 l 814 -14 q 783 14 783 -14 q 817 52 783 40 q 851 99 851 64 l 851 459 l 312 459 l 312 99 q 346 52 312 64 q 380 14 380 40 q 349 -14 380 -14 l 119 -14 q 88 14 88 -14 q 122 52 88 40 q 156 99 156 64 l 156 852 q 122 899 156 887 q 88 938 88 911 q 119 966 88 966 l 349 966 q 380 938 380 966 q 346 899 380 911 q 312 852 312 887 z "},"I":{"ha":468,"x_min":88,"x_max":380,"o":"m 312 852 l 312 100 q 346 52 312 64 q 380 14 380 40 q 349 -14 380 -14 l 119 -14 q 88 14 88 -14 q 122 52 88 40 q 156 99 156 64 l 156 852 q 122 900 156 888 q 88 938 88 911 q 119 966 88 966 l 349 966 q 380 938 380 966 q 346 900 380 911 q 312 852 312 888 z "},"J":{"ha":463,"x_min":58,"x_max":376,"o":"m 309 122 q 290 -80 309 -13 q 225 -196 271 -147 q 58 -290 161 -262 l 58 -230 q 110 -188 89 -211 q 144 -125 132 -164 q 152 -50 151 -99 q 152 118 152 0 l 152 853 q 118 900 152 888 q 84 939 84 912 q 115 966 84 966 l 345 966 q 376 939 376 966 q 342 900 376 912 q 309 853 309 888 l 309 122 z "},"K":{"ha":1008,"x_min":88,"x_max":1001,"o":"m 312 543 l 637 850 q 726 935 690 900 q 788 965 755 965 q 821 957 805 965 l 894 922 q 913 894 913 910 q 910 881 913 888 l 869 766 l 804 793 q 763 803 781 803 q 714 782 736 803 l 450 524 l 951 62 q 982 41 963 50 q 1001 14 1001 33 q 970 -14 1001 -14 l 741 -14 q 709 14 709 -14 q 722 35 709 24 q 730 45 730 43 q 711 66 730 49 l 312 434 l 312 99 q 346 52 312 64 q 380 14 380 40 q 349 -14 380 -14 l 119 -14 q 88 14 88 -14 q 122 52 88 40 q 156 99 156 64 l 156 852 q 122 899 156 887 q 88 938 88 911 q 119 966 88 966 l 349 966 q 380 938 380 966 q 346 899 380 911 q 312 852 312 887 l 312 543 z "},"L":{"ha":848,"x_min":88,"x_max":808,"o":"m 313 77 l 585 77 q 681 123 640 77 q 744 195 722 168 q 777 216 762 216 q 808 189 808 216 q 806 172 808 178 l 754 -14 l 119 -14 q 88 14 88 -14 q 122 52 88 40 q 156 99 156 64 l 156 852 q 122 899 156 887 q 88 938 88 911 q 119 966 88 966 l 349 966 q 380 938 380 966 q 346 899 380 911 q 312 852 312 887 l 313 77 z "},"M":{"ha":1294,"x_min":74,"x_max":1236,"o":"m 1168 852 l 1168 99 q 1202 52 1168 64 q 1236 14 1236 40 q 1205 -14 1236 -14 l 975 -14 q 944 14 944 -14 q 978 52 944 40 q 1012 99 1012 64 l 1012 750 l 649 -34 l 600 -34 l 241 720 l 241 99 q 275 52 241 64 q 309 14 309 40 q 277 -14 309 -14 l 105 -14 q 74 14 74 -14 q 108 52 74 40 q 142 99 142 64 l 142 852 q 108 899 142 887 q 74 938 74 911 q 105 966 74 966 l 297 966 l 656 229 l 1004 966 l 1205 966 q 1236 938 1236 966 q 1202 899 1236 911 q 1168 852 1168 887 z "},"N":{"ha":1115,"x_min":74,"x_max":1079,"o":"m 911 184 l 911 852 q 878 899 911 887 q 844 938 844 911 q 875 966 844 966 l 1048 966 q 1079 938 1079 966 q 1045 899 1079 911 q 1011 852 1011 887 l 1010 -47 l 863 -12 l 241 760 l 241 99 q 275 52 241 64 q 309 14 309 40 q 277 -14 309 -14 l 105 -14 q 74 14 74 -14 q 108 52 74 40 q 142 99 142 64 l 142 852 q 108 899 142 887 q 74 938 74 911 q 105 966 74 966 l 289 966 l 911 184 z "},"O":{"ha":1092,"x_min":16,"x_max":1082,"o":"m 548 907 q 271 781 350 907 q 191 476 191 656 q 291 171 191 296 q 548 45 391 46 l 551 45 q 804 176 704 45 q 904 472 904 310 l 904 476 q 819 774 903 642 q 548 907 736 907 m 548 994 l 555 994 q 937 855 781 994 q 1082 515 1082 726 q 1080 477 1082 496 q 914 107 1066 239 q 547 -37 762 -25 q 515 -38 532 -38 q 169 97 319 -38 q 16 454 16 234 q 16 479 16 466 q 170 853 24 714 q 548 994 316 991 z "},"P":{"ha":839,"x_min":74,"x_max":818,"o":"m 298 99 q 332 52 298 64 q 366 14 366 40 q 335 -14 366 -14 l 105 -14 q 74 14 74 -14 q 107 52 74 40 q 140 99 140 64 l 142 852 q 108 899 142 887 q 74 938 74 911 q 105 966 74 966 l 505 966 q 659 940 578 966 q 784 837 739 913 q 818 693 818 777 q 772 549 817 613 q 661 466 732 493 q 530 439 589 439 l 298 439 l 298 99 m 298 882 l 298 513 l 438 513 q 527 526 482 513 q 603 570 571 538 q 653 700 653 618 q 601 829 653 778 q 452 882 546 882 l 298 882 z "},"Q":{"ha":1092,"x_min":16,"x_max":1082,"o":"m 548 907 q 271 781 350 907 q 191 476 191 656 q 291 171 191 296 q 548 45 391 46 l 551 45 q 804 176 704 45 q 904 472 904 310 l 904 476 q 819 774 903 642 q 548 907 736 907 m 426 -32 q 142 124 276 -17 q 16 454 16 256 q 16 479 16 466 q 170 853 24 714 q 548 994 316 991 l 555 994 q 937 855 781 994 q 1082 515 1082 726 q 1080 477 1082 496 q 926 118 1067 250 q 643 -28 786 -14 l 675 -45 q 884 -111 820 -111 q 969 -93 905 -111 l 969 -153 q 863 -232 899 -193 q 760 -211 805 -224 q 634 -164 713 -197 q 458 -109 499 -109 q 437 -115 450 -109 q 339 -174 419 -121 l 339 -98 q 426 -32 417 -37 z "},"R":{"ha":928,"x_min":74,"x_max":942,"o":"m 870 57 q 908 44 883 46 q 942 16 942 40 l 942 14 q 911 -14 938 -14 l 730 -14 q 671 43 714 -14 q 576 172 629 99 q 468 322 523 245 q 380 439 412 399 l 298 439 l 298 99 q 332 52 298 64 q 366 14 366 40 q 335 -14 366 -14 l 105 -14 q 74 14 74 -14 q 108 52 74 40 q 142 99 142 64 l 142 852 q 108 899 142 887 q 74 938 74 911 q 105 966 74 966 l 505 966 q 659 940 578 966 q 784 837 739 913 q 818 693 818 777 q 772 549 817 613 q 671 470 735 497 q 576 441 607 443 l 870 57 m 298 882 l 298 513 l 438 513 q 527 526 482 513 q 603 570 571 538 q 653 700 653 618 q 601 829 653 778 q 452 882 546 882 l 298 882 z "},"S":{"ha":745,"x_min":26,"x_max":716,"o":"m 361 51 q 459 78 412 54 q 534 146 506 101 q 564 263 564 195 l 564 271 q 511 378 562 341 q 455 405 488 395 q 309 432 385 424 q 163 475 233 441 q 66 564 98 505 q 35 690 35 623 q 127 907 35 823 q 370 996 224 996 l 391 996 q 665 913 547 989 l 648 764 q 618 739 645 739 l 614 739 q 582 767 594 741 q 503 865 555 825 q 393 908 451 905 l 382 908 q 280 888 324 908 q 234 855 251 873 q 205 812 218 838 q 189 762 195 791 q 184 723 184 741 q 192 677 184 699 q 236 614 205 636 q 287 590 259 597 q 328 581 304 585 q 378 573 351 577 q 460 560 416 567 q 546 541 504 553 q 654 479 618 517 q 697 414 680 449 q 716 311 716 367 q 593 60 716 161 q 452 -17 530 8 q 319 -39 390 -37 q 290 -40 304 -40 q 95 -10 193 -40 l 28 175 q 26 186 26 180 q 33 205 26 196 q 65 222 43 222 q 95 193 83 217 q 197 74 136 103 q 326 50 248 50 q 361 51 343 50 z "},"T":{"ha":851,"x_min":12,"x_max":841,"o":"m 841 778 q 810 750 841 750 q 769 784 794 750 q 713 853 735 830 q 659 876 692 876 l 506 876 l 506 99 q 540 52 506 64 q 574 14 574 39 q 543 -14 574 -14 l 313 -14 q 282 14 282 -14 q 316 52 282 39 q 350 99 350 64 l 350 876 l 194 876 q 139 853 161 876 q 83 784 117 830 q 43 750 60 750 q 12 778 12 750 l 12 903 q 31 958 12 947 q 106 969 49 969 l 747 969 q 825 959 809 969 q 841 903 841 948 l 841 778 z "},"U":{"ha":1054,"x_min":74,"x_max":1007,"o":"m 142 399 l 142 853 q 108 900 142 888 q 74 938 74 911 q 105 966 74 966 l 335 966 q 366 938 366 966 q 332 900 366 911 q 299 854 299 889 l 299 489 q 306 307 299 386 q 340 175 313 228 q 419 98 366 124 q 569 72 472 72 q 795 204 736 72 q 840 489 840 300 l 840 852 q 806 899 840 887 q 772 938 772 911 q 804 966 772 966 l 977 966 q 1007 938 1007 966 q 974 899 1007 911 q 940 852 940 887 l 940 399 q 921 211 939 296 q 852 66 903 125 q 569 -40 761 -40 q 365 -17 450 -40 q 227 66 279 5 q 142 399 142 165 z "},"V":{"ha":1003,"x_min":22,"x_max":991,"o":"m 282 861 l 555 161 l 846 755 q 853 783 853 771 q 849 798 853 791 q 810 850 836 818 l 768 898 l 863 969 q 886 978 873 978 q 914 966 900 978 l 970 909 q 991 856 991 887 q 985 821 991 840 q 937 706 969 772 l 605 18 q 592 -5 600 5 q 568 -14 581 -14 l 466 -14 q 441 -2 450 -14 q 432 16 437 1 q 425 37 427 31 l 168 749 q 129 848 141 821 q 94 888 119 871 q 64 904 80 897 q 39 918 49 910 q 25 932 28 924 q 22 944 22 937 q 26 956 22 949 q 48 966 33 966 l 278 966 q 302 958 290 966 q 315 942 311 949 q 316 935 316 937 q 304 912 316 923 q 290 900 297 906 q 279 886 283 894 q 278 876 278 882 q 282 861 278 869 z "},"W":{"ha":1389,"x_min":-6,"x_max":1392,"o":"m 254 861 l 527 161 l 673 459 l 568 749 q 546 808 555 783 q 529 849 536 832 q 494 888 519 871 q 465 904 480 897 q 438 918 449 910 q 424 935 430 923 q 422 943 422 941 q 424 952 422 947 q 448 966 431 966 l 678 966 q 701 958 691 966 q 715 941 711 951 q 716 935 716 937 q 705 912 716 923 q 690 900 697 906 q 680 886 683 894 q 678 876 678 882 q 682 861 678 869 l 765 649 l 817 755 q 824 783 824 770 q 821 798 824 792 q 781 850 807 818 l 739 898 l 834 969 q 858 978 844 978 q 886 966 871 978 l 942 909 q 963 856 963 887 q 957 821 963 840 q 908 706 941 772 l 817 516 l 956 161 l 1246 755 q 1253 783 1253 770 q 1249 798 1253 792 q 1209 850 1236 818 l 1168 898 l 1262 969 q 1286 978 1272 978 q 1314 966 1300 978 l 1371 909 q 1392 856 1392 887 q 1385 821 1392 840 q 1337 706 1369 772 l 1005 18 q 991 -5 999 3 q 968 -14 983 -14 l 866 -14 q 842 -3 848 -14 q 832 16 838 0 q 825 37 827 31 l 723 321 l 576 18 q 562 -5 570 3 q 539 -14 554 -14 l 437 -14 q 413 -3 420 -14 q 404 16 409 0 q 396 37 398 31 l 100 849 q 66 888 92 869 q 36 904 52 897 q 9 918 20 910 q -5 935 1 923 q -6 943 -6 941 q -5 952 -6 947 q 20 966 2 966 l 250 966 q 273 958 262 966 q 286 942 283 949 q 288 935 288 937 q 276 912 288 923 q 261 900 269 906 q 251 886 254 894 q 250 876 250 882 q 254 861 250 869 z "},"X":{"ha":926,"x_min":7,"x_max":939,"o":"m 242 54 l 248 28 q 238 1 248 15 q 208 -14 227 -14 l 33 -14 q 7 3 10 -14 l 7 7 q 39 40 7 26 l 74 54 q 143 106 120 74 l 406 473 l 164 847 q 84 903 140 882 q 55 916 66 909 q 31 945 31 929 l 31 949 q 55 966 34 966 l 285 966 q 317 952 305 966 q 328 930 328 939 q 322 915 328 922 q 310 902 315 907 q 304 890 305 896 l 304 887 q 313 863 304 875 l 490 592 l 655 823 q 738 929 703 889 q 810 970 773 970 q 830 967 820 970 l 898 945 q 920 925 920 937 q 918 907 920 913 l 886 777 l 824 791 q 769 800 789 799 l 768 800 q 739 776 756 800 l 547 503 l 806 105 q 886 49 825 75 q 914 35 904 41 q 939 4 939 21 q 915 -14 939 -14 l 685 -14 q 662 -7 674 -14 q 642 17 642 3 q 653 44 642 30 q 665 62 665 58 l 665 66 q 658 90 665 77 l 464 385 l 260 93 q 242 54 242 68 z "},"Y":{"ha":926,"x_min":15,"x_max":858,"o":"m 384 454 l 148 847 q 101 888 134 867 q 66 903 83 897 q 36 918 48 910 q 20 931 26 923 q 15 945 15 939 l 15 949 q 39 966 18 966 l 269 966 q 292 959 281 966 q 308 944 302 952 q 312 931 312 937 q 304 913 312 922 q 294 902 300 907 q 288 890 289 896 l 288 887 q 297 863 288 876 l 511 524 l 671 768 q 692 816 690 796 q 693 821 693 818 q 679 867 693 838 l 650 926 l 760 974 q 777 977 768 977 q 808 959 795 977 l 849 890 q 858 859 858 874 q 831 804 858 831 q 756 709 796 766 l 576 446 q 562 398 565 429 q 558 337 558 366 l 558 99 q 592 52 558 64 q 626 14 626 40 q 595 -14 626 -14 l 365 -14 q 334 14 334 -14 q 368 52 334 40 q 401 99 401 64 l 401 389 q 384 454 401 425 z "},"Z":{"ha":926,"x_min":3,"x_max":926,"o":"m 18 48 l 661 876 l 279 876 q 225 853 247 876 q 170 784 203 830 q 129 750 146 750 q 98 778 98 750 l 98 903 q 116 958 98 947 q 192 969 135 969 l 819 969 q 899 953 882 969 q 908 932 908 944 q 896 897 908 918 l 245 80 l 745 81 q 799 103 777 81 q 855 172 821 125 q 895 205 880 205 q 926 178 926 205 l 926 52 q 910 -4 926 6 q 833 -14 894 -14 l 106 -14 q 24 -7 46 -14 q 3 17 3 -1 q 18 48 3 30 z "},"[":{"ha":463,"x_min":132,"x_max":356,"o":"m 328 -235 q 356 -267 356 -235 q 331 -298 356 -298 l 163 -298 q 132 -271 132 -298 l 132 974 q 163 1008 132 1008 l 331 1008 q 356 975 356 1008 q 328 942 356 942 l 246 942 l 246 -235 l 328 -235 z "},"\\":{"ha":694,"x_min":-22,"x_max":696,"o":"m 696 -61 l 564 -61 l -22 1013 l 110 1013 l 696 -61 z "},"]":{"ha":463,"x_min":132,"x_max":357,"o":"m 161 -235 l 243 -235 l 243 942 l 161 942 q 132 975 132 942 q 158 1008 132 1008 l 326 1008 q 357 974 357 1008 q 356 693 357 859 q 356 351 356 527 l 356 9 q 357 -271 356 -157 q 326 -298 357 -298 l 158 -298 q 132 -267 132 -298 q 161 -235 132 -235 z "},"^":{"ha":694,"x_min":85,"x_max":637,"o":"m 314 983 l 408 983 l 637 605 l 562 605 l 361 864 l 159 605 l 85 605 l 314 983 z "},"_":{"ha":694,"x_min":-17,"x_max":709,"o":"m -17 -134 l 709 -134 l 709 -241 l -17 -241 l -17 -134 z "},"`":{"ha":694,"x_min":138,"x_max":475,"o":"m 391 739 l 186 866 q 154 892 170 876 q 138 932 138 909 q 174 989 138 973 q 204 995 189 995 q 243 984 224 995 q 305 926 261 972 q 366 863 349 880 l 448 779 q 475 737 475 751 q 456 719 475 721 q 448 718 453 718 q 391 739 425 718 z "},"a":{"ha":783,"x_min":25,"x_max":748,"o":"m 524 38 l 361 -22 q 318 -31 336 -31 l 290 -31 q 112 52 185 -25 q 28 243 38 131 q 25 298 25 271 q 30 368 25 334 q 77 488 39 429 q 140 555 95 520 q 178 575 157 566 q 287 616 233 595 q 397 656 342 636 q 425 662 412 662 l 429 662 q 541 639 475 660 q 549 635 547 637 q 583 623 562 630 q 593 621 589 621 q 600 623 597 621 q 618 641 613 634 q 642 652 627 652 q 655 650 649 652 q 680 624 680 641 l 680 99 q 714 52 680 64 q 748 14 748 40 q 717 -14 748 -14 l 552 -14 q 524 9 524 -14 l 524 38 m 524 517 q 459 557 502 537 q 386 579 417 578 l 384 579 q 363 575 374 579 q 315 557 339 566 q 267 539 291 548 q 246 526 254 534 q 193 423 207 484 q 182 330 182 376 q 183 300 182 315 q 234 147 191 205 q 338 71 276 88 q 385 64 361 64 q 400 65 393 64 q 431 73 412 66 q 479 91 446 78 q 524 107 513 103 l 524 517 z "},"b":{"ha":772,"x_min":25,"x_max":747,"o":"m 250 114 q 313 73 271 93 q 387 52 355 52 l 391 52 q 409 56 398 52 q 458 74 435 65 q 507 92 482 82 q 527 105 517 96 q 580 207 566 146 q 591 304 591 256 q 590 331 591 318 q 541 482 583 425 q 435 559 497 541 q 385 566 410 566 q 372 566 378 566 q 342 558 359 564 q 293 540 326 552 q 250 524 260 528 l 250 114 m 224 -5 q 189 7 210 1 q 178 9 183 9 q 173 7 175 9 q 155 -9 159 -4 q 132 -21 146 -21 q 118 -18 124 -21 q 93 7 93 -9 l 93 852 q 59 899 93 887 q 25 938 25 911 q 56 966 25 966 q 140 979 98 968 q 250 1013 182 990 l 250 593 l 412 653 q 454 663 435 661 q 468 662 461 663 q 484 662 475 662 q 662 578 588 656 q 745 388 734 499 q 747 332 747 359 q 743 262 747 296 q 696 142 734 201 q 633 76 675 109 q 593 55 615 63 q 485 15 539 35 q 376 -25 431 -5 q 347 -31 360 -31 l 343 -31 q 233 -9 298 -28 q 224 -5 226 -6 z "},"c":{"ha":627,"x_min":37,"x_max":616,"o":"m 376 662 l 391 662 q 612 595 507 662 l 600 473 q 574 452 596 452 l 571 452 q 543 475 552 454 q 478 553 518 530 q 382 576 439 576 l 367 576 q 264 538 300 573 q 215 459 231 506 q 198 352 198 411 q 200 311 198 332 q 252 152 207 214 q 382 62 312 73 q 406 60 393 60 q 531 99 461 60 q 593 122 574 122 q 610 117 602 122 q 616 102 616 111 q 607 71 616 92 q 580 34 596 48 q 479 -17 539 -3 q 366 -31 419 -31 q 143 43 233 -30 q 40 252 52 117 q 37 311 37 281 q 42 383 37 348 q 90 507 52 446 q 205 615 131 573 q 376 662 279 658 z "},"d":{"ha":835,"x_min":39,"x_max":762,"o":"m 537 38 l 374 -22 q 332 -31 349 -31 l 303 -31 q 125 52 199 -25 q 41 243 52 131 q 39 298 39 271 q 43 368 39 334 q 90 488 52 429 q 154 555 109 520 q 191 575 171 566 q 301 616 246 595 q 410 656 355 636 q 439 662 425 662 l 443 662 q 554 639 489 660 l 555 639 q 537 648 555 640 l 537 852 q 503 899 537 887 q 469 938 469 911 q 500 966 469 966 q 584 979 542 968 q 694 1013 627 990 l 694 99 q 728 52 694 64 q 762 14 762 40 q 730 -14 762 -14 l 566 -14 q 537 9 537 -14 l 537 38 m 537 517 q 471 558 513 539 q 399 579 430 578 l 397 579 q 377 575 388 579 q 329 557 353 566 q 280 539 304 548 q 260 526 267 534 q 207 423 220 484 q 195 330 195 376 q 197 300 195 315 q 248 147 204 205 q 352 71 290 88 q 399 64 375 64 q 414 65 406 64 q 444 73 426 66 q 493 91 460 78 q 537 107 526 103 l 537 517 z "},"e":{"ha":681,"x_min":28,"x_max":659,"o":"m 34 376 q 139 585 54 506 q 364 666 224 665 l 367 666 q 585 585 509 666 q 659 375 659 503 q 656 330 658 347 q 612 312 654 312 l 197 312 q 249 151 199 219 q 374 68 300 83 q 418 63 396 63 q 543 98 478 63 q 604 121 586 121 q 622 116 614 121 q 629 100 629 109 q 618 71 629 89 q 604 46 610 52 q 593 35 598 40 q 380 -33 514 -33 q 100 86 193 -32 q 28 300 28 177 q 34 376 28 337 m 197 389 l 520 389 q 484 522 520 455 q 368 579 453 579 l 361 579 q 238 515 276 576 q 197 389 199 454 z "},"f":{"ha":463,"x_min":29,"x_max":482,"o":"m 280 696 l 280 657 l 425 660 l 425 660 q 452 629 452 660 q 450 604 452 618 q 402 560 440 560 l 280 561 l 280 99 q 314 52 280 64 q 348 14 348 40 q 317 -14 348 -14 l 87 -14 q 56 14 56 -14 q 90 52 56 40 q 123 99 123 64 l 123 559 q 64 556 115 559 l 60 556 q 29 583 31 556 l 29 585 q 51 613 29 603 q 106 642 64 619 q 128 652 117 648 q 130 654 130 653 q 123 654 130 654 l 123 696 q 140 840 123 784 q 171 902 151 877 q 204 924 182 917 l 377 989 q 406 994 386 992 l 410 994 q 448 982 430 994 q 477 955 469 967 q 482 928 482 944 q 481 916 482 922 q 458 869 479 875 l 454 869 q 421 882 440 869 q 368 900 393 900 q 338 894 353 900 q 283 812 290 873 q 280 757 281 787 q 280 696 280 728 z "},"g":{"ha":748,"x_min":25,"x_max":680,"o":"m 524 149 l 524 517 q 459 557 502 537 q 386 579 417 578 l 384 579 q 363 575 374 579 q 315 557 339 566 q 267 539 291 548 q 246 526 254 534 q 193 423 207 484 q 182 330 182 376 q 183 300 182 315 q 234 147 191 205 q 338 71 276 88 q 385 64 361 64 q 400 65 393 64 q 431 73 412 66 q 479 90 446 78 q 523 106 512 102 l 523 149 l 524 149 m 523 38 l 361 -22 q 318 -31 336 -31 l 290 -31 q 112 52 185 -25 q 28 243 38 131 q 25 298 25 271 q 30 368 25 334 q 77 488 39 429 q 140 555 95 520 q 178 575 157 566 q 287 616 233 595 q 397 656 342 636 q 425 662 412 662 l 429 662 q 541 639 475 660 q 549 635 547 637 q 583 623 562 630 q 593 621 589 621 q 600 623 597 621 q 618 641 613 634 q 642 652 627 652 q 655 650 649 652 q 680 624 680 641 l 680 -122 q 645 -270 680 -239 q 547 -323 610 -301 l 361 -393 q 318 -402 336 -402 q 289 -401 300 -402 q 111 -317 186 -398 q 45 -207 72 -275 q 197 -149 118 -178 q 234 -224 214 -197 q 338 -300 277 -282 q 384 -306 361 -306 q 400 -305 393 -306 q 431 -298 413 -304 q 451 -290 438 -295 q 478 -280 465 -286 q 513 -222 503 -268 q 524 -161 524 -176 l 523 38 z "},"h":{"ha":819,"x_min":39,"x_max":787,"o":"m 262 99 q 296 52 262 64 q 330 14 330 40 q 300 -14 330 -14 l 70 -14 q 39 14 39 -14 q 73 52 39 40 q 106 99 106 64 l 106 852 q 73 899 106 887 q 39 938 39 911 q 69 966 39 966 q 154 979 111 968 q 262 1013 196 990 l 262 600 q 304 616 276 605 q 359 635 333 627 q 493 665 424 659 q 512 666 503 666 q 632 623 576 666 q 720 343 720 556 l 720 99 q 753 52 720 64 q 787 14 787 40 q 757 -14 787 -14 l 592 -14 q 564 9 564 -14 l 564 343 q 506 543 564 487 q 422 577 471 577 q 358 566 393 577 q 320 552 343 560 q 281 536 298 543 q 262 530 265 531 l 262 99 z "},"i":{"ha":402,"x_min":59,"x_max":351,"o":"m 205 963 q 296 875 296 963 q 205 786 296 786 q 114 875 114 786 q 205 963 114 963 m 283 99 q 317 52 283 64 q 351 14 351 40 q 320 -14 351 -14 l 90 -14 q 59 14 59 -14 q 93 52 59 40 q 127 99 127 64 l 127 533 q 93 579 127 567 q 59 618 59 591 q 90 646 59 646 q 174 659 132 648 q 283 693 216 671 l 283 99 z "},"j":{"ha":330,"x_min":-2,"x_max":262,"o":"m 171 963 q 262 875 262 963 q 171 786 262 786 q 80 875 80 786 q 171 963 80 963 m 250 8 q 231 -194 249 -127 q 166 -310 212 -261 q -2 -403 100 -378 l -2 -344 q 85 -239 64 -304 q 93 -163 92 -213 q 93 4 93 -114 l 93 533 q 59 579 93 567 q 25 618 25 591 q 56 646 25 646 q 140 659 98 648 q 250 693 182 671 l 250 8 z "},"k":{"ha":789,"x_min":52,"x_max":789,"o":"m 276 294 l 276 99 q 310 52 276 64 q 344 14 344 40 q 313 -14 344 -14 l 83 -14 q 52 14 52 -14 q 86 52 52 40 q 120 99 120 64 l 120 852 q 86 899 120 887 q 52 938 52 911 q 83 966 52 966 q 167 979 125 968 q 276 1013 210 990 l 276 406 l 487 575 q 562 630 530 610 q 607 644 585 644 q 640 635 624 644 l 691 604 q 706 581 706 593 q 703 569 706 574 l 664 482 l 612 509 q 582 517 596 517 q 550 505 566 517 q 388 382 452 432 l 614 161 q 704 83 685 92 q 728 78 716 78 q 738 79 732 78 q 752 81 745 81 q 787 61 777 81 q 789 50 789 54 q 773 28 789 35 l 730 8 q 656 -9 690 -9 q 611 -1 632 -9 q 525 56 564 18 l 279 295 q 282 298 282 298 q 276 294 281 298 z "},"l":{"ha":405,"x_min":52,"x_max":344,"o":"m 276 99 q 310 52 276 64 q 344 14 344 40 q 313 -14 344 -14 l 83 -14 q 52 14 52 -14 q 86 52 52 40 q 120 99 120 64 l 120 852 q 86 899 120 887 q 52 938 52 911 q 83 966 52 966 q 167 979 125 968 q 276 1013 210 990 l 276 99 z "},"m":{"ha":1219,"x_min":54,"x_max":1175,"o":"m 278 606 q 312 618 286 608 q 360 635 337 627 q 494 665 425 659 q 513 666 504 666 q 633 623 577 666 q 657 603 653 608 q 699 618 674 609 q 746 635 724 627 q 880 665 811 658 q 899 666 890 666 q 1019 624 962 666 q 1107 343 1107 556 l 1107 99 q 1141 52 1107 64 q 1175 14 1175 40 q 1143 -14 1175 -14 l 979 -14 q 951 9 951 -14 l 951 343 q 893 543 951 487 q 810 577 859 577 q 745 566 781 577 q 712 554 732 561 q 692 546 693 547 q 721 343 721 486 l 721 99 q 755 52 721 64 q 789 14 789 40 q 758 -14 789 -14 l 528 -14 q 497 14 497 -14 q 531 52 497 40 q 565 99 565 64 l 565 343 q 507 543 565 487 q 424 577 473 577 q 359 566 395 577 q 313 549 336 557 q 278 535 290 540 l 278 99 q 312 52 278 64 q 346 14 346 40 q 315 -14 346 -14 l 85 -14 q 54 14 54 -14 q 88 52 54 40 q 122 99 122 64 l 122 533 q 88 579 122 567 q 54 618 54 591 q 85 646 54 646 q 169 659 127 648 q 278 693 212 671 l 278 606 z "},"n":{"ha":808,"x_min":39,"x_max":787,"o":"m 262 600 q 304 616 276 605 q 359 635 333 627 q 493 665 424 659 q 512 666 503 666 q 632 623 576 666 q 720 343 720 556 l 720 99 q 753 52 720 64 q 787 14 787 40 q 757 -14 787 -14 l 592 -14 q 564 9 564 -14 l 564 343 q 506 543 564 487 q 422 577 471 577 q 358 566 393 577 q 320 552 343 560 q 281 536 298 543 q 262 530 265 531 l 262 99 q 296 52 262 64 q 330 14 330 40 q 300 -14 330 -14 l 70 -14 q 39 14 39 -14 q 73 52 39 40 q 106 99 106 64 l 106 533 q 73 579 106 567 q 39 618 39 591 q 69 646 39 646 q 154 659 111 648 q 262 693 196 671 l 262 600 z "},"o":{"ha":751,"x_min":25,"x_max":726,"o":"m 392 662 q 628 555 532 656 q 726 315 724 454 l 726 311 q 626 73 726 171 q 375 -31 524 -26 l 364 -31 q 126 71 226 -31 q 25 313 25 174 l 25 315 q 141 574 26 469 q 184 597 157 588 q 261 625 211 607 q 327 649 291 636 q 389 662 364 662 l 392 662 m 376 589 l 369 589 q 247 519 299 589 q 189 326 189 441 q 245 129 189 211 q 376 43 301 46 l 385 43 q 506 113 454 43 q 564 305 564 190 q 507 503 564 420 q 376 589 451 585 z "},"p":{"ha":812,"x_min":59,"x_max":772,"o":"m 283 596 l 437 653 q 479 663 460 661 q 493 662 486 663 q 508 662 500 662 q 687 578 612 657 q 770 388 759 499 q 772 333 772 360 q 768 262 772 296 q 722 142 758 201 q 657 76 701 110 q 620 56 640 64 q 401 -25 500 11 q 372 -31 386 -31 l 368 -31 q 283 -16 326 -28 l 283 -292 q 317 -339 283 -327 q 351 -378 351 -351 q 320 -405 351 -405 l 90 -405 q 59 -378 59 -405 q 93 -339 59 -351 q 127 -292 127 -327 l 127 533 q 93 579 127 567 q 59 618 59 591 q 90 646 59 646 q 174 659 132 648 q 283 693 216 671 l 283 596 m 283 107 q 344 70 305 88 q 412 52 382 52 l 416 52 q 434 56 423 52 q 483 73 458 64 q 531 92 507 82 q 552 105 543 96 q 604 208 590 146 q 616 301 616 254 q 614 331 616 316 q 564 484 607 425 q 459 559 521 542 q 411 566 435 566 q 397 566 404 566 q 367 558 385 564 q 324 542 353 553 q 283 527 295 532 l 283 107 z "},"q":{"ha":795,"x_min":39,"x_max":759,"o":"m 534 37 l 374 -22 q 332 -31 350 -31 l 302 -31 q 124 54 197 -25 q 41 243 52 131 q 39 300 39 272 q 43 368 39 335 q 90 488 52 429 q 153 555 110 522 q 191 575 170 567 q 301 616 247 596 q 410 656 355 636 q 439 662 425 662 l 443 662 q 555 639 490 660 q 557 638 556 638 q 572 637 557 637 l 572 631 q 597 623 577 629 q 605 621 602 621 q 611 623 609 621 q 629 641 624 634 q 652 652 637 652 q 666 650 660 652 q 691 624 691 641 l 691 -292 q 725 -339 691 -327 q 759 -378 759 -351 q 728 -405 759 -405 l 498 -405 q 467 -378 467 -405 q 500 -339 467 -351 q 534 -292 534 -327 l 534 37 m 534 518 q 471 558 512 538 q 399 579 429 578 l 397 579 q 378 575 387 579 q 328 557 353 566 q 279 539 304 548 q 259 526 268 534 q 206 423 220 484 q 195 330 195 376 q 196 300 195 315 q 247 147 203 205 q 351 71 288 89 q 398 64 375 64 q 413 65 406 64 q 444 73 426 66 q 491 90 458 78 q 534 106 523 102 l 534 518 z "},"r":{"ha":564,"x_min":66,"x_max":551,"o":"m 290 404 l 290 99 q 324 52 290 64 q 357 14 357 40 q 327 -14 357 -14 l 97 -14 q 66 14 66 -14 q 100 52 66 40 q 134 99 134 64 l 134 533 q 100 579 134 567 q 66 618 66 591 q 96 646 66 646 q 181 659 138 648 q 290 693 223 671 l 290 605 l 361 631 q 443 661 413 651 q 470 665 455 665 q 551 646 498 665 l 534 454 l 474 454 q 386 553 448 553 q 373 552 379 553 q 312 506 332 547 q 290 404 292 464 z "},"s":{"ha":600,"x_min":35,"x_max":571,"o":"m 334 663 q 538 595 438 658 l 524 469 q 496 447 520 447 l 493 447 q 463 472 473 448 q 397 551 440 520 q 306 585 354 583 l 304 585 q 231 566 267 585 q 187 509 195 547 q 184 484 184 494 q 214 434 184 448 q 321 397 260 411 q 487 341 411 377 q 571 192 564 306 l 571 185 q 530 78 571 132 q 400 -9 485 20 q 285 -29 348 -27 l 266 -29 q 93 -4 180 -29 l 35 154 l 37 170 q 66 193 38 193 l 69 193 q 97 168 86 189 q 168 78 127 104 q 272 51 209 53 l 280 51 q 378 72 324 51 q 434 148 432 93 l 434 152 q 376 232 434 216 q 250 268 304 252 q 119 329 180 287 q 54 456 54 372 l 54 459 q 143 620 55 571 q 316 664 221 664 q 334 663 325 664 z "},"t":{"ha":463,"x_min":29,"x_max":452,"o":"m 123 559 q 64 556 115 559 l 60 556 q 29 583 31 556 l 29 585 q 51 613 29 603 q 106 642 64 619 q 128 652 117 648 q 130 654 130 653 q 123 654 130 654 l 123 757 q 140 811 123 795 q 210 852 157 827 q 248 863 232 863 q 280 832 280 863 l 280 657 l 425 660 l 425 660 q 452 629 452 660 q 450 604 452 618 q 402 560 440 560 l 280 561 l 280 149 q 318 66 280 94 q 397 34 357 39 l 397 -13 q 200 8 276 -13 q 123 170 123 29 l 123 559 z "},"u":{"ha":840,"x_min":41,"x_max":790,"o":"m 722 99 q 756 52 722 64 q 790 14 790 40 q 759 -14 790 -14 l 594 -14 q 566 9 566 -14 l 566 31 q 524 15 553 26 q 469 -5 494 4 q 336 -33 404 -26 q 315 -34 325 -34 q 197 7 252 -34 q 109 288 109 75 l 109 533 q 75 579 109 567 q 41 618 41 591 q 71 646 41 646 q 156 659 113 648 q 265 693 198 671 l 265 288 q 323 88 265 144 q 406 54 357 54 q 472 66 435 54 q 508 79 485 71 q 547 94 531 88 q 558 98 551 96 l 566 101 l 566 533 q 532 579 566 567 q 498 618 498 591 q 528 646 498 646 q 613 659 570 648 q 722 693 655 671 l 722 99 z "},"v":{"ha":703,"x_min":4,"x_max":684,"o":"m 257 550 l 418 155 l 558 490 q 564 514 564 503 q 547 553 564 534 l 517 589 l 588 644 q 608 652 596 652 q 631 642 621 652 l 669 603 q 684 565 684 587 q 680 538 684 553 q 647 462 669 506 l 439 -3 q 430 -18 435 -12 q 409 -26 421 -26 l 352 -26 q 330 -16 337 -26 q 323 -3 327 -13 q 319 10 320 7 l 97 538 q 69 572 87 560 q 42 587 57 581 q 19 600 28 593 q 5 615 12 604 q 4 624 4 621 q 5 633 4 627 q 29 645 13 645 l 252 645 q 273 638 262 645 q 286 623 283 631 q 288 616 288 618 q 277 595 288 605 q 255 572 256 576 q 254 563 254 568 q 257 550 254 557 z "},"w":{"ha":1117,"x_min":4,"x_max":1099,"o":"m 671 550 l 833 155 l 972 490 q 978 514 978 503 q 962 553 978 534 l 932 588 l 1001 644 q 1022 652 1009 652 q 1045 642 1034 652 l 1084 603 q 1099 565 1099 587 q 1094 538 1099 553 q 1061 462 1083 506 l 853 -3 q 844 -18 849 -12 q 823 -26 836 -26 l 766 -26 q 745 -16 751 -26 q 738 -3 741 -13 q 732 9 734 6 l 593 342 l 439 -3 q 430 -18 435 -12 q 409 -26 421 -26 l 352 -26 q 330 -16 337 -26 q 323 -3 327 -13 q 319 10 320 7 l 97 538 q 69 572 87 560 q 42 587 57 581 q 19 600 28 593 q 5 615 12 604 q 4 624 4 621 q 5 633 4 627 q 29 645 13 645 l 252 645 q 273 638 262 645 q 286 623 283 631 q 288 616 288 618 q 277 595 288 605 q 255 572 256 576 q 254 563 254 568 q 257 550 254 557 l 418 155 l 545 458 l 511 538 q 484 572 502 560 q 457 587 471 581 q 433 600 442 593 q 420 616 422 607 q 418 624 418 621 q 420 633 418 627 q 444 645 427 645 l 666 645 q 688 638 676 645 q 701 623 697 631 q 702 616 702 618 q 691 595 702 605 q 669 572 671 576 q 668 563 668 568 q 671 550 668 557 z "},"x":{"ha":745,"x_min":-1,"x_max":726,"o":"m 96 73 l 285 304 l 110 558 q 80 582 101 571 q 55 593 67 589 q 33 604 42 598 q 11 627 11 616 q 38 644 11 644 l 256 644 q 288 627 276 644 q 292 614 292 621 q 279 596 292 604 q 275 589 275 594 q 281 574 275 582 l 384 425 l 484 547 q 564 639 546 623 q 593 649 575 649 q 645 633 614 649 l 688 610 q 702 589 702 602 q 699 577 702 583 l 656 491 q 593 524 614 513 q 591 524 592 524 q 570 507 585 524 l 438 345 l 627 72 q 660 47 637 56 q 681 37 670 42 q 703 27 691 33 q 726 3 726 14 q 699 -14 726 -14 l 480 -14 q 448 3 460 -14 q 444 15 444 9 q 457 34 444 25 q 461 41 460 36 l 461 42 q 455 57 461 48 l 340 224 l 203 59 q 193 37 193 45 l 193 35 q 195 26 193 30 q 197 18 197 21 q 192 3 197 9 q 164 -14 181 -14 l 23 -14 q -1 3 -1 -14 q 5 17 -1 10 q 46 39 17 32 q 96 73 75 47 z "},"y":{"ha":703,"x_min":3,"x_max":684,"o":"m 97 538 q 69 572 87 560 q 33 591 54 583 q 6 614 12 600 q 3 625 3 621 q 29 645 3 645 l 252 645 q 286 624 277 645 q 288 614 288 619 q 269 589 288 598 q 255 572 259 584 q 254 563 254 568 q 257 550 254 557 l 418 155 l 558 490 q 564 514 564 503 q 547 553 564 534 l 517 589 l 588 644 q 608 652 596 652 q 631 642 621 652 l 669 603 q 684 565 684 587 q 680 538 684 553 q 647 462 669 506 l 312 -286 q 275 -361 291 -330 q 218 -397 254 -397 l 215 -397 l 159 -395 q 132 -369 132 -391 l 127 -279 l 178 -277 q 228 -246 213 -276 l 334 -26 q 336 -25 336 -26 q 331 -17 336 -22 q 323 -3 327 -13 q 319 10 320 7 l 97 538 z "},"z":{"ha":691,"x_min":18,"x_max":659,"o":"m 646 589 l 230 67 l 493 67 q 541 88 520 68 q 590 147 562 107 q 627 177 612 177 q 656 151 656 177 l 656 44 q 641 -5 656 4 q 573 -14 627 -14 l 109 -14 q 37 -7 56 -14 q 18 14 18 -3 q 31 42 18 26 l 444 570 l 235 570 q 190 551 208 570 q 143 492 171 532 q 106 463 121 463 q 77 488 77 463 l 77 596 q 93 644 77 633 q 160 654 109 654 l 582 654 q 659 619 659 654 q 646 589 659 606 z "},"{":{"ha":694,"x_min":71,"x_max":568,"o":"m 106 402 q 77 416 85 404 q 71 436 71 424 q 72 444 71 439 q 105 470 76 466 q 235 514 201 478 q 261 575 254 536 q 268 652 268 614 l 268 795 q 278 899 268 845 q 323 987 288 954 q 525 1042 378 1042 q 558 1029 547 1042 q 568 1005 568 1015 q 530 981 568 981 q 422 949 449 979 q 398 891 404 930 q 393 817 393 852 l 393 720 q 385 605 393 667 q 352 506 378 543 q 263 435 309 445 q 352 366 309 426 q 385 266 378 328 q 393 151 393 205 l 393 54 q 422 -77 393 -45 q 530 -109 450 -107 q 562 -129 553 -109 q 564 -140 564 -135 q 557 -159 564 -149 q 525 -170 547 -170 q 323 -116 380 -170 q 278 -28 288 -82 q 268 76 268 26 l 268 219 q 261 297 268 257 q 234 359 254 336 q 177 390 214 380 q 106 402 141 399 z "},"|":{"ha":694,"x_min":288,"x_max":418,"o":"m 288 1024 l 418 1024 l 418 -168 l 288 -168 l 288 1024 z "},"}":{"ha":694,"x_min":67,"x_max":564,"o":"m 530 402 q 457 390 494 399 q 401 359 420 380 q 374 297 380 336 q 367 219 367 257 l 367 76 q 356 -28 367 26 q 312 -116 346 -82 q 110 -170 254 -170 q 79 -160 88 -170 q 71 -140 71 -150 q 73 -129 71 -135 q 104 -109 81 -109 q 214 -77 186 -107 q 243 54 243 -45 l 243 151 q 250 266 243 205 q 283 365 258 328 q 371 435 326 427 q 283 505 325 445 q 250 605 257 543 q 243 720 243 667 l 243 817 q 237 891 243 852 q 213 949 231 930 q 104 981 185 979 q 67 1005 67 981 q 77 1029 67 1015 q 110 1042 85 1042 q 312 987 256 1042 q 357 899 347 954 q 367 795 367 845 l 367 652 q 374 575 367 614 q 400 514 380 536 q 530 470 433 478 q 564 444 558 466 l 564 436 q 557 416 564 424 q 530 402 548 404 z "},"~":{"ha":694,"x_min":22,"x_max":673,"o":"m 669 490 q 587 374 626 410 q 490 332 541 332 q 311 392 408 332 q 225 420 265 420 q 168 404 195 420 q 149 391 160 398 q 126 374 138 385 q 87 327 104 353 q 60 313 77 313 q 39 319 50 313 q 22 343 22 328 q 30 365 22 353 q 97 469 62 414 q 212 524 132 524 q 395 462 303 524 q 477 433 437 433 q 547 454 512 433 q 606 522 581 474 q 636 538 616 538 q 645 536 642 538 q 672 512 668 533 q 673 505 673 509 q 669 490 673 498 z "},"":{"ha":373,"x_min":0,"x_max":0,"o":""},"":{"ha":386,"x_min":84,"x_max":267,"o":"m 216 352 l 264 -295 l 264 -301 q 197 -359 264 -359 l 154 -359 q 87 -302 87 -359 l 87 -295 l 135 352 q 168 382 135 382 l 182 382 q 216 352 216 382 m 176 437 q 84 509 84 437 l 84 565 q 176 637 84 637 q 267 565 267 637 l 267 509 q 176 437 267 437 z "},"":{"ha":694,"x_min":71,"x_max":651,"o":"m 439 662 q 646 595 542 662 l 633 473 q 608 452 630 452 l 605 452 q 577 475 586 454 q 512 554 552 529 q 439 576 477 574 l 439 62 q 565 100 495 62 q 627 124 608 124 q 646 117 639 124 q 651 102 651 110 q 641 72 651 91 q 615 37 629 49 q 525 -12 577 3 q 439 -28 473 -26 l 439 -157 l 348 -157 l 348 -26 q 165 56 244 -16 q 74 253 85 128 q 71 312 71 283 q 76 384 71 349 q 124 508 85 446 q 348 655 202 633 l 348 770 l 439 770 l 439 662 m 348 568 q 298 538 324 563 q 249 460 264 505 q 232 352 232 412 q 234 312 232 333 q 286 153 241 215 q 348 89 326 99 l 348 568 z "},"":{"ha":694,"x_min":-11,"x_max":675,"o":"m 66 73 q 92 33 66 33 q 131 59 118 33 q 151 108 144 85 q 118 123 136 123 q 66 73 66 123 m 43 545 l 144 545 q 140 629 140 584 q 144 702 140 669 q 184 844 153 785 q 433 992 261 992 q 534 966 485 992 q 608 892 583 940 q 621 840 619 868 l 621 834 q 600 784 621 806 q 550 762 577 762 q 503 781 526 762 q 476 829 481 797 q 469 882 472 862 q 422 924 463 918 q 402 926 412 926 q 352 909 372 926 q 303 830 314 876 q 293 732 293 783 q 297 632 293 682 q 304 545 302 582 l 466 545 q 493 522 493 545 l 493 474 q 466 450 493 450 l 311 450 q 311 417 311 441 q 310 369 311 393 q 293 262 306 313 q 271 169 280 212 q 332 148 296 160 q 405 126 368 136 q 477 117 444 117 q 525 123 503 117 q 597 176 570 135 q 608 207 605 187 q 644 227 610 227 q 675 197 675 227 q 667 152 675 173 q 651 111 659 131 q 566 1 625 43 q 452 -35 512 -35 q 436 -34 444 -35 q 313 9 370 -28 q 263 42 300 18 l 227 64 q 151 -17 199 21 q 95 -35 125 -35 q 61 -29 78 -35 q -4 26 14 -14 q -11 61 -11 42 q -4 100 -11 79 q 34 164 8 143 q 106 194 72 194 l 111 194 q 162 191 140 192 q 165 242 165 210 l 165 262 q 161 346 163 304 q 153 450 159 396 l 43 450 q 16 474 16 450 l 16 522 q 43 545 16 545 z "},"":{"ha":694,"x_min":43,"x_max":653,"o":"m 348 483 q 237 436 283 483 q 191 322 191 389 q 237 209 191 255 q 348 162 283 162 q 458 209 411 162 q 505 322 505 255 q 458 436 505 389 q 348 483 411 483 m 348 571 q 488 529 433 571 l 576 616 q 595 625 584 625 q 615 616 608 625 l 647 585 q 653 570 653 577 q 645 553 653 562 l 555 464 q 600 323 600 406 q 555 182 600 239 l 646 92 q 653 76 653 83 q 647 61 653 68 l 614 30 q 595 21 606 21 q 574 31 583 21 l 488 117 q 348 75 434 75 q 208 117 262 75 l 121 29 q 101 21 113 21 q 82 28 90 21 l 51 60 q 43 76 43 68 q 52 93 43 84 l 141 182 q 97 323 97 240 q 141 463 97 405 l 51 554 q 43 570 43 561 q 51 586 43 578 l 82 617 q 101 625 90 625 q 121 616 113 625 l 208 529 q 348 571 262 571 z "},"":{"ha":926,"x_min":15,"x_max":858,"o":"m 354 503 l 148 847 q 101 888 134 867 q 66 903 83 897 q 36 918 48 910 q 20 931 26 923 q 15 945 15 939 l 15 949 q 39 966 18 966 l 269 966 q 292 959 281 966 q 308 944 302 952 q 312 931 312 937 q 304 913 312 922 q 294 902 300 907 q 288 890 289 896 l 288 887 q 297 863 288 876 l 512 523 q 586 633 540 561 q 671 768 632 705 q 692 815 689 797 l 692 821 q 678 869 692 839 l 650 926 l 760 974 q 777 977 768 977 q 808 959 795 977 l 849 890 q 858 858 858 874 q 833 803 858 831 q 756 708 798 765 q 680 599 719 658 q 616 503 642 541 l 789 503 l 789 422 l 566 422 q 561 388 563 414 q 558 353 558 363 l 789 353 l 789 272 l 558 272 l 558 99 q 592 52 558 64 q 626 14 626 40 q 595 -14 626 -14 l 365 -14 q 334 14 334 -14 q 368 52 334 40 q 401 99 401 64 q 402 228 401 220 q 402 272 402 237 l 197 272 l 197 353 l 402 353 l 402 362 q 401 389 401 374 q 400 422 401 418 l 197 422 l 197 503 l 354 503 z "},"":{"ha":694,"x_min":214,"x_max":337,"o":"m 214 1024 l 337 1024 l 337 538 l 214 538 l 214 1024 m 214 -165 l 214 321 l 337 321 l 337 -165 l 214 -165 z "},"":{"ha":694,"x_min":26,"x_max":667,"o":"m 337 -234 q 427 -209 384 -231 q 496 -146 470 -188 q 524 -39 524 -102 l 524 -32 q 475 65 522 32 q 423 90 454 81 q 289 116 358 108 q 153 155 219 123 q 64 238 93 184 q 35 355 35 292 q 106 543 35 474 q 35 713 35 597 q 120 914 35 835 q 345 997 210 997 q 365 996 355 997 q 619 920 509 990 l 603 781 q 576 756 600 756 q 568 757 570 756 q 540 784 550 758 q 467 873 515 837 q 366 913 419 910 l 357 913 q 262 894 304 913 q 220 864 237 882 q 195 824 205 848 q 180 779 184 802 q 176 742 176 760 q 182 701 176 720 q 222 643 193 663 q 269 621 241 628 q 306 613 284 616 q 353 606 328 610 q 428 593 388 600 q 508 576 469 587 q 609 517 576 553 q 649 457 633 492 q 667 362 667 414 q 597 172 667 248 q 609 161 599 172 q 649 100 633 133 q 667 5 667 56 q 553 -227 667 -133 q 422 -298 494 -274 q 300 -321 368 -317 q 273 -321 286 -321 q 90 -293 181 -321 l 28 -121 q 26 -111 26 -115 q 33 -92 26 -100 q 59 -77 41 -77 l 62 -77 q 92 -103 79 -79 q 187 -212 131 -185 q 305 -235 233 -235 q 337 -234 321 -235 m 497 212 q 524 317 524 254 l 524 325 q 476 422 522 389 q 423 448 452 439 q 310 469 368 462 q 207 492 251 477 q 195 467 203 487 q 180 422 184 446 q 176 385 176 403 q 182 344 176 362 q 222 286 194 305 q 269 264 241 271 q 353 248 292 258 q 428 236 388 242 q 497 212 469 229 z "},"":{"ha":463,"x_min":-7,"x_max":467,"o":"m 376 777 q 311 804 336 777 q 285 864 285 827 q 376 951 285 951 q 441 926 416 951 q 467 864 467 900 q 441 802 467 829 q 376 777 415 777 m 88 777 q 23 802 49 777 q -7 864 -7 833 q 22 924 -7 895 q 88 951 49 951 q 153 926 127 951 q 179 864 179 901 q 153 802 179 829 q 88 777 127 777 z "},"":{"ha":1039,"x_min":-3,"x_max":1044,"o":"m 520 998 q 891 846 738 998 q 1044 480 1044 694 q 891 114 1044 266 q 520 -38 738 -38 q 150 114 302 -38 q -3 480 -3 266 q 150 846 -3 694 q 520 998 302 998 m 520 917 q 213 789 341 917 q 85 480 85 662 q 213 171 85 298 q 520 43 341 43 q 827 171 699 43 q 956 480 956 298 q 827 789 956 662 q 520 917 699 917 m 562 779 l 572 779 q 767 720 674 779 l 756 616 q 732 595 756 595 l 730 595 q 704 616 713 595 q 648 683 682 662 q 568 702 616 702 l 555 702 q 469 670 498 699 q 427 603 441 644 q 412 511 412 562 q 414 477 412 494 q 458 341 420 393 q 568 266 509 274 q 588 264 578 264 q 694 296 635 264 q 749 317 732 317 q 765 312 760 317 q 772 297 772 305 q 762 270 772 286 q 740 239 753 250 q 651 193 703 205 q 559 182 604 182 l 554 182 q 360 245 439 182 q 271 426 282 309 q 269 478 269 452 q 273 538 269 509 q 315 646 281 592 q 562 779 394 772 z "},"":{"ha":465,"x_min":16,"x_max":454,"o":"m 313 589 l 225 556 q 197 550 208 550 q 179 551 185 550 q 68 603 113 553 q 17 719 24 650 q 16 750 16 734 q 47 868 16 819 q 85 909 60 888 q 111 922 96 918 q 177 947 144 935 q 241 971 210 960 q 264 975 251 975 q 333 960 294 973 q 356 951 341 958 q 393 969 378 969 q 406 965 402 969 q 420 947 420 958 q 418 905 420 922 q 415 863 416 888 q 414 821 414 852 l 415 628 q 435 607 415 613 q 454 582 454 601 q 429 560 454 560 l 337 561 q 314 579 314 561 l 313 589 m 52 509 l 418 509 q 443 488 443 509 l 443 452 q 418 431 443 431 l 52 431 q 26 452 26 431 l 26 488 q 52 509 26 509 m 245 619 q 262 623 254 620 q 313 642 290 633 l 313 881 q 237 915 278 913 q 228 913 233 915 q 198 902 212 907 q 169 891 183 897 q 159 884 163 889 q 129 826 137 861 q 123 773 123 799 q 123 753 123 763 q 153 665 127 700 q 212 622 177 631 q 236 618 224 618 q 245 619 241 618 z "},"":{"ha":694,"x_min":49,"x_max":646,"o":"m 57 409 q 49 425 49 416 q 56 441 49 433 q 170 558 97 491 q 293 678 243 626 q 311 686 300 686 q 323 683 316 686 l 353 663 q 359 649 359 654 q 356 640 359 645 l 188 427 l 355 212 q 360 201 360 208 q 351 186 360 193 l 326 170 q 311 165 319 165 q 293 174 299 165 q 175 289 235 229 q 57 409 114 349 m 342 409 q 335 425 335 415 q 340 441 335 432 q 455 558 382 491 q 578 678 528 626 q 597 686 587 686 q 612 681 607 686 l 637 663 q 645 649 645 656 q 640 639 645 643 l 474 427 l 643 211 q 646 203 646 206 q 636 186 646 193 l 612 170 q 597 165 607 165 q 579 173 587 165 q 460 290 522 230 q 342 409 399 349 z "},"":{"ha":694,"x_min":3,"x_max":694,"o":"m 694 218 l 581 218 l 581 512 l 3 512 l 3 615 l 694 615 l 694 218 z "},"":{"ha":454,"x_min":62,"x_max":393,"o":"m 106 264 q 62 296 62 264 l 62 353 q 106 386 62 386 l 348 386 q 393 353 393 386 l 393 296 q 349 264 393 264 l 106 264 z "},"":{"ha":1038,"x_min":-3,"x_max":1044,"o":"m 601 455 l 767 237 q 785 232 772 233 q 811 209 811 227 l 811 208 q 786 186 809 186 l 680 186 q 586 295 663 186 q 470 453 509 404 l 433 453 l 433 258 q 453 234 433 241 q 473 209 473 227 q 447 186 473 186 l 312 186 q 287 209 287 186 q 307 234 287 227 q 327 258 327 241 l 327 701 q 307 725 327 718 q 287 751 287 732 q 312 773 287 773 l 547 774 q 641 758 592 774 q 718 694 690 742 q 739 608 737 659 q 710 520 737 559 q 648 472 688 488 q 601 455 609 455 m 520 998 q 891 846 738 998 q 1044 480 1044 694 q 891 114 1044 266 q 520 -38 738 -38 q 150 114 302 -38 q -3 480 -3 266 q 150 846 -3 694 q 520 998 302 998 m 433 713 l 433 508 l 508 508 q 600 539 567 508 q 627 612 627 566 q 598 684 627 656 q 516 713 568 713 l 433 713 m 520 917 q 213 789 341 917 q 85 480 85 662 q 213 171 85 298 q 520 43 341 43 q 827 171 699 43 q 956 480 956 298 q 827 789 956 662 q 520 917 699 917 z "},"":{"ha":461,"x_min":10,"x_max":465,"o":"m 35 927 l 441 927 q 465 907 465 927 l 465 848 q 441 827 465 827 l 35 827 q 10 848 10 827 l 10 907 q 35 927 10 927 z "},"":{"ha":555,"x_min":49,"x_max":502,"o":"m 275 954 q 436 888 370 954 q 502 731 502 823 q 436 574 502 640 q 275 508 370 508 q 114 574 180 508 q 49 731 49 640 q 114 888 49 823 q 275 954 180 954 m 275 871 q 179 830 220 871 q 139 731 139 789 q 179 632 139 672 q 275 591 220 591 q 371 632 330 591 q 412 731 412 672 q 371 830 412 789 q 275 871 330 871 z "},"":{"ha":694,"x_min":94,"x_max":628,"o":"m 136 560 l 308 560 l 308 736 q 343 774 308 774 l 378 774 q 414 736 414 774 l 414 560 l 586 560 q 628 529 628 560 l 628 493 q 586 462 628 462 l 414 462 l 414 286 q 378 248 414 248 l 343 248 q 308 286 308 248 l 308 462 l 136 462 q 94 493 94 462 l 94 529 q 136 560 94 560 m 136 175 l 586 175 q 628 143 628 175 l 628 108 q 586 76 628 76 l 136 76 q 94 108 94 76 l 94 143 q 136 175 94 175 z "},"":{"ha":498,"x_min":52,"x_max":442,"o":"m 56 292 l 56 340 q 81 413 56 382 q 153 495 104 441 q 210 554 182 523 q 264 616 238 585 q 317 703 298 656 q 329 758 329 732 q 319 799 329 781 q 260 852 298 838 q 214 861 239 861 q 176 856 188 861 q 105 806 132 838 q 62 743 75 772 l 52 836 q 62 861 56 848 q 203 951 110 939 q 241 954 222 954 q 363 922 305 954 q 440 782 439 878 l 440 779 q 328 556 440 654 q 182 398 220 461 l 317 398 q 442 424 373 398 l 442 318 q 375 293 406 294 q 317 292 343 292 l 56 292 z "},"":{"ha":498,"x_min":61,"x_max":437,"o":"m 332 317 q 204 273 281 281 q 180 271 192 271 q 65 312 117 271 l 61 467 q 174 345 118 359 q 216 340 196 340 q 273 353 247 340 q 328 414 314 375 q 336 460 336 437 q 330 498 336 479 q 277 569 317 539 q 151 600 237 599 l 149 635 q 227 664 191 648 q 281 713 262 680 q 297 764 297 739 q 296 780 297 772 q 269 836 290 814 q 208 865 245 861 l 200 865 q 135 835 166 865 q 92 755 119 820 l 76 871 q 246 952 151 952 q 397 861 359 951 q 408 811 408 836 q 344 690 408 753 q 330 676 333 679 q 410 598 379 652 q 437 502 437 551 q 436 488 437 495 q 332 317 427 387 z "},"":{"ha":463,"x_min":68,"x_max":406,"o":"m 153 751 q 96 730 119 730 q 87 732 90 730 q 68 750 68 734 q 96 792 68 764 l 178 876 q 238 939 194 893 q 301 997 283 985 q 339 1008 319 1008 q 371 1001 355 1008 q 406 945 406 985 q 390 905 406 922 q 356 878 374 888 l 153 751 z "},"":{"ha":899,"x_min":60,"x_max":812,"o":"m 587 510 q 552 556 587 544 q 517 595 517 568 q 548 623 517 623 q 622 633 583 624 q 743 671 668 644 l 743 96 q 778 51 743 62 q 812 14 812 41 q 781 -14 812 -14 l 586 -14 l 586 37 l 470 -8 q 382 -25 425 -25 q 358 -24 370 -25 q 262 5 303 -18 q 205 32 213 32 l 207 16 l 239 -360 l 239 -362 q 208 -389 239 -389 l 146 -389 q 115 -361 115 -389 l 115 545 q 82 565 105 555 q 60 595 60 574 q 90 623 60 623 q 165 634 127 625 q 210 646 189 639 q 280 670 232 654 l 280 288 q 332 109 280 171 q 429 59 372 59 q 498 73 460 59 l 587 106 l 587 510 z "},"":{"ha":859,"x_min":75,"x_max":836,"o":"m 476 893 l 476 -145 l 618 -145 l 618 893 l 476 893 m 342 520 q 294 516 330 516 q 138 583 201 516 q 75 741 75 649 q 138 899 75 833 q 293 966 201 965 l 801 966 q 836 935 836 966 q 794 890 836 905 q 753 831 753 876 l 753 -83 q 794 -142 753 -127 q 836 -186 836 -157 q 801 -217 836 -217 l 294 -217 q 259 -186 259 -217 q 300 -142 259 -157 q 342 -83 342 -127 l 342 520 z "},"":{"ha":347,"x_min":73,"x_max":273,"o":"m 173 323 q 102 351 130 323 q 73 419 73 380 q 102 487 73 458 q 173 515 130 515 q 244 487 216 515 q 273 419 273 458 q 244 351 273 380 q 173 323 216 323 z "},"":{"ha":686,"x_min":177,"x_max":416,"o":"m 251 10 l 321 10 q 312 -31 312 -20 q 323 -58 312 -48 q 373 -103 347 -81 q 416 -196 416 -140 l 416 -202 q 317 -277 413 -270 l 306 -277 q 197 -255 263 -277 l 177 -164 q 265 -209 241 -209 q 298 -198 282 -209 q 313 -175 313 -189 q 282 -125 313 -155 q 241 -73 259 -103 q 231 -41 231 -59 q 251 10 231 -20 z "},"":{"ha":453,"x_min":86,"x_max":332,"o":"m 157 292 q 132 315 132 292 q 153 342 132 334 q 175 370 175 350 l 175 840 l 86 840 l 86 874 q 186 929 86 902 q 231 941 209 935 q 288 958 252 947 l 288 370 q 310 342 288 350 q 332 315 332 334 q 306 292 332 292 l 157 292 z "},"":{"ha":463,"x_min":6,"x_max":452,"o":"m 229 983 q 387 917 322 983 q 452 759 452 850 q 387 601 452 667 q 229 534 322 534 q 71 601 136 534 q 6 759 6 667 q 71 917 6 850 q 229 983 136 983 m 52 509 l 407 509 q 432 487 432 509 l 432 448 q 407 425 432 425 l 52 425 q 27 448 27 425 l 27 487 q 52 509 27 509 m 220 926 q 149 880 178 926 q 120 774 120 836 q 121 760 120 768 q 160 640 124 688 q 239 592 196 592 q 311 637 281 592 q 340 743 340 682 q 339 758 340 750 q 299 878 335 829 q 220 926 263 926 z "},"":{"ha":694,"x_min":50,"x_max":646,"o":"m 638 409 q 520 290 581 349 q 401 173 459 230 q 384 165 394 165 q 368 170 374 165 l 345 186 q 335 201 335 193 q 340 212 335 208 l 507 427 l 340 639 q 336 649 336 643 q 343 663 336 656 l 370 682 q 384 686 377 686 q 401 679 393 686 q 525 558 452 626 q 640 441 597 491 q 646 425 646 433 q 638 409 646 416 m 353 409 q 234 290 295 349 q 116 173 174 230 q 98 165 109 165 q 83 170 88 165 l 59 186 q 50 202 50 193 q 52 211 50 206 l 222 427 l 55 639 q 50 649 50 643 q 58 663 50 656 l 83 681 q 98 686 88 686 q 117 678 109 686 q 239 558 167 626 q 355 441 312 491 q 360 425 360 432 q 353 409 360 415 z "},"":{"ha":916,"x_min":-18,"x_max":903,"o":"m 788 963 l 903 963 l 98 -14 l -18 -14 l 788 963 m 825 463 l 825 191 l 888 191 l 888 119 l 825 119 l 825 58 q 857 35 825 45 q 889 7 889 25 q 865 -14 889 -14 l 688 -14 q 665 7 665 -14 q 697 35 665 25 q 730 57 730 44 l 730 119 l 547 119 l 547 173 l 737 463 l 825 463 m 732 191 l 732 345 l 632 191 l 732 191 m 283 968 l 283 552 q 315 529 283 538 q 347 500 347 519 q 322 479 347 479 l 146 479 q 122 500 122 479 q 154 529 122 519 q 186 551 186 538 l 186 877 q 159 885 186 882 q 115 905 115 888 q 134 928 115 924 l 283 968 z "},"":{"ha":890,"x_min":-18,"x_max":879,"o":"m 283 968 l 283 552 q 315 529 283 538 q 347 500 347 519 q 322 479 347 479 l 146 479 q 122 500 122 479 q 154 529 122 519 q 186 551 186 538 l 186 877 q 159 885 186 882 q 115 905 115 888 q 134 928 115 924 l 283 968 m 766 937 l 879 937 l 96 -14 l -18 -14 l 766 937 m 570 -9 l 570 27 q 587 81 570 59 q 641 142 605 103 q 720 229 678 179 q 757 290 743 256 q 766 334 766 314 q 720 393 766 375 q 681 399 699 399 q 611 357 640 399 q 581 301 600 342 l 567 376 l 569 390 l 574 402 q 679 471 610 461 q 707 473 694 473 q 798 448 755 473 q 854 345 854 416 l 854 344 q 772 181 854 252 q 673 74 696 113 l 762 74 q 856 96 800 74 l 856 11 q 804 -9 827 -8 q 762 -9 780 -9 l 570 -9 z "},"":{"ha":890,"x_min":-18,"x_max":879,"o":"m 766 937 l 879 937 l 96 -14 l -18 -14 l 766 937 m 279 488 q 183 454 243 463 q 165 453 174 453 q 76 486 117 453 l 73 589 q 161 514 93 530 q 190 511 176 511 q 230 520 212 511 q 268 562 259 535 q 273 594 273 579 q 269 621 273 608 q 232 671 260 650 q 138 694 203 692 l 138 725 q 196 746 170 734 q 234 780 221 758 q 247 820 247 801 q 225 866 247 844 q 182 885 214 877 q 178 886 180 886 q 125 866 148 886 q 95 803 103 847 l 84 895 q 213 956 141 956 q 327 887 300 955 q 334 850 334 868 q 287 758 334 812 q 277 749 282 753 q 275 747 275 748 q 281 752 275 747 q 356 628 356 715 q 355 614 356 622 q 279 488 349 540 m 802 450 l 802 186 l 865 186 l 865 115 l 802 115 l 802 56 q 833 34 802 43 q 865 7 865 24 q 841 -14 865 -14 l 669 -14 q 646 7 646 -14 q 677 34 646 24 q 709 56 709 43 l 709 115 l 531 115 l 531 168 l 716 450 l 802 450 m 711 186 l 711 334 l 615 186 l 711 186 z "},"":{"ha":543,"x_min":37,"x_max":500,"o":"m 296 268 l 298 155 q 310 92 298 111 q 357 50 319 72 q 368 42 361 45 q 383 33 374 38 q 500 -153 500 -39 q 437 -298 500 -245 q 267 -351 376 -351 q 100 -297 161 -351 q 37 -149 37 -241 q 52 -111 37 -123 q 98 -98 68 -98 q 142 -110 125 -98 q 161 -142 159 -122 q 190 -256 168 -225 q 251 -282 209 -282 q 326 -253 301 -282 q 352 -153 352 -221 q 323 -44 352 -90 q 210 60 294 1 l 210 267 q 218 325 210 303 q 252 353 228 353 q 288 326 278 353 q 296 268 294 305 m 242 410 q 175 473 175 410 l 175 516 q 242 580 175 580 l 285 580 q 352 516 352 580 l 352 473 q 285 410 352 410 l 242 410 z "},"":{"ha":1080,"x_min":18,"x_max":1065,"o":"m 581 981 q 668 776 618 892 q 771 537 718 660 q 874 298 825 414 q 959 103 924 182 q 994 64 968 81 q 1023 48 1008 55 q 1049 34 1038 41 q 1063 19 1059 26 q 1065 9 1065 14 q 1062 -2 1065 4 q 1039 -14 1057 -14 l 810 -14 q 787 -6 798 -14 q 773 9 775 2 q 771 18 771 13 q 783 40 771 30 q 798 52 790 46 q 808 66 805 58 q 809 75 809 70 q 804 96 809 84 l 708 318 l 337 318 q 293 211 317 269 q 244 96 269 153 q 238 74 239 83 q 237 66 237 70 q 239 56 237 60 q 245 43 241 49 q 253 28 250 38 q 254 19 254 22 q 252 10 254 14 q 220 -14 243 -14 l 45 -14 q 19 1 28 -14 q 18 5 19 2 q 20 18 18 10 q 51 43 26 33 q 72 54 60 48 q 94 66 83 59 q 125 104 116 82 l 514 981 l 581 981 m 627 1061 l 424 1187 q 390 1215 406 1198 q 374 1255 374 1232 q 410 1312 374 1296 q 441 1318 425 1318 q 479 1307 460 1318 q 541 1249 497 1295 q 602 1186 585 1203 l 684 1102 q 711 1060 711 1074 q 693 1042 711 1044 q 684 1040 690 1040 q 627 1061 661 1040 m 673 400 l 519 758 q 449 589 492 692 q 371 400 406 486 l 673 400 z "},"":{"ha":1080,"x_min":18,"x_max":1065,"o":"m 581 981 q 668 776 618 892 q 771 537 718 660 q 874 298 825 414 q 959 103 924 182 q 994 64 968 81 q 1023 48 1008 55 q 1049 34 1038 41 q 1063 19 1059 26 q 1065 9 1065 14 q 1062 -2 1065 4 q 1039 -14 1057 -14 l 810 -14 q 787 -6 798 -14 q 773 9 775 2 q 771 18 771 13 q 783 40 771 30 q 798 52 790 46 q 808 66 805 58 q 809 75 809 70 q 804 96 809 84 l 708 318 l 337 318 q 293 211 317 269 q 244 96 269 153 q 238 74 239 83 q 237 66 237 70 q 239 56 237 60 q 245 43 241 49 q 253 28 250 38 q 254 19 254 22 q 252 10 254 14 q 220 -14 243 -14 l 45 -14 q 19 1 28 -14 q 18 5 19 2 q 20 18 18 10 q 51 43 26 33 q 72 54 60 48 q 94 66 83 59 q 125 104 116 82 l 514 981 l 581 981 m 456 1061 q 399 1040 422 1040 q 391 1042 393 1040 q 372 1060 372 1044 q 399 1102 372 1074 l 481 1186 q 542 1249 497 1203 q 604 1307 586 1295 q 642 1318 623 1318 q 673 1312 658 1318 q 709 1255 709 1296 q 693 1215 709 1232 q 659 1187 677 1198 l 456 1061 m 673 400 l 519 758 q 449 589 492 692 q 371 400 406 486 l 673 400 z "},"":{"ha":1080,"x_min":18,"x_max":1065,"o":"m 581 981 q 668 776 618 892 q 771 537 718 660 q 874 298 825 414 q 959 103 924 182 q 994 64 968 81 q 1023 48 1008 55 q 1049 34 1038 41 q 1063 19 1059 26 q 1065 9 1065 14 q 1062 -2 1065 4 q 1039 -14 1057 -14 l 810 -14 q 787 -6 798 -14 q 773 9 775 2 q 771 18 771 13 q 783 40 771 30 q 798 52 790 46 q 808 66 805 58 q 809 75 809 70 q 804 96 809 84 l 708 318 l 337 318 q 293 211 317 269 q 244 96 269 153 q 238 74 239 83 q 237 66 237 70 q 239 56 237 60 q 245 43 241 49 q 253 28 250 38 q 254 19 254 22 q 252 10 254 14 q 220 -14 243 -14 l 45 -14 q 19 1 28 -14 q 18 5 19 2 q 20 18 18 10 q 51 43 26 33 q 72 54 60 48 q 94 66 83 59 q 125 104 116 82 l 514 981 l 581 981 m 329 1042 l 502 1304 l 601 1304 l 774 1042 l 701 1042 l 552 1176 l 403 1042 l 329 1042 m 673 400 l 519 758 q 449 589 492 692 q 371 400 406 486 l 673 400 z "},"":{"ha":1080,"x_min":18,"x_max":1065,"o":"m 581 981 q 668 776 618 892 q 771 537 718 660 q 874 298 825 414 q 959 103 924 182 q 994 64 968 81 q 1023 48 1008 55 q 1049 34 1038 41 q 1063 19 1059 26 q 1065 9 1065 14 q 1062 -2 1065 4 q 1039 -14 1057 -14 l 810 -14 q 787 -6 798 -14 q 773 9 775 2 q 771 18 771 13 q 783 40 771 30 q 798 52 790 46 q 808 66 805 58 q 809 75 809 70 q 804 96 809 84 l 708 318 l 337 318 q 293 211 317 269 q 244 96 269 153 q 238 74 239 83 q 237 66 237 70 q 239 56 237 60 q 245 43 241 49 q 253 28 250 38 q 254 19 254 22 q 252 10 254 14 q 220 -14 243 -14 l 45 -14 q 19 1 28 -14 q 18 5 19 2 q 20 18 18 10 q 51 43 26 33 q 72 54 60 48 q 94 66 83 59 q 125 104 116 82 l 514 981 l 581 981 m 771 1225 q 714 1109 741 1145 q 640 1065 681 1065 q 511 1127 580 1065 q 456 1154 480 1154 q 421 1139 439 1154 q 408 1126 416 1133 q 392 1109 401 1120 q 364 1061 376 1086 q 340 1046 357 1046 q 319 1054 329 1046 q 309 1076 309 1063 q 313 1097 309 1085 q 361 1201 336 1145 q 447 1257 386 1257 q 580 1194 514 1257 q 632 1166 608 1166 q 675 1186 652 1166 q 717 1253 699 1204 q 743 1271 724 1271 q 751 1270 747 1271 q 773 1243 770 1265 l 773 1239 q 771 1225 773 1232 m 673 400 l 519 758 q 449 589 492 692 q 371 400 406 486 l 673 400 z "},"":{"ha":1080,"x_min":18,"x_max":1065,"o":"m 581 981 q 668 776 618 892 q 771 537 718 660 q 874 298 825 414 q 959 103 924 182 q 994 64 968 81 q 1023 48 1008 55 q 1049 34 1038 41 q 1063 19 1059 26 q 1065 9 1065 14 q 1062 -2 1065 4 q 1039 -14 1057 -14 l 810 -14 q 787 -6 798 -14 q 773 9 775 2 q 771 18 771 13 q 783 40 771 30 q 798 52 790 46 q 808 66 805 58 q 809 75 809 70 q 804 96 809 84 l 708 318 l 337 318 q 293 211 317 269 q 244 96 269 153 q 238 74 239 83 q 237 66 237 70 q 239 56 237 60 q 245 43 241 49 q 253 28 250 38 q 254 19 254 22 q 252 10 254 14 q 220 -14 243 -14 l 45 -14 q 19 1 28 -14 q 18 5 19 2 q 20 18 18 10 q 51 43 26 33 q 72 54 60 48 q 94 66 83 59 q 125 104 116 82 l 514 981 l 581 981 m 587 1158 q 611 1215 587 1190 q 671 1240 635 1240 q 750 1188 728 1240 q 757 1154 757 1171 q 732 1100 757 1125 q 680 1076 708 1076 q 670 1076 679 1076 q 610 1101 634 1076 q 587 1158 587 1124 m 347 1158 q 398 1233 347 1211 q 433 1240 416 1240 q 491 1215 466 1240 q 517 1160 517 1190 q 511 1128 517 1144 q 431 1076 489 1076 q 347 1158 347 1076 m 673 400 l 519 758 q 449 589 492 692 q 371 400 406 486 l 673 400 z "},"":{"ha":1080,"x_min":18,"x_max":1065,"o":"m 581 981 q 668 776 618 892 q 771 537 718 660 q 874 298 825 414 q 959 103 924 182 q 994 64 968 81 q 1023 48 1008 55 q 1049 34 1038 41 q 1063 19 1059 26 q 1065 9 1065 14 q 1062 -2 1065 4 q 1039 -14 1057 -14 l 810 -14 q 787 -6 798 -14 q 773 9 775 2 q 771 18 771 13 q 783 40 771 30 q 798 52 790 46 q 808 66 805 58 q 809 75 809 70 q 804 96 809 84 l 708 318 l 337 318 q 293 211 317 269 q 244 96 269 153 q 238 74 239 83 q 237 66 237 70 q 239 56 237 60 q 245 43 241 49 q 253 28 250 38 q 254 19 254 22 q 252 10 254 14 q 220 -14 243 -14 l 45 -14 q 19 1 28 -14 q 18 5 19 2 q 20 18 18 10 q 51 43 26 33 q 72 54 60 48 q 94 66 83 59 q 125 104 116 82 l 514 981 l 581 981 m 542 1316 q 648 1271 604 1316 q 691 1166 691 1227 q 648 1062 691 1105 q 542 1018 604 1018 q 435 1062 479 1018 q 392 1166 392 1105 q 435 1271 392 1227 q 542 1316 479 1316 m 536 1270 q 495 1243 512 1270 q 478 1177 478 1215 l 478 1166 q 502 1093 480 1122 q 548 1064 524 1064 q 589 1090 571 1064 q 606 1158 606 1119 l 606 1166 q 582 1240 604 1211 q 536 1270 560 1270 m 673 400 l 519 758 q 449 589 492 692 q 371 400 406 486 l 673 400 z "},"":{"ha":1311,"x_min":-80,"x_max":1251,"o":"m 755 77 l 1029 77 q 1123 123 1082 77 q 1187 195 1164 168 q 1220 216 1204 216 q 1251 189 1251 216 q 1249 172 1251 178 l 1197 -14 l 560 -14 q 531 14 531 -14 q 565 52 531 40 q 599 99 599 64 l 599 318 l 284 318 q 223 210 256 268 q 158 94 191 152 q 149 72 153 85 q 146 60 146 66 q 147 55 146 57 q 151 42 148 47 q 156 29 155 37 q 157 22 157 26 q 156 15 157 20 l 154 12 q 155 12 154 12 l 155 12 q 121 -14 142 -14 l -54 -14 q -80 1 -73 -14 l -80 7 q -77 20 -80 13 q -44 43 -68 31 q -21 54 -33 49 q 3 67 -9 60 q 41 104 27 83 l 508 897 q 472 908 500 899 q 445 938 445 916 q 476 966 445 966 l 1208 966 l 1208 778 q 1177 750 1208 750 q 1137 784 1160 750 q 1082 853 1104 830 q 1029 876 1061 876 l 755 876 l 755 534 l 894 534 q 939 569 925 534 q 982 604 952 604 q 1013 576 1013 604 l 1013 404 q 982 376 1013 376 q 937 411 953 376 q 890 446 922 446 l 755 446 l 755 77 m 601 400 l 601 870 q 466 637 554 790 q 330 400 378 484 l 601 400 z "},"":{"ha":949,"x_min":28,"x_max":926,"o":"m 365 -28 l 435 -28 q 426 -70 426 -58 q 437 -97 426 -87 q 487 -142 460 -119 q 530 -235 530 -178 l 530 -241 q 431 -316 527 -309 l 420 -316 q 311 -294 377 -316 l 291 -203 q 379 -248 355 -248 q 412 -237 396 -248 q 427 -214 427 -227 q 396 -163 427 -193 q 355 -112 373 -142 q 345 -80 345 -98 q 365 -28 345 -59 m 575 -39 q 194 98 360 -39 q 28 475 28 235 q 190 851 28 709 q 575 994 351 994 q 746 976 655 994 q 926 901 836 958 l 909 750 q 878 726 903 726 l 876 726 q 843 754 857 728 q 740 873 801 844 q 575 902 679 902 q 318 801 431 902 q 205 475 205 701 q 311 198 205 332 q 576 58 418 65 q 606 57 592 57 q 741 81 688 57 q 843 200 801 110 q 875 228 856 224 l 880 228 q 909 203 905 228 l 911 184 l 849 12 q 706 -29 775 -19 q 575 -39 637 -39 z "},"":{"ha":848,"x_min":88,"x_max":808,"o":"m 313 77 l 585 77 q 681 123 640 77 q 744 195 722 168 q 777 216 762 216 q 808 189 808 216 q 806 172 808 178 l 754 -14 l 117 -14 q 88 14 88 -14 q 122 52 88 40 q 156 99 156 64 l 156 852 q 122 900 156 888 q 88 938 88 911 q 119 966 88 966 l 766 966 l 766 778 q 734 750 766 750 q 694 784 718 750 q 640 853 661 830 q 585 876 618 876 l 313 876 l 313 534 l 451 534 q 496 569 482 534 q 539 604 509 604 q 570 576 570 604 l 570 404 q 539 376 570 376 q 494 411 510 376 q 447 446 479 446 l 313 446 l 313 77 m 534 1061 l 331 1187 q 297 1215 313 1198 q 280 1255 280 1232 q 317 1312 280 1296 q 347 1318 332 1318 q 385 1307 367 1318 q 448 1249 404 1295 q 509 1186 492 1203 l 590 1102 q 618 1059 618 1074 q 599 1042 618 1044 q 591 1040 596 1040 q 534 1061 568 1040 z "},"":{"ha":848,"x_min":88,"x_max":808,"o":"m 313 77 l 585 77 q 681 123 640 77 q 744 195 722 168 q 777 216 762 216 q 808 189 808 216 q 806 172 808 178 l 754 -14 l 117 -14 q 88 14 88 -14 q 122 52 88 40 q 156 99 156 64 l 156 852 q 122 900 156 888 q 88 938 88 911 q 119 966 88 966 l 766 966 l 766 778 q 734 750 766 750 q 694 784 718 750 q 640 853 661 830 q 585 876 618 876 l 313 876 l 313 534 l 451 534 q 496 569 482 534 q 539 604 509 604 q 570 576 570 604 l 570 404 q 539 376 570 376 q 494 411 510 376 q 447 446 479 446 l 313 446 l 313 77 m 362 1061 q 305 1040 328 1040 q 296 1042 298 1040 q 279 1059 279 1044 q 307 1102 279 1074 l 389 1187 q 448 1249 404 1203 q 511 1307 492 1295 q 549 1318 529 1318 q 580 1312 564 1318 q 616 1255 616 1296 q 600 1215 616 1232 q 566 1187 583 1198 l 362 1061 z "},"":{"ha":848,"x_min":88,"x_max":808,"o":"m 313 77 l 585 77 q 681 123 640 77 q 744 195 722 168 q 777 216 762 216 q 808 189 808 216 q 806 172 808 178 l 754 -14 l 117 -14 q 88 14 88 -14 q 122 52 88 40 q 156 99 156 64 l 156 852 q 122 900 156 888 q 88 938 88 911 q 119 966 88 966 l 766 966 l 766 778 q 734 750 766 750 q 694 784 718 750 q 640 853 661 830 q 585 876 618 876 l 313 876 l 313 534 l 451 534 q 496 569 482 534 q 539 604 509 604 q 570 576 570 604 l 570 404 q 539 376 570 376 q 494 411 510 376 q 447 446 479 446 l 313 446 l 313 77 m 225 1042 l 399 1304 l 498 1304 l 671 1042 l 597 1042 l 448 1176 l 300 1042 l 225 1042 z "},"":{"ha":848,"x_min":88,"x_max":808,"o":"m 313 77 l 585 77 q 681 123 640 77 q 744 195 722 168 q 777 216 762 216 q 808 189 808 216 q 806 172 808 178 l 754 -14 l 117 -14 q 88 14 88 -14 q 122 52 88 40 q 156 99 156 64 l 156 852 q 122 900 156 888 q 88 938 88 911 q 119 966 88 966 l 766 966 l 766 778 q 734 750 766 750 q 694 784 718 750 q 640 853 661 830 q 585 876 618 876 l 313 876 l 313 534 l 451 534 q 496 569 482 534 q 539 604 509 604 q 570 576 570 604 l 570 404 q 539 376 570 376 q 494 411 510 376 q 447 446 479 446 l 313 446 l 313 77 m 484 1158 q 508 1215 484 1190 q 568 1240 532 1240 q 646 1188 625 1240 q 653 1154 653 1171 q 629 1101 653 1125 q 568 1072 600 1072 q 507 1100 535 1072 q 484 1158 484 1124 m 243 1158 q 294 1233 243 1211 q 330 1240 312 1240 q 388 1215 363 1240 q 414 1160 414 1190 q 407 1128 414 1144 q 328 1076 386 1076 q 243 1158 243 1076 z "},"":{"ha":468,"x_min":66,"x_max":404,"o":"m 312 852 l 312 100 q 346 52 312 64 q 380 14 380 40 q 349 -14 380 -14 l 119 -14 q 88 14 88 -14 q 122 52 88 40 q 156 99 156 64 l 156 852 q 122 900 156 888 q 88 938 88 911 q 119 966 88 966 l 349 966 q 380 938 380 966 q 346 900 380 911 q 312 852 312 888 m 320 1061 l 117 1187 q 82 1215 99 1198 q 66 1255 66 1232 q 102 1312 66 1296 q 133 1318 117 1318 q 171 1307 153 1318 q 234 1249 189 1295 q 295 1186 278 1203 l 376 1102 q 404 1059 404 1074 q 385 1042 404 1044 q 376 1040 382 1040 q 320 1061 354 1040 z "},"":{"ha":468,"x_min":64,"x_max":402,"o":"m 312 852 l 312 100 q 346 52 312 64 q 380 14 380 40 q 349 -14 380 -14 l 119 -14 q 88 14 88 -14 q 122 52 88 40 q 156 99 156 64 l 156 852 q 122 900 156 888 q 88 938 88 911 q 119 966 88 966 l 349 966 q 380 938 380 966 q 346 900 380 911 q 312 852 312 888 m 148 1061 q 91 1040 114 1040 q 82 1042 84 1040 q 64 1060 64 1044 q 92 1102 64 1074 l 173 1186 q 234 1249 189 1203 q 296 1307 278 1295 q 335 1318 315 1318 q 366 1312 350 1318 q 402 1255 402 1296 q 386 1215 402 1232 q 351 1187 369 1198 l 148 1061 z "},"":{"ha":468,"x_min":12,"x_max":456,"o":"m 312 852 l 312 100 q 346 52 312 64 q 380 14 380 40 q 349 -14 380 -14 l 119 -14 q 88 14 88 -14 q 122 52 88 40 q 156 99 156 64 l 156 852 q 122 900 156 888 q 88 938 88 911 q 119 966 88 966 l 349 966 q 380 938 380 966 q 346 900 380 911 q 312 852 312 888 m 12 1042 l 184 1304 l 283 1304 l 456 1042 l 382 1042 l 234 1176 l 85 1042 l 12 1042 z "},"":{"ha":468,"x_min":29,"x_max":439,"o":"m 312 852 l 312 100 q 346 52 312 64 q 380 14 380 40 q 349 -14 380 -14 l 119 -14 q 88 14 88 -14 q 122 52 88 40 q 156 99 156 64 l 156 852 q 122 900 156 888 q 88 938 88 911 q 119 966 88 966 l 349 966 q 380 938 380 966 q 346 900 380 911 q 312 852 312 888 m 269 1158 q 293 1215 269 1190 q 353 1240 317 1240 q 432 1188 410 1240 q 439 1155 439 1171 q 414 1100 439 1125 q 353 1072 386 1072 q 292 1101 321 1072 q 269 1158 269 1124 m 29 1158 q 80 1233 29 1211 q 115 1240 98 1240 q 174 1215 149 1240 q 199 1160 199 1190 q 193 1128 199 1144 q 113 1076 172 1076 q 29 1158 29 1076 z "},"":{"ha":1075,"x_min":0,"x_max":1036,"o":"m 1034 537 q 1036 493 1036 514 q 993 286 1036 378 q 849 105 941 176 q 467 -18 692 -16 l 413 -18 q 339 -18 374 -18 l 260 -18 q 174 -16 203 -18 l 158 -16 q 88 -20 132 -16 q 56 9 56 -20 q 90 47 56 35 q 124 94 124 59 l 124 451 l 31 451 q 0 477 0 451 l 0 504 q 31 531 0 531 l 124 531 l 124 856 q 90 902 124 890 q 56 941 56 914 q 87 968 56 968 q 145 968 116 968 q 203 968 174 968 q 317 972 261 970 l 357 972 q 568 966 462 972 q 798 915 695 959 q 960 783 896 871 q 1034 537 1024 694 m 289 531 l 486 531 q 516 504 516 531 l 516 477 q 486 451 516 451 l 289 451 l 291 78 q 435 64 362 64 q 665 116 568 64 q 809 263 756 163 q 858 499 858 355 l 858 522 q 820 701 855 629 q 728 814 785 772 q 526 888 645 877 q 441 891 484 891 q 288 880 359 891 l 289 531 z "},"":{"ha":1115,"x_min":74,"x_max":1079,"o":"m 911 184 l 911 852 q 878 899 911 887 q 844 938 844 911 q 875 966 844 966 l 1048 966 q 1079 938 1079 966 q 1045 899 1079 911 q 1011 852 1011 887 l 1010 -47 l 863 -12 l 241 760 l 241 99 q 275 52 241 64 q 309 14 309 40 q 277 -14 309 -14 l 105 -14 q 74 14 74 -14 q 108 52 74 40 q 142 99 142 64 l 142 852 q 108 899 142 887 q 74 938 74 911 q 105 966 74 966 l 289 966 l 911 184 m 806 1224 q 749 1109 776 1145 q 675 1065 715 1065 q 546 1127 614 1065 q 491 1154 515 1154 q 456 1139 474 1154 q 443 1126 450 1133 q 427 1109 435 1120 q 399 1061 412 1088 q 374 1046 391 1046 q 354 1054 363 1046 q 343 1076 343 1063 q 348 1097 343 1085 q 395 1201 370 1145 q 481 1257 420 1257 q 615 1194 549 1257 q 667 1166 643 1166 q 710 1186 687 1166 q 751 1253 733 1205 q 778 1271 759 1271 q 787 1269 784 1271 q 808 1243 805 1265 l 808 1239 q 806 1224 808 1231 z "},"":{"ha":1092,"x_min":16,"x_max":1082,"o":"m 548 907 q 271 781 350 907 q 191 476 191 656 q 291 171 191 296 q 548 45 391 46 l 551 45 q 804 176 704 45 q 904 472 904 310 l 904 476 q 819 774 903 642 q 548 907 736 907 m 635 1061 l 431 1187 q 397 1215 414 1198 q 380 1255 380 1232 q 417 1312 380 1296 q 448 1318 432 1318 q 486 1307 467 1318 q 548 1249 504 1295 q 610 1186 593 1203 l 690 1102 q 718 1059 718 1074 q 699 1042 718 1044 q 691 1040 696 1040 q 635 1061 669 1040 m 548 994 l 555 994 q 937 855 781 994 q 1082 515 1082 726 q 1080 477 1082 496 q 914 107 1066 239 q 547 -37 762 -25 q 515 -38 532 -38 q 169 97 319 -38 q 16 454 16 234 q 16 479 16 466 q 170 853 24 714 q 548 994 316 991 z "},"":{"ha":1092,"x_min":16,"x_max":1082,"o":"m 548 907 q 271 781 350 907 q 191 476 191 656 q 291 171 191 296 q 548 45 391 46 l 551 45 q 804 176 704 45 q 904 472 904 310 l 904 476 q 819 774 903 642 q 548 907 736 907 m 463 1061 q 406 1040 429 1040 q 397 1042 399 1040 q 379 1059 379 1044 q 407 1102 379 1074 l 489 1187 q 548 1249 504 1203 q 613 1308 593 1295 q 650 1318 630 1318 q 681 1312 665 1318 q 717 1255 717 1296 q 700 1215 717 1232 q 666 1187 684 1198 l 463 1061 m 548 994 l 555 994 q 937 855 781 994 q 1082 515 1082 726 q 1080 477 1082 496 q 914 107 1066 239 q 547 -37 762 -25 q 515 -38 532 -38 q 169 97 319 -38 q 16 454 16 234 q 16 479 16 466 q 170 853 24 714 q 548 994 316 991 z "},"":{"ha":1092,"x_min":16,"x_max":1082,"o":"m 548 907 q 271 781 350 907 q 191 476 191 656 q 291 171 191 296 q 548 45 391 46 l 551 45 q 804 176 704 45 q 904 472 904 310 l 904 476 q 819 774 903 642 q 548 907 736 907 m 326 1042 l 499 1304 l 598 1304 l 771 1042 l 697 1042 l 549 1176 l 400 1042 l 326 1042 m 548 994 l 555 994 q 937 855 781 994 q 1082 515 1082 726 q 1080 477 1082 496 q 914 107 1066 239 q 547 -37 762 -25 q 515 -38 532 -38 q 169 97 319 -38 q 16 454 16 234 q 16 479 16 466 q 170 853 24 714 q 548 994 316 991 z "},"":{"ha":1092,"x_min":16,"x_max":1082,"o":"m 548 907 q 271 781 350 907 q 191 476 191 656 q 291 171 191 296 q 548 45 391 46 l 551 45 q 804 176 704 45 q 904 472 904 310 l 904 476 q 819 774 903 642 q 548 907 736 907 m 778 1224 q 721 1109 750 1147 q 648 1065 688 1065 q 518 1127 587 1065 q 463 1154 487 1154 q 429 1139 446 1154 q 415 1126 422 1133 q 399 1109 408 1120 q 372 1061 383 1088 q 347 1046 364 1046 q 327 1054 336 1046 q 316 1076 316 1063 q 321 1097 316 1085 q 368 1201 343 1145 q 454 1257 393 1257 q 587 1194 522 1257 q 639 1166 615 1166 q 682 1186 659 1166 q 724 1253 705 1204 q 750 1271 730 1271 q 760 1269 756 1271 q 781 1243 777 1265 l 781 1239 q 778 1224 781 1231 m 548 994 l 555 994 q 937 855 781 994 q 1082 515 1082 726 q 1080 477 1082 496 q 914 107 1066 239 q 547 -37 762 -25 q 515 -38 532 -38 q 169 97 319 -38 q 16 454 16 234 q 16 479 16 466 q 170 853 24 714 q 548 994 316 991 z "},"":{"ha":1092,"x_min":16,"x_max":1082,"o":"m 548 907 q 271 781 350 907 q 191 476 191 656 q 291 171 191 296 q 548 45 391 46 l 551 45 q 804 176 704 45 q 904 472 904 310 l 904 476 q 819 774 903 642 q 548 907 736 907 m 584 1158 q 608 1215 584 1190 q 668 1240 632 1240 q 747 1188 725 1240 q 753 1155 753 1171 q 728 1100 753 1125 q 668 1072 701 1072 q 607 1101 636 1072 q 584 1158 584 1124 m 345 1158 q 395 1233 345 1211 q 430 1240 413 1240 q 488 1215 463 1240 q 514 1160 514 1190 q 507 1128 514 1144 q 428 1076 486 1076 q 345 1158 345 1076 m 548 994 l 555 994 q 937 855 781 994 q 1082 515 1082 726 q 1080 477 1082 496 q 914 107 1066 239 q 547 -37 762 -25 q 515 -38 532 -38 q 169 97 319 -38 q 16 454 16 234 q 16 479 16 466 q 170 853 24 714 q 548 994 316 991 z "},"":{"ha":694,"x_min":149,"x_max":572,"o":"m 240 622 l 361 500 l 483 623 q 513 637 497 637 q 537 627 528 637 l 562 602 q 572 581 572 592 q 557 553 572 568 l 433 429 l 559 302 q 572 275 572 288 q 563 256 572 264 l 538 231 q 513 220 528 220 q 481 236 497 220 l 361 356 l 239 235 q 208 220 224 220 q 183 231 193 220 l 158 256 q 149 276 149 265 q 164 304 149 289 l 289 429 l 163 553 q 149 581 149 567 q 159 602 149 592 l 184 627 q 208 637 194 637 q 240 622 224 637 z "},"":{"ha":1092,"x_min":16,"x_max":1122,"o":"m 548 907 q 271 781 350 907 q 191 476 191 656 q 252 228 191 325 l 824 769 q 718 867 787 827 q 548 907 648 907 m 868 686 l 306 154 q 548 45 399 45 l 551 45 q 804 176 704 45 q 904 472 904 310 l 904 476 q 868 686 903 608 m 1113 917 l 989 800 q 1081 511 1081 682 q 1080 477 1081 494 q 914 107 1066 239 q 547 -37 762 -25 q 514 -38 531 -38 q 210 62 336 -38 l 115 -27 q 93 -36 104 -36 q 71 -26 79 -36 l 47 -1 q 39 16 39 7 q 47 33 39 25 l 142 123 q 49 275 85 182 q 16 456 16 357 q 16 479 16 467 q 170 853 24 714 q 548 994 316 991 l 555 994 q 927 866 789 994 l 1046 979 q 1067 987 1056 987 q 1089 978 1079 987 l 1113 952 q 1122 935 1122 945 q 1113 917 1122 926 z "},"":{"ha":1054,"x_min":74,"x_max":1007,"o":"m 142 399 l 142 853 q 108 900 142 888 q 74 938 74 911 q 105 966 74 966 l 335 966 q 366 938 366 966 q 332 900 366 911 q 299 854 299 889 l 299 489 q 306 307 299 386 q 340 175 313 228 q 419 98 366 124 q 569 72 472 72 q 795 204 736 72 q 840 489 840 300 l 840 852 q 806 899 840 887 q 772 938 772 911 q 804 966 772 966 l 977 966 q 1007 938 1007 966 q 974 899 1007 911 q 940 852 940 887 l 940 399 q 921 211 939 296 q 852 66 903 125 q 569 -40 761 -40 q 365 -17 450 -40 q 227 66 279 5 q 142 399 142 165 m 627 1061 l 423 1187 q 389 1215 406 1198 q 372 1255 372 1232 q 409 1312 372 1296 q 439 1318 424 1318 q 477 1307 459 1318 q 540 1249 496 1295 q 602 1186 585 1203 l 683 1102 q 710 1060 710 1074 q 691 1042 710 1044 q 683 1040 688 1040 q 627 1061 661 1040 z "},"":{"ha":1054,"x_min":74,"x_max":1007,"o":"m 142 399 l 142 853 q 108 900 142 888 q 74 938 74 911 q 105 966 74 966 l 335 966 q 366 938 366 966 q 332 900 366 911 q 299 854 299 889 l 299 489 q 306 307 299 386 q 340 175 313 228 q 419 98 366 124 q 569 72 472 72 q 795 204 736 72 q 840 489 840 300 l 840 852 q 806 899 840 887 q 772 938 772 911 q 804 966 772 966 l 977 966 q 1007 938 1007 966 q 974 899 1007 911 q 940 852 940 887 l 940 399 q 921 211 939 296 q 852 66 903 125 q 569 -40 761 -40 q 365 -17 450 -40 q 227 66 279 5 q 142 399 142 165 m 454 1061 q 397 1040 420 1040 q 389 1042 391 1040 q 371 1059 371 1044 q 399 1102 371 1074 l 481 1187 q 541 1249 496 1203 q 604 1307 585 1295 q 642 1318 622 1318 q 673 1312 657 1318 q 709 1255 709 1296 q 692 1215 709 1232 q 658 1187 675 1198 l 454 1061 z "},"":{"ha":1054,"x_min":74,"x_max":1007,"o":"m 142 399 l 142 853 q 108 900 142 888 q 74 938 74 911 q 105 966 74 966 l 335 966 q 366 938 366 966 q 332 900 366 911 q 299 854 299 889 l 299 489 q 306 307 299 386 q 340 175 313 228 q 419 98 366 124 q 569 72 472 72 q 795 204 736 72 q 840 489 840 300 l 840 852 q 806 899 840 887 q 772 938 772 911 q 804 966 772 966 l 977 966 q 1007 938 1007 966 q 974 899 1007 911 q 940 852 940 887 l 940 399 q 921 211 939 296 q 852 66 903 125 q 569 -40 761 -40 q 365 -17 450 -40 q 227 66 279 5 q 142 399 142 165 m 318 1042 l 491 1304 l 590 1304 l 764 1042 l 689 1042 l 541 1176 l 392 1042 l 318 1042 z "},"":{"ha":1054,"x_min":74,"x_max":1007,"o":"m 142 399 l 142 853 q 108 900 142 888 q 74 938 74 911 q 105 966 74 966 l 335 966 q 366 938 366 966 q 332 900 366 911 q 299 854 299 889 l 299 489 q 306 307 299 386 q 340 175 313 228 q 419 98 366 124 q 569 72 472 72 q 795 204 736 72 q 840 489 840 300 l 840 852 q 806 899 840 887 q 772 938 772 911 q 804 966 772 966 l 977 966 q 1007 938 1007 966 q 974 899 1007 911 q 940 852 940 887 l 940 399 q 921 211 939 296 q 852 66 903 125 q 569 -40 761 -40 q 365 -17 450 -40 q 227 66 279 5 q 142 399 142 165 m 576 1158 q 600 1215 576 1190 q 660 1240 624 1240 q 739 1188 717 1240 q 745 1154 745 1171 q 722 1101 745 1125 q 660 1072 692 1072 q 600 1100 627 1072 q 576 1158 576 1124 m 336 1158 q 387 1233 336 1211 q 422 1240 405 1240 q 480 1215 455 1240 q 506 1160 506 1190 q 500 1128 506 1144 q 420 1076 478 1076 q 336 1158 336 1076 z "},"":{"ha":926,"x_min":15,"x_max":858,"o":"m 384 454 l 148 847 q 101 888 134 867 q 66 903 83 897 q 36 918 48 910 q 20 931 26 923 q 15 945 15 939 l 15 949 q 39 966 18 966 l 269 966 q 292 959 281 966 q 308 944 302 952 q 312 931 312 937 q 304 913 312 922 q 294 902 300 907 q 288 890 289 896 l 288 887 q 297 863 288 876 l 511 524 l 671 768 q 692 816 690 796 q 693 821 693 818 q 679 867 693 838 l 650 926 l 760 974 q 777 977 768 977 q 808 959 795 977 l 849 890 q 858 859 858 874 q 831 804 858 831 q 756 709 796 766 l 576 446 q 562 398 565 429 q 558 337 558 366 l 558 99 q 592 52 558 64 q 626 14 626 40 q 595 -14 626 -14 l 365 -14 q 334 14 334 -14 q 368 52 334 40 q 401 99 401 64 l 401 389 q 384 454 401 425 m 454 1061 q 397 1040 420 1040 q 389 1042 391 1040 q 371 1059 371 1044 q 399 1102 371 1074 l 481 1187 q 541 1249 496 1203 q 604 1307 585 1295 q 642 1318 622 1318 q 673 1312 657 1318 q 709 1255 709 1296 q 692 1215 709 1232 q 658 1187 675 1198 l 454 1061 z "},"":{"ha":781,"x_min":48,"x_max":778,"o":"m 272 852 l 272 751 l 465 751 q 619 725 538 751 q 744 623 699 699 q 778 479 778 562 q 732 334 777 399 q 621 252 692 279 q 490 224 549 224 l 272 224 l 272 99 q 306 52 272 64 q 340 14 340 40 q 309 -14 340 -14 l 79 -14 q 48 14 48 -14 q 82 52 48 40 q 116 99 116 64 l 116 852 q 82 899 116 887 q 48 938 48 911 q 79 966 48 966 l 309 966 q 340 938 340 966 q 306 899 340 911 q 272 852 272 887 m 272 299 l 398 299 q 487 312 442 299 q 563 356 531 324 q 613 486 613 404 q 561 615 612 564 q 412 668 506 668 l 272 668 l 272 299 z "},"":{"ha":853,"x_min":56,"x_max":833,"o":"m 340 35 l 298 153 l 299 168 q 328 191 300 191 l 332 191 q 359 166 349 188 q 430 77 389 102 q 534 50 471 52 l 543 50 q 642 71 587 50 q 696 146 694 92 l 696 151 q 639 231 696 214 q 513 267 567 251 q 381 328 443 286 q 317 456 317 371 l 317 458 q 364 567 317 530 q 453 642 411 603 q 502 743 494 680 q 503 768 503 755 q 479 848 503 814 q 393 892 452 886 q 378 893 386 893 q 307 860 332 893 q 283 787 286 831 q 280 696 280 742 l 280 99 q 314 52 280 64 q 340 35 332 45 m 348 15 l 348 14 q 317 -14 348 -14 l 87 -14 q 56 14 56 -14 q 90 52 56 40 q 123 99 123 64 l 123 696 q 139 819 123 759 q 195 924 155 879 q 376 1008 269 1008 q 425 1004 400 1008 q 612 863 552 981 q 635 773 635 817 q 578 644 635 705 q 499 575 541 604 q 450 507 458 546 q 446 482 446 493 q 476 433 446 447 q 584 395 522 410 q 750 340 673 376 q 833 191 827 304 l 833 182 q 792 77 833 129 q 663 -11 747 18 q 547 -31 610 -28 l 528 -31 q 355 -5 443 -31 l 348 15 z "},"":{"ha":783,"x_min":25,"x_max":748,"o":"m 524 38 l 361 -22 q 318 -31 336 -31 l 290 -31 q 112 52 185 -25 q 28 243 38 131 q 25 298 25 271 q 30 368 25 334 q 77 488 39 429 q 140 555 95 520 q 178 575 157 566 q 287 616 233 595 q 397 656 342 636 q 425 662 412 662 l 429 662 q 541 639 475 660 q 549 635 547 637 q 583 623 562 630 q 593 621 589 621 q 600 623 597 621 q 618 641 613 634 q 642 652 627 652 q 655 650 649 652 q 680 624 680 641 l 680 99 q 714 52 680 64 q 748 14 748 40 q 717 -14 748 -14 l 552 -14 q 524 9 524 -14 l 524 38 m 524 517 q 459 557 502 537 q 386 579 417 578 l 384 579 q 363 575 374 579 q 315 557 339 566 q 267 539 291 548 q 246 526 254 534 q 193 423 207 484 q 182 330 182 376 q 183 300 182 315 q 234 147 191 205 q 338 71 276 88 q 385 64 361 64 q 400 65 393 64 q 431 73 412 66 q 479 91 446 78 q 524 107 513 103 l 524 517 m 399 751 l 196 878 q 162 905 178 888 q 146 945 146 922 q 181 1000 146 985 q 212 1008 196 1008 q 251 997 233 1008 q 313 939 269 985 q 374 876 357 893 l 456 792 q 483 750 483 764 q 464 732 483 734 q 456 730 461 730 q 399 751 433 730 z "},"":{"ha":783,"x_min":25,"x_max":748,"o":"m 524 38 l 361 -22 q 318 -31 336 -31 l 290 -31 q 112 52 185 -25 q 28 243 38 131 q 25 298 25 271 q 30 368 25 334 q 77 488 39 429 q 140 555 95 520 q 178 575 157 566 q 287 616 233 595 q 397 656 342 636 q 425 662 412 662 l 429 662 q 541 639 475 660 q 549 635 547 637 q 583 623 562 630 q 593 621 589 621 q 600 623 597 621 q 618 641 613 634 q 642 652 627 652 q 655 650 649 652 q 680 624 680 641 l 680 99 q 714 52 680 64 q 748 14 748 40 q 717 -14 748 -14 l 552 -14 q 524 9 524 -14 l 524 38 m 524 517 q 459 557 502 537 q 386 579 417 578 l 384 579 q 363 575 374 579 q 315 557 339 566 q 267 539 291 548 q 246 526 254 534 q 193 423 207 484 q 182 330 182 376 q 183 300 182 315 q 234 147 191 205 q 338 71 276 88 q 385 64 361 64 q 400 65 393 64 q 431 73 412 66 q 479 91 446 78 q 524 107 513 103 l 524 517 m 241 751 q 184 730 207 730 q 175 732 177 730 q 157 749 157 734 q 185 792 157 764 l 267 876 q 327 939 283 893 q 390 997 372 985 q 428 1008 408 1008 q 460 1001 444 1008 q 495 945 495 985 q 479 905 495 922 q 446 878 463 888 l 241 751 z "},"":{"ha":783,"x_min":25,"x_max":748,"o":"m 524 38 l 361 -22 q 318 -31 336 -31 l 290 -31 q 112 52 185 -25 q 28 243 38 131 q 25 298 25 271 q 30 368 25 334 q 77 488 39 429 q 140 555 95 520 q 178 575 157 566 q 287 616 233 595 q 397 656 342 636 q 425 662 412 662 l 429 662 q 541 639 475 660 q 549 635 547 637 q 583 623 562 630 q 593 621 589 621 q 600 623 597 621 q 618 641 613 634 q 642 652 627 652 q 655 650 649 652 q 680 624 680 641 l 680 99 q 714 52 680 64 q 748 14 748 40 q 717 -14 748 -14 l 552 -14 q 524 9 524 -14 l 524 38 m 524 517 q 459 557 502 537 q 386 579 417 578 l 384 579 q 363 575 374 579 q 315 557 339 566 q 267 539 291 548 q 246 526 254 534 q 193 423 207 484 q 182 330 182 376 q 183 300 182 315 q 234 147 191 205 q 338 71 276 88 q 385 64 361 64 q 400 65 393 64 q 431 73 412 66 q 479 91 446 78 q 524 107 513 103 l 524 517 m 138 730 l 311 992 l 411 992 l 584 730 l 510 730 l 361 865 l 212 730 l 138 730 z "},"":{"ha":783,"x_min":25,"x_max":748,"o":"m 524 38 l 361 -22 q 318 -31 336 -31 l 290 -31 q 112 52 185 -25 q 28 243 38 131 q 25 298 25 271 q 30 368 25 334 q 77 488 39 429 q 140 555 95 520 q 178 575 157 566 q 287 616 233 595 q 397 656 342 636 q 425 662 412 662 l 429 662 q 541 639 475 660 q 549 635 547 637 q 583 623 562 630 q 593 621 589 621 q 600 623 597 621 q 618 641 613 634 q 642 652 627 652 q 655 650 649 652 q 680 624 680 641 l 680 99 q 714 52 680 64 q 748 14 748 40 q 717 -14 748 -14 l 552 -14 q 524 9 524 -14 l 524 38 m 524 517 q 459 557 502 537 q 386 579 417 578 l 384 579 q 363 575 374 579 q 315 557 339 566 q 267 539 291 548 q 246 526 254 534 q 193 423 207 484 q 182 330 182 376 q 183 300 182 315 q 234 147 191 205 q 338 71 276 88 q 385 64 361 64 q 400 65 393 64 q 431 73 412 66 q 479 91 446 78 q 524 107 513 103 l 524 517 m 622 918 q 565 802 593 839 q 491 759 532 759 q 362 821 431 759 q 307 847 331 847 q 272 832 290 847 q 259 820 267 827 q 243 802 252 813 q 214 753 231 785 q 191 739 208 739 q 170 747 180 739 q 159 770 159 756 q 164 790 159 779 q 211 895 186 838 q 297 951 236 951 q 431 887 366 951 q 483 860 459 860 q 526 880 503 860 q 568 946 547 897 q 594 964 575 964 l 599 964 q 625 937 621 959 l 625 932 q 622 918 625 924 z "},"":{"ha":783,"x_min":25,"x_max":748,"o":"m 524 38 l 361 -22 q 318 -31 336 -31 l 290 -31 q 112 52 185 -25 q 28 243 38 131 q 25 298 25 271 q 30 368 25 334 q 77 488 39 429 q 140 555 95 520 q 178 575 157 566 q 287 616 233 595 q 397 656 342 636 q 425 662 412 662 l 429 662 q 541 639 475 660 q 549 635 547 637 q 583 623 562 630 q 593 621 589 621 q 600 623 597 621 q 618 641 613 634 q 642 652 627 652 q 655 650 649 652 q 680 624 680 641 l 680 99 q 714 52 680 64 q 748 14 748 40 q 717 -14 748 -14 l 552 -14 q 524 9 524 -14 l 524 38 m 524 517 q 459 557 502 537 q 386 579 417 578 l 384 579 q 363 575 374 579 q 315 557 339 566 q 267 539 291 548 q 246 526 254 534 q 193 423 207 484 q 182 330 182 376 q 183 300 182 315 q 234 147 191 205 q 338 71 276 88 q 385 64 361 64 q 400 65 393 64 q 431 73 412 66 q 479 91 446 78 q 524 107 513 103 l 524 517 m 428 855 q 452 911 428 886 q 512 937 476 937 q 591 885 570 937 q 597 852 597 867 q 572 797 597 822 q 520 773 549 773 q 511 772 519 772 q 450 798 475 772 q 428 855 428 821 m 188 855 q 239 930 188 911 q 273 937 257 937 q 332 911 307 937 q 358 856 358 886 q 351 825 358 841 q 272 773 330 773 q 188 855 188 773 z "},"":{"ha":783,"x_min":25,"x_max":748,"o":"m 524 38 l 361 -22 q 318 -31 336 -31 l 290 -31 q 112 52 185 -25 q 28 243 38 131 q 25 298 25 271 q 30 368 25 334 q 77 488 39 429 q 140 555 95 520 q 178 575 157 566 q 287 616 233 595 q 397 656 342 636 q 425 662 412 662 l 429 662 q 541 639 475 660 q 549 635 547 637 q 583 623 562 630 q 593 621 589 621 q 600 623 597 621 q 618 641 613 634 q 642 652 627 652 q 655 650 649 652 q 680 624 680 641 l 680 99 q 714 52 680 64 q 748 14 748 40 q 717 -14 748 -14 l 552 -14 q 524 9 524 -14 l 524 38 m 524 517 q 459 557 502 537 q 386 579 417 578 l 384 579 q 363 575 374 579 q 315 557 339 566 q 267 539 291 548 q 246 526 254 534 q 193 423 207 484 q 182 330 182 376 q 183 300 182 315 q 234 147 191 205 q 338 71 276 88 q 385 64 361 64 q 400 65 393 64 q 431 73 412 66 q 479 91 446 78 q 524 107 513 103 l 524 517 m 397 1042 q 503 998 459 1042 q 546 893 546 954 q 503 788 546 832 q 397 745 459 745 q 290 788 334 745 q 247 893 247 832 q 290 998 247 954 q 397 1042 334 1042 m 391 996 q 350 970 367 996 q 333 904 333 942 l 333 894 q 357 820 335 849 q 403 791 378 791 q 444 817 426 791 q 461 886 461 846 l 461 894 q 437 967 458 937 q 391 996 415 996 z "},"":{"ha":1195,"x_min":25,"x_max":1156,"o":"m 649 595 q 861 665 726 663 l 864 665 q 1082 583 1006 665 q 1156 374 1156 502 q 1153 328 1156 346 q 1109 311 1150 311 l 694 311 q 747 150 696 218 q 871 66 798 81 q 916 62 893 62 q 1040 97 976 62 q 1102 120 1084 120 q 1119 115 1114 120 q 1126 99 1126 108 q 1116 68 1126 87 q 1090 34 1103 45 q 878 -35 1011 -35 q 613 66 701 -33 l 361 -22 q 318 -31 336 -31 l 290 -31 q 112 52 185 -25 q 28 243 38 131 q 25 298 25 271 q 30 368 25 334 q 77 488 39 429 q 140 555 95 520 q 178 575 157 566 q 287 616 233 595 q 397 656 342 636 q 425 662 412 662 l 429 662 q 541 639 475 660 q 649 595 616 611 m 524 517 q 459 557 502 537 q 386 579 417 578 l 384 579 q 363 575 374 579 q 315 557 339 566 q 267 539 291 548 q 246 526 254 534 q 193 423 207 484 q 182 330 182 376 q 183 300 182 315 q 234 147 191 205 q 338 71 276 88 q 385 64 361 64 q 400 65 393 64 q 431 73 412 66 q 479 91 446 78 q 524 107 513 103 l 524 517 m 694 387 l 1018 387 q 982 520 1018 454 q 865 578 950 578 l 858 578 q 735 514 773 575 q 694 387 696 452 z "},"":{"ha":627,"x_min":37,"x_max":616,"o":"m 271 -41 l 341 -41 q 332 -82 332 -71 q 342 -109 332 -99 q 393 -154 366 -132 q 436 -247 436 -191 l 436 -253 q 336 -328 433 -321 l 326 -328 q 217 -306 283 -328 l 197 -215 q 285 -260 261 -260 q 318 -249 302 -260 q 332 -226 332 -239 q 302 -176 332 -205 q 260 -124 279 -154 q 251 -92 251 -110 q 271 -41 251 -71 m 376 662 l 391 662 q 612 595 507 662 l 600 473 q 574 452 596 452 l 571 452 q 543 475 552 454 q 478 553 518 530 q 382 576 439 576 l 367 576 q 264 538 300 573 q 215 459 231 506 q 198 352 198 411 q 200 311 198 332 q 252 152 207 214 q 382 62 312 73 q 406 60 393 60 q 531 99 461 60 q 593 122 574 122 q 610 117 602 122 q 616 102 616 111 q 607 71 616 92 q 580 34 596 48 q 479 -17 539 -3 q 366 -31 419 -31 q 143 43 233 -30 q 40 252 52 117 q 37 311 37 281 q 42 383 37 348 q 90 507 52 446 q 205 615 131 573 q 376 662 279 658 z "},"":{"ha":678,"x_min":18,"x_max":649,"o":"m 351 -31 q 77 96 157 -31 q 18 300 18 187 q 24 375 18 336 q 128 586 45 509 q 351 662 210 662 q 649 374 649 662 q 646 328 648 346 q 602 311 644 311 l 190 311 q 246 133 190 206 q 403 60 302 60 q 458 67 428 60 q 533 97 489 74 q 595 120 576 120 q 612 115 604 120 q 619 99 619 108 q 609 69 619 87 q 594 45 600 51 q 584 34 589 39 q 472 -19 535 -8 q 351 -31 409 -31 m 190 387 l 511 387 q 472 531 511 485 q 351 576 433 576 q 230 520 269 576 q 190 387 190 463 m 399 751 l 196 878 q 162 905 178 888 q 146 945 146 922 q 181 1000 146 985 q 212 1008 196 1008 q 251 997 233 1008 q 313 939 269 985 q 374 876 357 893 l 456 792 q 483 750 483 764 q 464 732 483 734 q 456 730 461 730 q 399 751 433 730 z "},"":{"ha":678,"x_min":18,"x_max":649,"o":"m 351 -31 q 77 96 157 -31 q 18 300 18 187 q 24 375 18 336 q 128 586 45 509 q 351 662 210 662 q 649 374 649 662 q 646 328 648 346 q 602 311 644 311 l 190 311 q 246 133 190 206 q 403 60 302 60 q 458 67 428 60 q 533 97 489 74 q 595 120 576 120 q 612 115 604 120 q 619 99 619 108 q 609 69 619 87 q 594 45 600 51 q 584 34 589 39 q 472 -19 535 -8 q 351 -31 409 -31 m 190 387 l 511 387 q 472 531 511 485 q 351 576 433 576 q 230 520 269 576 q 190 387 190 463 m 245 751 q 188 730 211 730 q 179 732 181 730 q 161 750 161 734 q 189 792 161 764 l 270 876 q 331 939 286 893 q 393 997 375 985 q 431 1008 412 1008 q 463 1001 447 1008 q 498 945 498 985 q 482 905 498 922 q 448 878 466 888 l 245 751 z "},"":{"ha":678,"x_min":18,"x_max":649,"o":"m 351 -31 q 77 96 157 -31 q 18 300 18 187 q 24 375 18 336 q 128 586 45 509 q 351 662 210 662 q 649 374 649 662 q 646 328 648 346 q 602 311 644 311 l 190 311 q 246 133 190 206 q 403 60 302 60 q 458 67 428 60 q 533 97 489 74 q 595 120 576 120 q 612 115 604 120 q 619 99 619 108 q 609 69 619 87 q 594 45 600 51 q 584 34 589 39 q 472 -19 535 -8 q 351 -31 409 -31 m 190 387 l 511 387 q 472 531 511 485 q 351 576 433 576 q 230 520 269 576 q 190 387 190 463 m 108 730 l 281 992 l 380 992 l 553 730 l 479 730 l 331 865 l 182 730 l 108 730 z "},"":{"ha":678,"x_min":18,"x_max":649,"o":"m 351 -31 q 77 96 157 -31 q 18 300 18 187 q 24 375 18 336 q 128 586 45 509 q 351 662 210 662 q 649 374 649 662 q 646 328 648 346 q 602 311 644 311 l 190 311 q 246 133 190 206 q 403 60 302 60 q 458 67 428 60 q 533 97 489 74 q 595 120 576 120 q 612 115 604 120 q 619 99 619 108 q 609 69 619 87 q 594 45 600 51 q 584 34 589 39 q 472 -19 535 -8 q 351 -31 409 -31 m 190 387 l 511 387 q 472 531 511 485 q 351 576 433 576 q 230 520 269 576 q 190 387 190 463 m 366 857 q 390 913 366 888 q 450 938 414 938 q 529 886 507 938 q 536 853 536 869 q 511 798 536 823 q 458 774 487 774 q 449 774 458 774 q 389 800 413 774 q 366 857 366 822 m 126 857 q 177 931 126 909 q 212 938 195 938 q 271 913 245 938 q 296 858 296 888 q 290 826 296 842 q 210 774 268 774 q 126 857 126 774 z "},"":{"ha":404,"x_min":37,"x_max":375,"o":"m 283 670 l 283 99 q 317 52 283 64 q 351 14 351 40 q 321 -14 351 -14 l 91 -14 q 60 14 60 -14 q 94 52 60 40 q 127 99 127 64 l 127 510 q 94 556 127 545 q 60 595 60 568 q 90 623 60 623 q 175 636 132 625 q 283 670 217 648 m 292 751 l 88 878 q 54 905 71 888 q 37 945 37 922 q 73 1000 37 985 q 104 1008 88 1008 q 142 997 124 1008 q 205 939 161 985 q 267 876 250 893 l 347 792 q 375 749 375 764 q 356 732 375 734 q 348 730 353 730 q 292 751 326 730 z "},"":{"ha":404,"x_min":36,"x_max":374,"o":"m 283 670 l 283 99 q 317 52 283 64 q 351 14 351 40 q 321 -14 351 -14 l 91 -14 q 60 14 60 -14 q 94 52 60 40 q 127 99 127 64 l 127 510 q 94 556 127 545 q 60 595 60 568 q 90 623 60 623 q 175 636 132 625 q 283 670 217 648 m 119 751 q 62 730 85 730 q 54 732 56 730 q 36 749 36 734 q 64 792 36 764 l 146 878 q 205 939 161 893 q 270 998 250 985 q 307 1008 287 1008 q 338 1001 322 1008 q 374 945 374 985 q 357 905 374 922 q 323 878 340 888 l 119 751 z "},"":{"ha":404,"x_min":-17,"x_max":428,"o":"m 283 670 l 283 99 q 317 52 283 64 q 351 14 351 40 q 321 -14 351 -14 l 91 -14 q 60 14 60 -14 q 94 52 60 40 q 127 99 127 64 l 127 510 q 94 556 127 545 q 60 595 60 568 q 90 623 60 623 q 175 636 132 625 q 283 670 217 648 m -17 730 l 156 992 l 255 992 l 428 730 l 354 730 l 205 865 l 57 730 l -17 730 z "},"":{"ha":404,"x_min":1,"x_max":410,"o":"m 283 670 l 283 99 q 317 52 283 64 q 351 14 351 40 q 321 -14 351 -14 l 91 -14 q 60 14 60 -14 q 94 52 60 40 q 127 99 127 64 l 127 510 q 94 556 127 545 q 60 595 60 568 q 90 623 60 623 q 175 636 132 625 q 283 670 217 648 m 241 857 q 265 913 241 888 q 325 938 289 938 q 404 886 382 938 q 410 853 410 869 q 385 798 410 823 q 333 774 361 774 l 332 774 q 263 800 288 774 q 241 857 241 822 m 1 857 q 52 931 1 909 q 87 938 71 938 q 146 913 120 938 q 171 858 171 888 q 164 826 171 842 q 85 774 143 774 q 1 857 1 774 z "},"":{"ha":749,"x_min":29,"x_max":730,"o":"m 380 592 l 373 592 q 252 521 303 592 q 194 324 194 441 l 194 321 q 251 119 194 205 q 381 34 306 37 l 389 34 q 510 105 458 34 q 568 302 568 184 q 512 504 568 420 q 380 592 456 589 m 198 713 q 179 743 185 732 q 159 775 172 753 q 340 860 267 817 q 209 947 292 903 q 188 973 188 960 q 191 983 188 979 q 204 1006 196 991 q 238 1027 216 1027 q 260 1021 248 1027 q 425 911 364 960 q 585 1038 498 960 q 613 1007 606 1016 q 637 982 621 998 q 488 858 557 904 q 661 626 593 762 q 730 313 728 491 l 730 309 q 630 66 730 165 q 380 -41 528 -37 l 371 -41 q 130 63 231 -41 q 29 311 29 168 l 29 313 q 146 576 30 469 q 189 600 161 591 q 266 629 216 610 q 332 653 296 640 q 393 667 369 667 l 396 667 q 503 650 479 663 q 461 718 493 667 q 398 802 429 769 q 198 713 320 757 z "},"":{"ha":808,"x_min":39,"x_max":787,"o":"m 262 600 q 304 616 276 605 q 359 635 333 627 q 493 665 424 659 q 512 666 503 666 q 632 623 576 666 q 720 343 720 556 l 720 99 q 753 52 720 64 q 787 14 787 40 q 757 -14 787 -14 l 592 -14 q 564 9 564 -14 l 564 343 q 506 543 564 487 q 422 577 471 577 q 358 566 393 577 q 320 552 343 560 q 281 536 298 543 q 262 530 265 531 l 262 99 q 296 52 262 64 q 330 14 330 40 q 300 -14 330 -14 l 70 -14 q 39 14 39 -14 q 73 52 39 40 q 106 99 106 64 l 106 533 q 73 579 106 567 q 39 618 39 591 q 69 646 39 646 q 154 659 111 648 q 262 693 196 671 l 262 600 m 636 917 q 579 801 607 838 q 505 758 545 758 q 376 819 445 758 q 321 846 345 846 q 286 831 304 846 q 273 819 281 825 q 257 801 266 812 q 229 753 243 782 q 205 738 222 738 q 184 746 194 738 q 174 768 174 755 q 178 789 174 777 q 225 893 201 837 q 311 949 250 949 q 445 886 379 949 q 496 859 473 859 q 540 878 517 859 q 582 944 564 897 q 608 962 588 962 l 612 962 q 638 935 635 958 l 638 931 q 636 917 638 924 z "},"":{"ha":751,"x_min":25,"x_max":726,"o":"m 392 662 q 628 555 532 656 q 726 315 724 454 l 726 311 q 626 73 726 171 q 375 -31 524 -26 l 364 -31 q 126 71 226 -31 q 25 313 25 174 l 25 315 q 141 574 26 469 q 184 597 157 588 q 261 625 211 607 q 327 649 291 636 q 389 662 364 662 l 392 662 m 376 589 l 369 589 q 247 519 299 589 q 189 326 189 441 q 245 129 189 211 q 376 43 301 46 l 385 43 q 506 113 454 43 q 564 305 564 190 q 507 503 564 420 q 376 589 451 585 m 466 751 l 260 878 q 228 905 244 888 q 212 945 212 922 q 248 1000 212 985 q 279 1008 262 1008 q 317 997 298 1008 q 379 939 335 985 q 440 876 424 893 l 522 792 q 549 749 549 764 q 530 732 549 734 q 522 730 528 730 q 466 751 500 730 z "},"":{"ha":751,"x_min":25,"x_max":726,"o":"m 392 662 q 628 555 532 656 q 726 315 724 454 l 726 311 q 626 73 726 171 q 375 -31 524 -26 l 364 -31 q 126 71 226 -31 q 25 313 25 174 l 25 315 q 141 574 26 469 q 184 597 157 588 q 261 625 211 607 q 327 649 291 636 q 389 662 364 662 l 392 662 m 376 589 l 369 589 q 247 519 299 589 q 189 326 189 441 q 245 129 189 211 q 376 43 301 46 l 385 43 q 506 113 454 43 q 564 305 564 190 q 507 503 564 420 q 376 589 451 585 m 294 751 q 237 730 260 730 q 228 732 230 730 q 210 750 210 734 q 237 792 210 764 l 319 876 q 379 939 335 893 q 442 997 424 985 q 480 1008 460 1008 q 512 1001 496 1008 q 547 945 547 985 q 531 905 547 922 q 497 878 515 888 l 294 751 z "},"":{"ha":751,"x_min":25,"x_max":726,"o":"m 392 662 q 628 555 532 656 q 726 315 724 454 l 726 311 q 626 73 726 171 q 375 -31 524 -26 l 364 -31 q 126 71 226 -31 q 25 313 25 174 l 25 315 q 141 574 26 469 q 184 597 157 588 q 261 625 211 607 q 327 649 291 636 q 389 662 364 662 l 392 662 m 376 589 l 369 589 q 247 519 299 589 q 189 326 189 441 q 245 129 189 211 q 376 43 301 46 l 385 43 q 506 113 454 43 q 564 305 564 190 q 507 503 564 420 q 376 589 451 585 m 144 730 l 317 992 l 416 992 l 589 730 l 515 730 l 367 865 l 218 730 l 144 730 z "},"":{"ha":751,"x_min":25,"x_max":726,"o":"m 392 662 q 628 555 532 656 q 726 315 724 454 l 726 311 q 626 73 726 171 q 375 -31 524 -26 l 364 -31 q 126 71 226 -31 q 25 313 25 174 l 25 315 q 141 574 26 469 q 184 597 157 588 q 261 625 211 607 q 327 649 291 636 q 389 662 364 662 l 392 662 m 376 589 l 369 589 q 247 519 299 589 q 189 326 189 441 q 245 129 189 211 q 376 43 301 46 l 385 43 q 506 113 454 43 q 564 305 564 190 q 507 503 564 420 q 376 589 451 585 m 609 916 q 552 801 580 838 q 479 758 519 758 q 349 819 418 758 q 294 846 318 846 q 260 831 277 846 q 246 819 254 825 q 231 801 239 812 q 202 753 215 780 q 178 738 195 738 q 157 746 167 738 q 146 768 146 755 q 151 789 146 777 q 199 893 174 838 q 285 949 224 949 q 418 886 353 949 q 470 859 446 859 q 513 878 490 859 q 555 945 536 897 q 581 962 562 962 l 586 962 q 612 935 608 958 l 612 931 q 609 916 612 923 z "},"":{"ha":751,"x_min":25,"x_max":726,"o":"m 392 662 q 628 555 532 656 q 726 315 724 454 l 726 311 q 626 73 726 171 q 375 -31 524 -26 l 364 -31 q 126 71 226 -31 q 25 313 25 174 l 25 315 q 141 574 26 469 q 184 597 157 588 q 261 625 211 607 q 327 649 291 636 q 389 662 364 662 l 392 662 m 376 589 l 369 589 q 247 519 299 589 q 189 326 189 441 q 245 129 189 211 q 376 43 301 46 l 385 43 q 506 113 454 43 q 564 305 564 190 q 507 503 564 420 q 376 589 451 585 m 415 857 q 439 913 415 888 q 499 938 463 938 q 578 886 556 938 q 585 853 585 869 q 559 798 585 823 q 507 774 536 774 q 498 774 507 774 q 437 800 462 774 q 415 857 415 822 m 175 857 q 226 931 175 909 q 260 938 244 938 q 319 913 294 938 q 345 857 345 887 q 338 826 345 842 q 259 774 317 774 q 175 857 175 774 z "},"":{"ha":694,"x_min":94,"x_max":628,"o":"m 136 477 l 586 477 q 628 446 628 477 l 628 410 q 586 379 628 379 l 136 379 q 94 410 94 379 l 94 446 q 136 477 94 477 m 361 550 q 300 576 324 550 q 277 631 277 597 q 300 686 277 664 q 361 711 323 711 q 421 686 397 711 q 446 631 446 663 q 421 575 446 598 q 361 550 397 550 m 361 144 q 301 168 325 144 q 277 225 277 192 q 300 281 277 258 q 361 305 325 305 q 421 281 397 305 q 446 225 446 257 q 420 168 446 193 q 361 144 397 144 z "},"":{"ha":751,"x_min":11,"x_max":746,"o":"m 18 19 l 100 100 q 25 311 25 188 l 25 315 q 141 574 26 469 q 184 597 157 588 q 261 625 211 607 q 327 649 291 636 q 389 662 364 662 l 392 662 q 595 587 515 658 l 677 667 q 694 673 685 673 q 713 666 705 673 l 739 640 q 746 625 746 633 q 738 611 746 617 l 653 527 q 726 315 724 439 l 726 311 q 626 73 726 171 q 375 -31 524 -26 l 366 -31 q 158 41 241 -31 l 80 -34 q 62 -42 73 -42 q 44 -35 51 -42 l 18 -9 q 11 5 11 -2 q 18 19 11 13 m 207 205 l 509 502 q 376 589 457 585 l 369 589 q 247 519 299 589 q 189 326 189 441 q 207 205 189 248 m 547 422 l 245 127 q 376 43 296 47 l 385 43 q 506 113 454 43 q 564 305 564 190 q 547 422 564 382 z "},"":{"ha":840,"x_min":41,"x_max":790,"o":"m 722 99 q 756 52 722 64 q 790 14 790 40 q 759 -14 790 -14 l 594 -14 q 566 9 566 -14 l 566 31 q 524 15 553 26 q 469 -5 494 4 q 336 -33 404 -26 q 315 -34 325 -34 q 197 7 252 -34 q 109 288 109 75 l 109 533 q 75 579 109 567 q 41 618 41 591 q 71 646 41 646 q 156 659 113 648 q 265 693 198 671 l 265 288 q 323 88 265 144 q 406 54 357 54 q 472 66 435 54 q 508 79 485 71 q 547 94 531 88 q 558 98 551 96 l 566 101 l 566 533 q 532 579 566 567 q 498 618 498 591 q 528 646 498 646 q 613 659 570 648 q 722 693 655 671 l 722 99 m 493 751 l 290 878 q 256 905 272 888 q 239 945 239 922 q 275 1000 239 985 q 306 1008 290 1008 q 345 997 326 1008 q 407 939 363 985 q 468 876 451 893 l 549 792 q 576 750 576 764 q 559 732 576 734 q 550 730 555 730 q 493 751 527 730 z "},"":{"ha":840,"x_min":41,"x_max":790,"o":"m 722 99 q 756 52 722 64 q 790 14 790 40 q 759 -14 790 -14 l 594 -14 q 566 9 566 -14 l 566 31 q 524 15 553 26 q 469 -5 494 4 q 336 -33 404 -26 q 315 -34 325 -34 q 197 7 252 -34 q 109 288 109 75 l 109 533 q 75 579 109 567 q 41 618 41 591 q 71 646 41 646 q 156 659 113 648 q 265 693 198 671 l 265 288 q 323 88 265 144 q 406 54 357 54 q 472 66 435 54 q 508 79 485 71 q 547 94 531 88 q 558 98 551 96 l 566 101 l 566 533 q 532 579 566 567 q 498 618 498 591 q 528 646 498 646 q 613 659 570 648 q 722 693 655 671 l 722 99 m 321 751 q 264 730 288 730 q 256 732 259 730 q 237 750 237 734 q 265 792 237 764 l 347 876 q 407 939 363 893 q 470 997 452 985 q 508 1008 488 1008 q 540 1001 524 1008 q 575 945 575 985 q 559 905 575 922 q 525 878 543 888 l 321 751 z "},"":{"ha":840,"x_min":41,"x_max":790,"o":"m 722 99 q 756 52 722 64 q 790 14 790 40 q 759 -14 790 -14 l 594 -14 q 566 9 566 -14 l 566 31 q 524 15 553 26 q 469 -5 494 4 q 336 -33 404 -26 q 315 -34 325 -34 q 197 7 252 -34 q 109 288 109 75 l 109 533 q 75 579 109 567 q 41 618 41 591 q 71 646 41 646 q 156 659 113 648 q 265 693 198 671 l 265 288 q 323 88 265 144 q 406 54 357 54 q 472 66 435 54 q 508 79 485 71 q 547 94 531 88 q 558 98 551 96 l 566 101 l 566 533 q 532 579 566 567 q 498 618 498 591 q 528 646 498 646 q 613 659 570 648 q 722 693 655 671 l 722 99 m 184 730 l 357 992 l 457 992 l 630 730 l 556 730 l 408 865 l 258 730 l 184 730 z "},"":{"ha":840,"x_min":41,"x_max":790,"o":"m 722 99 q 756 52 722 64 q 790 14 790 40 q 759 -14 790 -14 l 594 -14 q 566 9 566 -14 l 566 31 q 524 15 553 26 q 469 -5 494 4 q 336 -33 404 -26 q 315 -34 325 -34 q 197 7 252 -34 q 109 288 109 75 l 109 533 q 75 579 109 567 q 41 618 41 591 q 71 646 41 646 q 156 659 113 648 q 265 693 198 671 l 265 288 q 323 88 265 144 q 406 54 357 54 q 472 66 435 54 q 508 79 485 71 q 547 94 531 88 q 558 98 551 96 l 566 101 l 566 533 q 532 579 566 567 q 498 618 498 591 q 528 646 498 646 q 613 659 570 648 q 722 693 655 671 l 722 99 m 443 857 q 467 913 443 888 q 526 938 491 938 q 606 886 583 938 q 612 852 612 869 q 587 798 612 823 q 535 774 564 774 q 526 774 534 774 q 465 800 490 774 q 443 857 443 822 m 203 857 q 254 931 203 909 q 288 938 272 938 q 347 913 321 938 q 372 858 372 888 q 366 826 372 842 q 287 774 345 774 q 203 857 203 774 z "},"":{"ha":772,"x_min":3,"x_max":684,"o":"m 97 538 q 69 572 87 560 q 33 591 54 583 q 6 614 12 600 q 3 625 3 621 q 29 645 3 645 l 252 645 q 286 624 277 645 q 288 614 288 619 q 269 589 288 598 q 255 572 259 584 q 254 563 254 568 q 257 550 254 557 l 418 155 l 558 490 q 564 514 564 503 q 547 553 564 534 l 517 589 l 588 644 q 608 652 596 652 q 631 642 621 652 l 669 603 q 684 565 684 587 q 680 538 684 553 q 647 462 669 506 l 312 -286 q 275 -361 291 -330 q 218 -397 254 -397 l 215 -397 l 159 -395 q 132 -369 132 -391 l 127 -279 l 178 -277 q 228 -246 213 -276 l 334 -26 q 336 -25 336 -26 q 331 -17 336 -22 q 323 -3 327 -13 q 319 10 320 7 l 97 538 m 321 751 q 264 730 288 730 q 256 732 259 730 q 237 750 237 734 q 265 792 237 764 l 347 876 q 407 939 363 893 q 470 997 452 985 q 508 1008 488 1008 q 540 1001 524 1008 q 575 945 575 985 q 559 905 575 922 q 525 878 543 888 l 321 751 z "},"":{"ha":800,"x_min":59,"x_max":776,"o":"m 283 1013 l 283 594 l 440 653 q 481 663 464 661 q 496 662 489 663 q 511 662 503 662 q 690 578 616 656 q 773 388 762 498 q 776 333 776 360 q 771 262 776 296 q 724 142 762 201 q 661 76 703 109 q 623 56 643 64 q 513 15 568 35 q 404 -25 458 -5 q 375 -31 389 -31 l 371 -31 q 283 -9 325 -28 l 283 -377 q 175 -343 217 -355 q 90 -330 132 -332 q 59 -302 59 -330 q 93 -264 59 -276 q 127 -217 127 -252 l 127 852 q 93 899 127 887 q 59 938 59 911 q 90 966 59 966 q 175 979 132 968 q 283 1013 217 990 m 283 110 q 345 71 305 90 q 414 52 384 52 l 418 52 q 437 56 426 52 q 486 73 461 64 q 534 92 510 82 q 555 105 547 96 q 608 207 593 146 q 618 304 618 256 q 618 331 618 318 q 567 484 610 425 q 417 566 507 566 q 401 566 409 566 q 370 558 387 564 q 325 539 355 552 q 283 522 295 526 l 283 110 z "},"":{"ha":772,"x_min":3,"x_max":684,"o":"m 97 538 q 69 572 87 560 q 33 591 54 583 q 6 614 12 600 q 3 625 3 621 q 29 645 3 645 l 252 645 q 286 624 277 645 q 288 614 288 619 q 269 589 288 598 q 255 572 259 584 q 254 563 254 568 q 257 550 254 557 l 418 155 l 558 490 q 564 514 564 503 q 547 553 564 534 l 517 589 l 588 644 q 608 652 596 652 q 631 642 621 652 l 669 603 q 684 565 684 587 q 680 538 684 553 q 647 462 669 506 l 312 -286 q 275 -361 291 -330 q 218 -397 254 -397 l 215 -397 l 159 -395 q 132 -369 132 -391 l 127 -279 l 178 -277 q 228 -246 213 -276 l 334 -26 q 336 -25 336 -26 q 331 -17 336 -22 q 323 -3 327 -13 q 319 10 320 7 l 97 538 m 404 857 q 428 913 404 888 q 488 938 452 938 q 567 886 545 938 q 574 852 574 868 q 549 798 574 823 q 488 770 521 770 q 427 799 456 770 q 404 857 404 822 m 165 857 q 216 931 165 909 q 250 938 234 938 q 309 913 283 938 q 334 858 334 888 q 328 826 334 842 q 249 774 307 774 q 165 857 165 774 z "},"":{"ha":1080,"x_min":18,"x_max":1065,"o":"m 581 981 q 668 776 618 892 q 771 537 718 660 q 874 298 825 414 q 959 103 924 182 q 994 64 968 81 q 1023 48 1008 55 q 1049 34 1038 41 q 1063 19 1059 26 q 1065 9 1065 14 q 1062 -2 1065 4 q 1039 -14 1057 -14 l 810 -14 q 787 -6 798 -14 q 773 9 775 2 q 771 18 771 13 q 783 40 771 30 q 798 52 790 46 q 808 66 805 58 q 809 75 809 70 q 804 96 809 84 l 708 318 l 337 318 q 293 211 317 269 q 244 96 269 153 q 238 74 239 83 q 237 66 237 70 q 239 56 237 60 q 245 43 241 49 q 253 28 250 38 q 254 19 254 22 q 252 10 254 14 q 220 -14 243 -14 l 45 -14 q 19 1 28 -14 q 18 5 19 2 q 20 18 18 10 q 51 43 26 33 q 72 54 60 48 q 94 66 83 59 q 125 104 116 82 l 514 981 l 581 981 m 338 1169 l 745 1169 q 769 1148 769 1169 l 769 1090 q 745 1069 769 1069 l 338 1069 q 314 1090 314 1069 l 314 1148 q 338 1169 314 1169 m 673 400 l 519 758 q 449 589 492 692 q 371 400 406 486 l 673 400 z "},"":{"ha":783,"x_min":25,"x_max":748,"o":"m 524 38 l 361 -22 q 318 -31 336 -31 l 290 -31 q 112 52 185 -25 q 28 243 38 131 q 25 298 25 271 q 30 368 25 334 q 77 488 39 429 q 140 555 95 520 q 178 575 157 566 q 287 616 233 595 q 397 656 342 636 q 425 662 412 662 l 429 662 q 541 639 475 660 q 549 635 547 637 q 583 623 562 630 q 593 621 589 621 q 600 623 597 621 q 618 641 613 634 q 642 652 627 652 q 655 650 649 652 q 680 624 680 641 l 680 99 q 714 52 680 64 q 748 14 748 40 q 717 -14 748 -14 l 552 -14 q 524 9 524 -14 l 524 38 m 524 517 q 459 557 502 537 q 386 579 417 578 l 384 579 q 363 575 374 579 q 315 557 339 566 q 267 539 291 548 q 246 526 254 534 q 193 423 207 484 q 182 330 182 376 q 183 300 182 315 q 234 147 191 205 q 338 71 276 88 q 385 64 361 64 q 400 65 393 64 q 431 73 412 66 q 479 91 446 78 q 524 107 513 103 l 524 517 m 161 925 l 568 925 q 592 905 592 925 l 592 846 q 568 825 592 825 l 161 825 q 138 846 138 825 l 138 905 q 161 925 138 925 z "},"":{"ha":1080,"x_min":18,"x_max":1065,"o":"m 581 981 q 668 776 618 892 q 771 537 718 660 q 874 298 825 414 q 959 103 924 182 q 994 64 968 81 q 1023 48 1008 55 q 1049 34 1038 41 q 1063 19 1059 26 q 1065 9 1065 14 q 1062 -2 1065 4 q 1039 -14 1057 -14 l 810 -14 q 787 -6 798 -14 q 773 9 775 2 q 771 18 771 13 q 783 40 771 30 q 798 52 790 46 q 808 66 805 58 q 809 75 809 70 q 804 96 809 84 l 708 318 l 337 318 q 293 211 317 269 q 244 96 269 153 q 238 74 239 83 q 237 66 237 70 q 239 56 237 60 q 245 43 241 49 q 253 28 250 38 q 254 19 254 22 q 252 10 254 14 q 220 -14 243 -14 l 45 -14 q 19 1 28 -14 q 18 5 19 2 q 20 18 18 10 q 51 43 26 33 q 72 54 60 48 q 94 66 83 59 q 125 104 116 82 l 514 981 l 581 981 m 549 1019 q 370 1102 431 1019 q 326 1234 330 1156 l 326 1236 q 361 1266 326 1266 q 395 1237 389 1266 q 548 1135 421 1137 l 551 1135 q 701 1237 675 1135 q 736 1266 709 1266 q 772 1236 772 1266 l 772 1234 q 727 1102 767 1156 q 549 1019 665 1019 m 673 400 l 519 758 q 449 589 492 692 q 371 400 406 486 l 673 400 z "},"":{"ha":783,"x_min":25,"x_max":748,"o":"m 524 38 l 361 -22 q 318 -31 336 -31 l 290 -31 q 112 52 185 -25 q 28 243 38 131 q 25 298 25 271 q 30 368 25 334 q 77 488 39 429 q 140 555 95 520 q 178 575 157 566 q 287 616 233 595 q 397 656 342 636 q 425 662 412 662 l 429 662 q 541 639 475 660 q 549 635 547 637 q 583 623 562 630 q 593 621 589 621 q 600 623 597 621 q 618 641 613 634 q 642 652 627 652 q 655 650 649 652 q 680 624 680 641 l 680 99 q 714 52 680 64 q 748 14 748 40 q 717 -14 748 -14 l 552 -14 q 524 9 524 -14 l 524 38 m 524 517 q 459 557 502 537 q 386 579 417 578 l 384 579 q 363 575 374 579 q 315 557 339 566 q 267 539 291 548 q 246 526 254 534 q 193 423 207 484 q 182 330 182 376 q 183 300 182 315 q 234 147 191 205 q 338 71 276 88 q 385 64 361 64 q 400 65 393 64 q 431 73 412 66 q 479 91 446 78 q 524 107 513 103 l 524 517 m 392 745 q 214 828 273 745 q 169 960 173 882 l 169 962 q 203 992 169 992 q 238 963 230 992 q 391 861 264 862 l 394 861 q 545 963 519 861 q 580 992 553 992 q 614 964 614 992 l 614 960 q 570 828 611 885 q 392 745 509 745 z "},"":{"ha":1080,"x_min":18,"x_max":1065,"o":"m 549 2 q 568 -50 568 -28 q 559 -81 568 -67 q 518 -133 541 -111 q 487 -184 487 -163 q 501 -206 487 -197 q 534 -217 517 -217 q 623 -173 558 -217 l 603 -263 q 494 -286 536 -286 l 484 -286 q 383 -210 387 -278 l 383 -204 q 427 -111 383 -148 q 477 -66 453 -89 q 488 -38 488 -56 q 479 2 488 -27 l 549 2 m 581 981 q 668 776 618 892 q 771 537 718 660 q 874 298 825 414 q 959 103 924 182 q 994 64 968 81 q 1023 48 1008 55 q 1049 34 1038 41 q 1063 19 1059 26 q 1065 9 1065 14 q 1062 -2 1065 4 q 1039 -14 1057 -14 l 810 -14 q 787 -6 798 -14 q 773 9 775 2 q 771 18 771 13 q 783 40 771 30 q 798 52 790 46 q 808 66 805 58 q 809 75 809 70 q 804 96 809 84 l 708 318 l 337 318 q 293 211 317 269 q 244 96 269 153 q 238 74 239 83 q 237 66 237 70 q 239 56 237 60 q 245 43 241 49 q 253 28 250 38 q 254 19 254 22 q 252 10 254 14 q 220 -14 243 -14 l 45 -14 q 19 1 28 -14 q 18 5 19 2 q 20 18 18 10 q 51 43 26 33 q 72 54 60 48 q 94 66 83 59 q 125 104 116 82 l 514 981 l 581 981 m 673 400 l 519 758 q 449 589 492 692 q 371 400 406 486 l 673 400 z "},"":{"ha":783,"x_min":25,"x_max":748,"o":"m 435 -27 q 454 -79 454 -58 q 445 -111 454 -96 q 404 -162 427 -140 q 373 -213 373 -193 q 387 -235 373 -226 q 420 -246 404 -246 q 509 -202 444 -246 l 489 -292 q 380 -315 422 -315 l 370 -315 q 269 -239 273 -307 l 269 -233 q 313 -140 269 -177 q 363 -96 339 -118 q 374 -67 374 -85 q 365 -27 374 -56 l 435 -27 m 524 38 l 361 -22 q 318 -31 336 -31 l 290 -31 q 112 52 185 -25 q 28 243 38 131 q 25 298 25 271 q 30 368 25 334 q 77 488 39 429 q 140 555 95 520 q 178 575 157 566 q 287 616 233 595 q 397 656 342 636 q 425 662 412 662 l 429 662 q 541 639 475 660 q 549 635 547 637 q 583 623 562 630 q 593 621 589 621 q 600 623 597 621 q 618 641 613 634 q 642 652 627 652 q 655 650 649 652 q 680 624 680 641 l 680 99 q 714 52 680 64 q 748 14 748 40 q 717 -14 748 -14 l 552 -14 q 524 9 524 -14 l 524 38 m 524 517 q 459 557 502 537 q 386 579 417 578 l 384 579 q 363 575 374 579 q 315 557 339 566 q 267 539 291 548 q 246 526 254 534 q 193 423 207 484 q 182 330 182 376 q 183 300 182 315 q 234 147 191 205 q 338 71 276 88 q 385 64 361 64 q 400 65 393 64 q 431 73 412 66 q 479 91 446 78 q 524 107 513 103 l 524 517 z "},"":{"ha":949,"x_min":28,"x_max":926,"o":"m 575 -39 q 194 98 360 -39 q 28 475 28 235 q 190 851 28 709 q 575 994 351 994 q 746 976 655 994 q 926 901 836 958 l 909 750 q 878 726 903 726 l 876 726 q 843 754 857 728 q 740 873 801 844 q 575 902 679 902 q 318 801 431 902 q 205 475 205 701 q 311 198 205 332 q 576 58 418 65 q 606 57 592 57 q 741 81 688 57 q 843 200 801 110 q 875 228 856 224 l 880 228 q 909 203 905 228 l 911 184 l 849 12 q 706 -29 775 -19 q 575 -39 637 -39 m 505 1061 q 448 1040 471 1040 q 439 1042 441 1040 q 422 1059 422 1044 q 450 1102 422 1074 l 532 1187 q 591 1249 547 1203 q 654 1307 635 1295 q 692 1318 672 1318 q 723 1312 707 1318 q 759 1255 759 1296 q 743 1215 759 1232 q 709 1187 726 1198 l 505 1061 z "},"":{"ha":627,"x_min":37,"x_max":616,"o":"m 376 662 l 391 662 q 612 595 507 662 l 600 473 q 574 452 596 452 l 571 452 q 543 475 552 454 q 478 553 518 530 q 382 576 439 576 l 367 576 q 264 538 300 573 q 215 459 231 506 q 198 352 198 411 q 200 311 198 332 q 252 152 207 214 q 382 62 312 73 q 406 60 393 60 q 531 99 461 60 q 593 122 574 122 q 610 117 602 122 q 616 102 616 111 q 607 71 616 92 q 580 34 596 48 q 479 -17 539 -3 q 366 -31 419 -31 q 143 43 233 -30 q 40 252 52 117 q 37 311 37 281 q 42 383 37 348 q 90 507 52 446 q 205 615 131 573 q 376 662 279 658 m 355 751 q 298 730 321 730 q 289 732 291 730 q 271 750 271 734 q 298 792 271 764 l 380 876 q 440 939 396 893 q 503 997 485 985 q 541 1008 522 1008 q 573 1001 557 1008 q 609 945 609 985 q 592 905 609 922 q 558 878 576 888 l 355 751 z "},"":{"ha":949,"x_min":28,"x_max":926,"o":"m 575 -39 q 194 98 360 -39 q 28 475 28 235 q 190 851 28 709 q 575 994 351 994 q 746 976 655 994 q 926 901 836 958 l 909 750 q 878 726 903 726 l 876 726 q 843 754 857 728 q 740 873 801 844 q 575 902 679 902 q 318 801 431 902 q 205 475 205 701 q 311 198 205 332 q 576 58 418 65 q 606 57 592 57 q 741 81 688 57 q 843 200 801 110 q 875 228 856 224 l 880 228 q 909 203 905 228 l 911 184 l 849 12 q 706 -29 775 -19 q 575 -39 637 -39 m 329 1042 l 502 1304 l 601 1304 l 774 1042 l 701 1042 l 552 1176 l 403 1042 l 329 1042 z "},"":{"ha":627,"x_min":37,"x_max":634,"o":"m 376 662 l 391 662 q 612 595 507 662 l 600 473 q 574 452 596 452 l 571 452 q 543 475 552 454 q 478 553 518 530 q 382 576 439 576 l 367 576 q 264 538 300 573 q 215 459 231 506 q 198 352 198 411 q 200 311 198 332 q 252 152 207 214 q 382 62 312 73 q 406 60 393 60 q 531 99 461 60 q 593 122 574 122 q 610 117 602 122 q 616 102 616 111 q 607 71 616 92 q 580 34 596 48 q 479 -17 539 -3 q 366 -31 419 -31 q 143 43 233 -30 q 40 252 52 117 q 37 311 37 281 q 42 383 37 348 q 90 507 52 446 q 205 615 131 573 q 376 662 279 658 m 189 730 l 361 992 l 460 992 l 634 730 l 559 730 l 411 865 l 262 730 l 189 730 z "},"":{"ha":949,"x_min":28,"x_max":926,"o":"m 575 -39 q 194 98 360 -39 q 28 475 28 235 q 190 851 28 709 q 575 994 351 994 q 746 976 655 994 q 926 901 836 958 l 909 750 q 878 726 903 726 l 876 726 q 843 754 857 728 q 740 873 801 844 q 575 902 679 902 q 318 801 431 902 q 205 475 205 701 q 311 198 205 332 q 576 58 418 65 q 606 57 592 57 q 741 81 688 57 q 843 200 801 110 q 875 228 856 224 l 880 228 q 909 203 905 228 l 911 184 l 849 12 q 706 -29 775 -19 q 575 -39 637 -39 m 558 1124 q 519 1131 537 1124 q 486 1153 496 1141 q 465 1183 471 1166 q 458 1219 458 1201 q 465 1256 458 1237 q 487 1289 471 1273 q 518 1310 498 1299 q 558 1318 539 1318 q 600 1310 578 1318 q 631 1288 617 1300 q 652 1256 644 1274 q 659 1219 659 1238 q 652 1183 659 1200 q 631 1152 644 1164 q 599 1131 618 1141 q 558 1124 580 1124 z "},"":{"ha":627,"x_min":37,"x_max":616,"o":"m 376 662 l 391 662 q 612 595 507 662 l 600 473 q 574 452 596 452 l 571 452 q 543 475 552 454 q 478 553 518 530 q 382 576 439 576 l 367 576 q 264 538 300 573 q 215 459 231 506 q 198 352 198 411 q 200 311 198 332 q 252 152 207 214 q 382 62 312 73 q 406 60 393 60 q 531 99 461 60 q 593 122 574 122 q 610 117 602 122 q 616 102 616 111 q 607 71 616 92 q 580 34 596 48 q 479 -17 539 -3 q 366 -31 419 -31 q 143 43 233 -30 q 40 252 52 117 q 37 311 37 281 q 42 383 37 348 q 90 507 52 446 q 205 615 131 573 q 376 662 279 658 m 381 772 q 342 780 362 772 q 309 801 323 787 q 288 831 294 817 q 281 867 281 849 q 288 905 281 886 q 309 935 294 921 q 341 958 319 947 q 381 966 362 966 q 422 958 401 966 q 453 937 442 947 q 475 905 467 923 q 481 867 481 887 q 475 831 481 848 q 454 800 467 814 q 420 779 438 787 q 381 772 401 772 z "},"":{"ha":949,"x_min":28,"x_max":926,"o":"m 575 -39 q 194 98 360 -39 q 28 475 28 235 q 190 851 28 709 q 575 994 351 994 q 746 976 655 994 q 926 901 836 958 l 909 750 q 878 726 903 726 l 876 726 q 843 754 857 728 q 740 873 801 844 q 575 902 679 902 q 318 801 431 902 q 205 475 205 701 q 311 198 205 332 q 576 58 418 65 q 606 57 592 57 q 741 81 688 57 q 843 200 801 110 q 875 228 856 224 l 880 228 q 909 203 905 228 l 911 184 l 849 12 q 706 -29 775 -19 q 575 -39 637 -39 m 329 1304 l 403 1304 l 552 1169 l 701 1304 l 774 1304 l 601 1042 l 502 1042 l 329 1304 z "},"":{"ha":627,"x_min":37,"x_max":620,"o":"m 376 662 l 391 662 q 612 595 507 662 l 600 473 q 574 452 596 452 l 571 452 q 543 475 552 454 q 478 553 518 530 q 382 576 439 576 l 367 576 q 264 538 300 573 q 215 459 231 506 q 198 352 198 411 q 200 311 198 332 q 252 152 207 214 q 382 62 312 73 q 406 60 393 60 q 531 99 461 60 q 593 122 574 122 q 610 117 602 122 q 616 102 616 111 q 607 71 616 92 q 580 34 596 48 q 479 -17 539 -3 q 366 -31 419 -31 q 143 43 233 -30 q 40 252 52 117 q 37 311 37 281 q 42 383 37 348 q 90 507 52 446 q 205 615 131 573 q 376 662 279 658 m 174 992 l 248 992 l 397 857 l 545 992 l 620 992 l 446 730 l 347 730 l 174 992 z "},"":{"ha":1075,"x_min":56,"x_max":1036,"o":"m 1034 537 q 1036 493 1036 514 q 993 286 1036 378 q 849 105 941 176 q 467 -18 692 -16 l 413 -18 q 339 -18 374 -18 l 260 -18 q 174 -16 203 -18 l 158 -16 q 88 -20 132 -16 q 56 9 56 -20 q 90 47 56 35 q 124 94 124 59 l 124 856 q 90 902 124 890 q 56 941 56 914 q 87 968 56 968 q 145 968 116 968 q 203 968 174 968 q 317 972 261 970 l 357 972 q 568 966 462 972 q 798 915 695 959 q 960 783 896 871 q 1034 537 1024 694 m 329 1304 l 403 1304 l 552 1169 l 701 1304 l 774 1304 l 601 1042 l 502 1042 l 329 1304 m 288 880 l 291 78 q 435 64 362 64 q 665 116 568 64 q 809 263 756 163 q 858 499 858 355 l 858 522 q 820 701 855 629 q 728 814 785 772 q 526 888 645 877 q 441 891 484 891 q 288 880 359 891 z "},"":{"ha":949,"x_min":39,"x_max":916,"o":"m 537 38 l 374 -22 q 332 -31 349 -31 l 303 -31 q 125 52 199 -25 q 41 243 52 131 q 39 298 39 271 q 43 368 39 334 q 90 488 52 429 q 154 555 109 520 q 191 575 171 566 q 301 616 246 595 q 410 656 355 636 q 439 662 425 662 l 443 662 q 554 639 489 660 l 555 639 q 537 648 555 640 l 537 852 q 503 899 537 887 q 469 938 469 911 q 500 966 469 966 q 584 979 542 968 q 694 1013 627 990 l 694 99 q 728 52 694 64 q 762 14 762 40 q 730 -14 762 -14 l 566 -14 q 537 9 537 -14 l 537 38 m 537 517 q 471 558 513 539 q 399 579 430 578 l 397 579 q 377 575 388 579 q 329 557 353 566 q 280 539 304 548 q 260 526 267 534 q 207 423 220 484 q 195 330 195 376 q 197 300 195 315 q 248 147 204 205 q 352 71 290 88 q 399 64 375 64 q 414 65 406 64 q 444 73 426 66 q 493 91 460 78 q 537 107 526 103 l 537 517 m 779 682 q 736 637 756 644 q 724 633 731 633 q 701 658 701 633 q 708 694 701 670 l 739 807 q 762 891 745 829 q 789 970 779 953 q 848 1006 808 1002 l 853 1006 q 909 972 889 1006 q 916 945 916 959 q 913 928 916 937 q 898 892 907 907 l 779 682 z "},"":{"ha":1075,"x_min":0,"x_max":1036,"o":"m 1034 537 q 1036 493 1036 514 q 993 286 1036 378 q 849 105 941 176 q 467 -18 692 -16 l 413 -18 q 339 -18 374 -18 l 260 -18 q 174 -16 203 -18 l 158 -16 q 88 -20 132 -16 q 56 9 56 -20 q 90 47 56 35 q 124 94 124 59 l 124 451 l 31 451 q 0 477 0 451 l 0 504 q 31 531 0 531 l 124 531 l 124 856 q 90 902 124 890 q 56 941 56 914 q 87 968 56 968 q 145 968 116 968 q 203 968 174 968 q 317 972 261 970 l 357 972 q 568 966 462 972 q 798 915 695 959 q 960 783 896 871 q 1034 537 1024 694 m 289 531 l 486 531 q 516 504 516 531 l 516 477 q 486 451 516 451 l 289 451 l 291 78 q 435 64 362 64 q 665 116 568 64 q 809 263 756 163 q 858 499 858 355 l 858 522 q 820 701 855 629 q 728 814 785 772 q 526 888 645 877 q 441 891 484 891 q 288 880 359 891 l 289 531 z "},"":{"ha":785,"x_min":24,"x_max":765,"o":"m 319 783 l 509 783 l 509 986 q 615 952 574 963 q 697 939 656 941 q 728 911 728 939 q 694 874 728 886 q 661 829 661 863 l 661 783 l 740 783 q 765 760 765 783 l 765 718 q 740 696 765 696 l 661 696 l 661 96 q 694 51 661 62 q 728 14 728 39 q 696 -14 728 -14 l 536 -14 q 509 8 509 -14 l 509 37 l 351 -22 q 310 -31 330 -29 q 281 -30 292 -31 q 107 52 180 -26 q 27 236 36 128 q 24 292 24 264 q 29 358 24 326 q 74 475 37 416 q 136 538 92 505 q 174 559 153 552 q 280 600 227 580 q 385 638 333 619 q 418 644 399 644 q 509 627 464 642 l 509 696 l 319 696 q 294 718 294 696 l 294 760 q 319 783 294 783 m 509 503 q 446 542 487 522 q 375 563 405 562 q 354 559 365 563 q 306 541 330 550 q 259 524 283 532 q 239 511 247 519 q 188 412 201 470 q 177 321 177 366 q 178 291 177 307 q 228 143 186 200 q 329 70 269 86 q 374 63 352 63 q 389 64 382 63 q 419 71 401 65 q 465 88 433 76 q 509 104 497 100 l 509 503 z "},"":{"ha":848,"x_min":88,"x_max":808,"o":"m 313 77 l 585 77 q 681 123 640 77 q 744 195 722 168 q 777 216 762 216 q 808 189 808 216 q 806 172 808 178 l 754 -14 l 117 -14 q 88 14 88 -14 q 122 52 88 40 q 156 99 156 64 l 156 852 q 122 900 156 888 q 88 938 88 911 q 119 966 88 966 l 766 966 l 766 778 q 734 750 766 750 q 694 784 718 750 q 640 853 661 830 q 585 876 618 876 l 313 876 l 313 534 l 451 534 q 496 569 482 534 q 539 604 509 604 q 570 576 570 604 l 570 404 q 539 376 570 376 q 494 411 510 376 q 447 446 479 446 l 313 446 l 313 77 m 245 1169 l 652 1169 q 675 1148 675 1169 l 675 1090 q 652 1069 675 1069 l 245 1069 q 221 1090 221 1069 l 221 1148 q 245 1169 221 1169 z "},"":{"ha":678,"x_min":18,"x_max":649,"o":"m 351 -31 q 77 96 157 -31 q 18 300 18 187 q 24 375 18 336 q 128 586 45 509 q 351 662 210 662 q 649 374 649 662 q 646 328 648 346 q 602 311 644 311 l 190 311 q 246 133 190 206 q 403 60 302 60 q 458 67 428 60 q 533 97 489 74 q 595 120 576 120 q 612 115 604 120 q 619 99 619 108 q 609 69 619 87 q 594 45 600 51 q 584 34 589 39 q 472 -19 535 -8 q 351 -31 409 -31 m 190 387 l 511 387 q 472 531 511 485 q 351 576 433 576 q 230 520 269 576 q 190 387 190 463 m 127 927 l 534 927 q 558 907 558 927 l 558 848 q 534 827 558 827 l 127 827 q 103 848 103 827 l 103 907 q 127 927 103 927 z "},"":{"ha":848,"x_min":88,"x_max":808,"o":"m 313 77 l 585 77 q 681 123 640 77 q 744 195 722 168 q 777 216 762 216 q 808 189 808 216 q 806 172 808 178 l 754 -14 l 117 -14 q 88 14 88 -14 q 122 52 88 40 q 156 99 156 64 l 156 852 q 122 900 156 888 q 88 938 88 911 q 119 966 88 966 l 766 966 l 766 778 q 734 750 766 750 q 694 784 718 750 q 640 853 661 830 q 585 876 618 876 l 313 876 l 313 534 l 451 534 q 496 569 482 534 q 539 604 509 604 q 570 576 570 604 l 570 404 q 539 376 570 376 q 494 411 510 376 q 447 446 479 446 l 313 446 l 313 77 m 448 1019 q 270 1102 331 1019 q 225 1234 229 1156 l 225 1236 q 260 1266 225 1266 q 295 1237 287 1266 q 448 1135 321 1137 l 451 1135 q 601 1237 575 1135 q 636 1266 609 1266 q 671 1236 671 1266 l 671 1234 q 627 1102 667 1156 q 448 1019 565 1019 z "},"":{"ha":678,"x_min":18,"x_max":649,"o":"m 351 -31 q 77 96 157 -31 q 18 300 18 187 q 24 375 18 336 q 128 586 45 509 q 351 662 210 662 q 649 374 649 662 q 646 328 648 346 q 602 311 644 311 l 190 311 q 246 133 190 206 q 403 60 302 60 q 458 67 428 60 q 533 97 489 74 q 595 120 576 120 q 612 115 604 120 q 619 99 619 108 q 609 69 619 87 q 594 45 600 51 q 584 34 589 39 q 472 -19 535 -8 q 351 -31 409 -31 m 190 387 l 511 387 q 472 531 511 485 q 351 576 433 576 q 230 520 269 576 q 190 387 190 463 m 331 743 q 152 825 213 743 q 108 958 111 882 l 108 960 q 142 989 108 989 q 178 960 171 989 q 330 859 203 859 l 333 859 q 484 960 458 859 q 519 989 492 989 q 554 958 554 989 q 509 825 549 881 q 331 743 448 743 z "},"":{"ha":848,"x_min":88,"x_max":808,"o":"m 313 77 l 585 77 q 681 123 640 77 q 744 195 722 168 q 777 216 762 216 q 808 189 808 216 q 806 172 808 178 l 754 -14 l 117 -14 q 88 14 88 -14 q 122 52 88 40 q 156 99 156 64 l 156 852 q 122 900 156 888 q 88 938 88 911 q 119 966 88 966 l 766 966 l 766 778 q 734 750 766 750 q 694 784 718 750 q 640 853 661 830 q 585 876 618 876 l 313 876 l 313 534 l 451 534 q 496 569 482 534 q 539 604 509 604 q 570 576 570 604 l 570 404 q 539 376 570 376 q 494 411 510 376 q 447 446 479 446 l 313 446 l 313 77 m 448 1046 q 410 1053 427 1046 q 376 1074 390 1061 q 355 1105 363 1086 q 348 1141 348 1122 q 355 1179 348 1161 q 376 1210 363 1198 q 407 1231 389 1222 q 448 1240 425 1240 q 490 1231 471 1240 q 521 1209 507 1222 q 542 1179 534 1195 q 549 1141 549 1161 q 542 1105 549 1122 q 521 1074 534 1088 q 489 1053 507 1061 q 448 1046 470 1046 z "},"":{"ha":678,"x_min":18,"x_max":649,"o":"m 351 -31 q 77 96 157 -31 q 18 300 18 187 q 24 375 18 336 q 128 586 45 509 q 351 662 210 662 q 649 374 649 662 q 646 328 648 346 q 602 311 644 311 l 190 311 q 246 133 190 206 q 403 60 302 60 q 458 67 428 60 q 533 97 489 74 q 595 120 576 120 q 612 115 604 120 q 619 99 619 108 q 609 69 619 87 q 594 45 600 51 q 584 34 589 39 q 472 -19 535 -8 q 351 -31 409 -31 m 190 387 l 511 387 q 472 531 511 485 q 351 576 433 576 q 230 520 269 576 q 190 387 190 463 m 331 958 q 422 869 422 958 q 331 780 422 780 q 239 869 239 780 q 331 958 239 958 z "},"":{"ha":848,"x_min":88,"x_max":808,"o":"m 460 -22 q 480 -73 480 -52 q 471 -105 480 -91 q 430 -157 452 -135 q 399 -208 399 -187 q 413 -230 399 -220 q 446 -241 429 -241 q 535 -197 470 -241 l 515 -287 q 406 -309 448 -309 l 395 -309 q 295 -234 298 -302 l 295 -228 q 338 -135 295 -172 q 389 -90 365 -113 q 400 -62 400 -80 q 391 -22 400 -51 l 460 -22 m 313 77 l 585 77 q 681 123 640 77 q 744 195 722 168 q 777 216 762 216 q 808 189 808 216 q 806 172 808 178 l 754 -14 l 117 -14 q 88 14 88 -14 q 122 52 88 40 q 156 99 156 64 l 156 852 q 122 900 156 888 q 88 938 88 911 q 119 966 88 966 l 766 966 l 766 778 q 734 750 766 750 q 694 784 718 750 q 640 853 661 830 q 585 876 618 876 l 313 876 l 313 534 l 451 534 q 496 569 482 534 q 539 604 509 604 q 570 576 570 604 l 570 404 q 539 376 570 376 q 494 411 510 376 q 447 446 479 446 l 313 446 l 313 77 z "},"":{"ha":678,"x_min":18,"x_max":649,"o":"m 349 -37 q 369 -89 369 -68 q 359 -121 369 -106 q 319 -172 341 -151 q 288 -223 288 -203 q 302 -245 288 -236 q 335 -256 318 -256 q 424 -212 359 -256 l 404 -302 q 295 -325 337 -325 l 284 -325 q 184 -250 187 -317 l 184 -243 q 227 -151 184 -187 q 277 -106 254 -128 q 289 -77 289 -96 q 279 -37 289 -66 l 349 -37 m 351 -31 q 77 96 157 -31 q 18 300 18 187 q 24 375 18 336 q 128 586 45 509 q 351 662 210 662 q 649 374 649 662 q 646 328 648 346 q 602 311 644 311 l 190 311 q 246 133 190 206 q 403 60 302 60 q 458 67 428 60 q 533 97 489 74 q 595 120 576 120 q 612 115 604 120 q 619 99 619 108 q 609 69 619 87 q 594 45 600 51 q 584 34 589 39 q 472 -19 535 -8 q 351 -31 409 -31 m 190 387 l 511 387 q 472 531 511 485 q 351 576 433 576 q 230 520 269 576 q 190 387 190 463 z "},"":{"ha":848,"x_min":88,"x_max":808,"o":"m 313 77 l 585 77 q 681 123 640 77 q 744 195 722 168 q 777 216 762 216 q 808 189 808 216 q 806 172 808 178 l 754 -14 l 117 -14 q 88 14 88 -14 q 122 52 88 40 q 156 99 156 64 l 156 852 q 122 900 156 888 q 88 938 88 911 q 119 966 88 966 l 766 966 l 766 778 q 734 750 766 750 q 694 784 718 750 q 640 853 661 830 q 585 876 618 876 l 313 876 l 313 534 l 451 534 q 496 569 482 534 q 539 604 509 604 q 570 576 570 604 l 570 404 q 539 376 570 376 q 494 411 510 376 q 447 446 479 446 l 313 446 l 313 77 m 225 1304 l 300 1304 l 448 1169 l 597 1304 l 671 1304 l 498 1042 l 399 1042 l 225 1304 z "},"":{"ha":678,"x_min":18,"x_max":649,"o":"m 351 -31 q 77 96 157 -31 q 18 300 18 187 q 24 375 18 336 q 128 586 45 509 q 351 662 210 662 q 649 374 649 662 q 646 328 648 346 q 602 311 644 311 l 190 311 q 246 133 190 206 q 403 60 302 60 q 458 67 428 60 q 533 97 489 74 q 595 120 576 120 q 612 115 604 120 q 619 99 619 108 q 609 69 619 87 q 594 45 600 51 q 584 34 589 39 q 472 -19 535 -8 q 351 -31 409 -31 m 190 387 l 511 387 q 472 531 511 485 q 351 576 433 576 q 230 520 269 576 q 190 387 190 463 m 108 992 l 182 992 l 331 857 l 479 992 l 553 992 l 380 730 l 281 730 l 108 992 z "},"":{"ha":1060,"x_min":28,"x_max":1049,"o":"m 575 -39 q 194 98 360 -39 q 28 475 28 235 q 190 851 28 709 q 575 994 351 994 q 746 976 655 994 q 926 901 836 958 l 909 750 q 878 726 903 726 l 876 726 q 843 754 857 728 q 740 873 801 844 q 575 902 679 902 q 318 801 431 902 q 205 475 205 701 q 311 198 205 332 q 576 58 418 65 q 606 57 592 57 q 729 76 680 57 q 825 165 787 98 l 825 290 q 811 311 825 304 q 754 337 794 321 q 715 376 715 353 q 746 404 715 404 l 1018 404 q 1049 376 1049 404 q 1015 337 1049 349 q 981 290 981 325 l 981 14 q 768 -16 863 8 q 669 -34 718 -29 q 575 -39 620 -39 m 316 1042 l 490 1304 l 589 1304 l 762 1042 l 688 1042 l 539 1176 l 391 1042 l 316 1042 z "},"":{"ha":748,"x_min":25,"x_max":680,"o":"m 524 149 l 524 517 q 459 557 502 537 q 386 579 417 578 l 384 579 q 363 575 374 579 q 315 557 339 566 q 267 539 291 548 q 246 526 254 534 q 193 423 207 484 q 182 330 182 376 q 183 300 182 315 q 234 147 191 205 q 338 71 276 88 q 385 64 361 64 q 400 65 393 64 q 431 73 412 66 q 479 90 446 78 q 523 106 512 102 l 523 149 l 524 149 m 523 38 l 361 -22 q 318 -31 336 -31 l 290 -31 q 112 52 185 -25 q 28 243 38 131 q 25 298 25 271 q 30 368 25 334 q 77 488 39 429 q 140 555 95 520 q 178 575 157 566 q 287 616 233 595 q 397 656 342 636 q 425 662 412 662 l 429 662 q 541 639 475 660 q 549 635 547 637 q 583 623 562 630 q 593 621 589 621 q 600 623 597 621 q 618 641 613 634 q 642 652 627 652 q 655 650 649 652 q 680 624 680 641 l 680 -122 q 645 -270 680 -239 q 547 -323 610 -301 l 361 -393 q 318 -402 336 -402 q 289 -401 300 -402 q 111 -317 186 -398 q 45 -207 72 -275 q 197 -149 118 -178 q 234 -224 214 -197 q 338 -300 277 -282 q 384 -306 361 -306 q 400 -305 393 -306 q 431 -298 413 -304 q 451 -290 438 -295 q 478 -280 465 -286 q 513 -222 503 -268 q 524 -161 524 -176 l 523 38 m 130 730 l 302 992 l 401 992 l 575 730 l 500 730 l 352 865 l 203 730 l 130 730 z "},"":{"ha":1060,"x_min":28,"x_max":1049,"o":"m 575 -39 q 194 98 360 -39 q 28 475 28 235 q 190 851 28 709 q 575 994 351 994 q 746 976 655 994 q 926 901 836 958 l 909 750 q 878 726 903 726 l 876 726 q 843 754 857 728 q 740 873 801 844 q 575 902 679 902 q 318 801 431 902 q 205 475 205 701 q 311 198 205 332 q 576 58 418 65 q 606 57 592 57 q 729 76 680 57 q 825 165 787 98 l 825 290 q 811 311 825 304 q 754 337 794 321 q 715 376 715 353 q 746 404 715 404 l 1018 404 q 1049 376 1049 404 q 1015 337 1049 349 q 981 290 981 325 l 981 14 q 768 -16 863 8 q 669 -34 718 -29 q 575 -39 620 -39 m 539 1019 q 361 1102 422 1019 q 316 1234 320 1156 l 316 1236 q 351 1266 316 1266 q 386 1237 379 1266 q 538 1135 412 1137 l 542 1135 q 692 1237 666 1135 q 727 1266 700 1266 q 762 1236 762 1266 l 762 1234 q 718 1102 758 1158 q 539 1019 656 1019 z "},"":{"ha":748,"x_min":25,"x_max":680,"o":"m 524 149 l 524 517 q 459 557 502 537 q 386 579 417 578 l 384 579 q 363 575 374 579 q 315 557 339 566 q 267 539 291 548 q 246 526 254 534 q 193 423 207 484 q 182 330 182 376 q 183 300 182 315 q 234 147 191 205 q 338 71 276 88 q 385 64 361 64 q 400 65 393 64 q 431 73 412 66 q 479 90 446 78 q 523 106 512 102 l 523 149 l 524 149 m 523 38 l 361 -22 q 318 -31 336 -31 l 290 -31 q 112 52 185 -25 q 28 243 38 131 q 25 298 25 271 q 30 368 25 334 q 77 488 39 429 q 140 555 95 520 q 178 575 157 566 q 287 616 233 595 q 397 656 342 636 q 425 662 412 662 l 429 662 q 541 639 475 660 q 549 635 547 637 q 583 623 562 630 q 593 621 589 621 q 600 623 597 621 q 618 641 613 634 q 642 652 627 652 q 655 650 649 652 q 680 624 680 641 l 680 -122 q 645 -270 680 -239 q 547 -323 610 -301 l 361 -393 q 318 -402 336 -402 q 289 -401 300 -402 q 111 -317 186 -398 q 45 -207 72 -275 q 197 -149 118 -178 q 234 -224 214 -197 q 338 -300 277 -282 q 384 -306 361 -306 q 400 -305 393 -306 q 431 -298 413 -304 q 451 -290 438 -295 q 478 -280 465 -286 q 513 -222 503 -268 q 524 -161 524 -176 l 523 38 m 352 743 q 174 825 235 743 q 129 958 133 880 l 129 960 q 164 989 129 989 q 199 960 191 989 q 351 859 225 859 l 355 859 q 505 960 478 859 q 540 989 511 989 q 575 959 575 989 l 575 958 q 530 825 570 880 q 352 743 469 743 z "},"":{"ha":1060,"x_min":28,"x_max":1049,"o":"m 575 -39 q 194 98 360 -39 q 28 475 28 235 q 190 851 28 709 q 575 994 351 994 q 746 976 655 994 q 926 901 836 958 l 909 750 q 878 726 903 726 l 876 726 q 843 754 857 728 q 740 873 801 844 q 575 902 679 902 q 318 801 431 902 q 205 475 205 701 q 311 198 205 332 q 576 58 418 65 q 606 57 592 57 q 729 76 680 57 q 825 165 787 98 l 825 290 q 811 311 825 304 q 754 337 794 321 q 715 376 715 353 q 746 404 715 404 l 1018 404 q 1049 376 1049 404 q 1015 337 1049 349 q 981 290 981 325 l 981 14 q 768 -16 863 8 q 669 -34 718 -29 q 575 -39 620 -39 m 534 1124 q 494 1131 513 1124 q 461 1153 472 1141 q 441 1183 447 1166 q 433 1219 433 1201 q 441 1256 433 1237 q 463 1289 447 1273 q 494 1310 473 1299 q 534 1318 515 1318 q 575 1310 554 1318 q 606 1288 593 1300 q 627 1256 619 1274 q 634 1219 634 1238 q 627 1183 634 1200 q 606 1152 619 1164 q 574 1131 594 1141 q 534 1124 555 1124 z "},"":{"ha":748,"x_min":25,"x_max":680,"o":"m 524 149 l 524 517 q 459 557 502 537 q 386 579 417 578 l 384 579 q 363 575 374 579 q 315 557 339 566 q 267 539 291 548 q 246 526 254 534 q 193 423 207 484 q 182 330 182 376 q 183 300 182 315 q 234 147 191 205 q 338 71 276 88 q 385 64 361 64 q 400 65 393 64 q 431 73 412 66 q 479 90 446 78 q 523 106 512 102 l 523 149 l 524 149 m 523 38 l 361 -22 q 318 -31 336 -31 l 290 -31 q 112 52 185 -25 q 28 243 38 131 q 25 298 25 271 q 30 368 25 334 q 77 488 39 429 q 140 555 95 520 q 178 575 157 566 q 287 616 233 595 q 397 656 342 636 q 425 662 412 662 l 429 662 q 541 639 475 660 q 549 635 547 637 q 583 623 562 630 q 593 621 589 621 q 600 623 597 621 q 618 641 613 634 q 642 652 627 652 q 655 650 649 652 q 680 624 680 641 l 680 -122 q 645 -270 680 -239 q 547 -323 610 -301 l 361 -393 q 318 -402 336 -402 q 289 -401 300 -402 q 111 -317 186 -398 q 45 -207 72 -275 q 197 -149 118 -178 q 234 -224 214 -197 q 338 -300 277 -282 q 384 -306 361 -306 q 400 -305 393 -306 q 431 -298 413 -304 q 451 -290 438 -295 q 478 -280 465 -286 q 513 -222 503 -268 q 524 -161 524 -176 l 523 38 m 352 772 q 313 780 333 772 q 279 801 295 785 q 259 831 264 817 q 252 867 252 849 q 259 905 252 886 q 279 935 265 921 q 312 958 291 947 q 352 966 333 966 q 393 958 372 966 q 424 937 413 947 q 446 905 437 923 q 452 867 452 887 q 446 831 452 848 q 425 800 438 814 q 391 779 409 787 q 352 772 372 772 z "},"":{"ha":1060,"x_min":28,"x_max":1049,"o":"m 472 -48 l 543 -48 q 533 -90 533 -78 q 544 -117 533 -106 q 594 -161 568 -139 q 637 -254 637 -198 l 637 -260 q 538 -336 634 -328 l 527 -336 q 418 -313 484 -336 l 398 -222 q 486 -267 463 -267 q 519 -256 503 -267 q 534 -233 534 -247 q 503 -183 534 -213 q 462 -132 480 -161 q 452 -100 452 -117 q 472 -48 452 -79 m 575 -39 q 194 98 360 -39 q 28 475 28 235 q 190 851 28 709 q 575 994 351 994 q 746 976 655 994 q 926 901 836 958 l 909 750 q 878 726 903 726 l 876 726 q 843 754 857 728 q 740 873 801 844 q 575 902 679 902 q 318 801 431 902 q 205 475 205 701 q 311 198 205 332 q 576 58 418 65 q 606 57 592 57 q 729 76 680 57 q 825 165 787 98 l 825 290 q 811 311 825 304 q 754 337 794 321 q 715 376 715 353 q 746 404 715 404 l 1018 404 q 1049 376 1049 404 q 1015 337 1049 349 q 981 290 981 325 l 981 14 q 768 -16 863 8 q 669 -34 718 -29 q 575 -39 620 -39 z "},"":{"ha":748,"x_min":25,"x_max":680,"o":"m 524 149 l 524 517 q 459 557 502 537 q 386 579 417 578 l 384 579 q 363 575 374 579 q 315 557 339 566 q 267 539 291 548 q 246 526 254 534 q 193 423 207 484 q 182 330 182 376 q 183 300 182 315 q 234 147 191 205 q 338 71 276 88 q 385 64 361 64 q 400 65 393 64 q 431 73 412 66 q 479 90 446 78 q 523 106 512 102 l 523 149 l 524 149 m 523 38 l 361 -22 q 318 -31 336 -31 l 290 -31 q 112 52 185 -25 q 28 243 38 131 q 25 298 25 271 q 30 368 25 334 q 77 488 39 429 q 140 555 95 520 q 178 575 157 566 q 287 616 233 595 q 397 656 342 636 q 425 662 412 662 l 429 662 q 541 639 475 660 q 549 635 547 637 q 583 623 562 630 q 593 621 589 621 q 600 623 597 621 q 618 641 613 634 q 642 652 627 652 q 655 650 649 652 q 680 624 680 641 l 680 -122 q 645 -270 680 -239 q 547 -323 610 -301 l 361 -393 q 318 -402 336 -402 q 289 -401 300 -402 q 111 -317 186 -398 q 45 -207 72 -275 q 197 -149 118 -178 q 234 -224 214 -197 q 338 -300 277 -282 q 384 -306 361 -306 q 400 -305 393 -306 q 431 -298 413 -304 q 451 -290 438 -295 q 478 -280 465 -286 q 513 -222 503 -268 q 524 -161 524 -176 l 523 38 m 330 776 q 257 845 257 793 q 260 867 257 855 l 273 920 q 289 953 277 935 q 309 985 300 971 q 448 1088 356 1055 q 488 1097 471 1097 q 528 1077 517 1097 q 532 1063 532 1070 q 517 1040 532 1050 q 480 1023 500 1028 q 401 970 416 1004 q 454 898 454 949 q 452 878 454 888 l 437 825 q 397 780 429 794 q 358 772 378 772 q 330 776 344 772 z "},"":{"ha":1111,"x_min":88,"x_max":1076,"o":"m 312 852 l 312 549 l 851 549 l 851 852 q 817 899 851 887 q 783 938 783 911 q 814 966 783 966 l 1044 966 q 1076 938 1076 966 q 1041 899 1076 911 q 1007 852 1007 887 l 1007 99 q 1041 52 1007 64 q 1076 14 1076 40 q 1044 -14 1076 -14 l 814 -14 q 783 14 783 -14 q 817 52 783 40 q 851 99 851 64 l 851 459 l 312 459 l 312 99 q 346 52 312 64 q 380 14 380 40 q 349 -14 380 -14 l 119 -14 q 88 14 88 -14 q 122 52 88 40 q 156 99 156 64 l 156 852 q 122 899 156 887 q 88 938 88 911 q 119 966 88 966 l 349 966 q 380 938 380 966 q 346 899 380 911 q 312 852 312 887 m 359 1042 l 532 1304 l 631 1304 l 804 1042 l 730 1042 l 582 1176 l 433 1042 l 359 1042 z "},"":{"ha":819,"x_min":39,"x_max":787,"o":"m 262 99 q 296 52 262 64 q 330 14 330 40 q 300 -14 330 -14 l 70 -14 q 39 14 39 -14 q 73 52 39 40 q 106 99 106 64 l 106 852 q 73 899 106 887 q 39 938 39 911 q 69 966 39 966 q 154 979 111 968 q 262 1013 196 990 l 262 600 q 304 616 276 605 q 359 635 333 627 q 493 665 424 659 q 512 666 503 666 q 632 623 576 666 q 720 343 720 556 l 720 99 q 753 52 720 64 q 787 14 787 40 q 757 -14 787 -14 l 592 -14 q 564 9 564 -14 l 564 343 q 506 543 564 487 q 422 577 471 577 q 358 566 393 577 q 320 552 343 560 q 281 536 298 543 q 262 530 265 531 l 262 99 m 271 730 l 444 992 l 543 992 l 716 730 l 642 730 l 494 865 l 345 730 l 271 730 z "},"":{"ha":1111,"x_min":88,"x_max":1076,"o":"m 312 852 l 312 805 l 851 805 l 851 852 q 817 899 851 887 q 783 938 783 911 q 814 966 783 966 l 1044 966 q 1076 938 1076 966 q 1041 899 1076 911 q 1007 852 1007 887 l 1007 805 l 1034 805 q 1069 782 1069 805 l 1069 739 q 1034 715 1069 715 l 1007 715 l 1007 99 q 1041 52 1007 64 q 1076 14 1076 40 q 1044 -14 1076 -14 l 814 -14 q 783 14 783 -14 q 817 52 783 40 q 851 99 851 64 l 851 459 l 312 459 l 312 99 q 346 52 312 64 q 380 14 380 40 q 349 -14 380 -14 l 119 -14 q 88 14 88 -14 q 122 52 88 40 q 156 99 156 64 l 156 715 l 129 715 q 94 739 94 715 l 94 782 q 129 805 94 805 l 156 805 l 156 852 q 122 899 156 887 q 88 938 88 911 q 119 966 88 966 l 349 966 q 380 938 380 966 q 346 899 380 911 q 312 852 312 887 m 851 715 l 312 715 l 312 549 l 851 549 l 851 715 z "},"":{"ha":808,"x_min":-17,"x_max":782,"o":"m 255 1013 l 255 805 l 441 805 q 467 782 467 805 l 467 739 q 441 715 467 715 l 255 715 l 255 604 l 372 648 q 459 665 416 665 q 483 664 471 665 q 580 635 538 658 q 683 526 655 592 q 710 290 710 459 l 710 98 q 746 51 711 63 q 782 13 782 39 q 751 -14 782 -14 l 587 -14 q 562 13 562 -14 l 562 353 q 498 544 562 482 q 410 581 460 581 q 344 568 380 581 l 255 534 l 255 99 q 289 52 255 64 q 323 14 323 40 q 292 -14 323 -14 l 62 -14 q 31 14 31 -14 q 65 52 31 40 q 99 99 99 64 l 99 715 l 9 715 q -17 739 -17 715 l -17 782 q 9 805 -17 805 l 99 805 l 99 852 q 65 899 99 887 q 31 938 31 911 q 62 966 31 966 q 146 979 104 968 q 255 1013 189 990 z "},"":{"ha":468,"x_min":1,"x_max":466,"o":"m 312 852 l 312 100 q 346 52 312 64 q 380 14 380 40 q 349 -14 380 -14 l 119 -14 q 88 14 88 -14 q 122 52 88 40 q 156 99 156 64 l 156 852 q 122 900 156 888 q 88 938 88 911 q 119 966 88 966 l 349 966 q 380 938 380 966 q 346 900 380 911 q 312 852 312 888 m 463 1224 q 406 1109 433 1145 q 333 1065 373 1065 q 203 1127 272 1065 q 149 1154 172 1154 q 114 1139 132 1154 q 100 1126 108 1133 q 85 1109 93 1120 q 56 1061 69 1088 q 33 1046 49 1046 q 13 1054 22 1046 q 1 1076 1 1062 q 5 1097 1 1085 q 53 1201 28 1145 q 139 1257 78 1257 q 273 1194 207 1257 q 324 1166 300 1166 q 368 1186 345 1166 q 410 1253 391 1204 q 435 1271 416 1271 q 445 1269 441 1271 q 466 1243 463 1265 l 466 1239 q 463 1224 466 1231 z "},"":{"ha":402,"x_min":-26,"x_max":437,"o":"m 283 99 q 317 52 283 64 q 351 14 351 40 q 320 -14 351 -14 l 90 -14 q 59 14 59 -14 q 93 52 59 40 q 127 99 127 64 l 127 533 q 93 579 127 567 q 59 618 59 591 q 90 646 59 646 q 174 659 132 648 q 283 693 216 671 l 283 99 m 435 916 q 378 801 408 841 q 304 758 345 758 q 175 819 243 758 q 120 846 144 846 q 85 831 103 846 q 72 819 79 825 q 56 801 64 812 q 29 753 40 780 q 5 738 21 738 q -16 747 -7 738 q -26 768 -26 755 q -22 789 -26 777 q 25 893 0 837 q 111 949 50 949 q 244 886 178 949 q 296 859 272 859 q 339 878 316 859 q 381 944 361 897 q 407 962 387 962 l 412 962 q 437 935 434 958 l 437 931 q 435 916 437 923 z "},"":{"ha":468,"x_min":7,"x_max":461,"o":"m 312 852 l 312 100 q 346 52 312 64 q 380 14 380 40 q 349 -14 380 -14 l 119 -14 q 88 14 88 -14 q 122 52 88 40 q 156 99 156 64 l 156 852 q 122 900 156 888 q 88 938 88 911 q 119 966 88 966 l 349 966 q 380 938 380 966 q 346 900 380 911 q 312 852 312 888 m 31 1169 l 437 1169 q 461 1148 461 1169 l 461 1090 q 437 1069 461 1069 l 31 1069 q 7 1090 7 1069 l 7 1148 q 31 1169 7 1169 z "},"":{"ha":402,"x_min":-21,"x_max":433,"o":"m 283 99 q 317 52 283 64 q 351 14 351 40 q 320 -14 351 -14 l 90 -14 q 59 14 59 -14 q 93 52 59 40 q 127 99 127 64 l 127 533 q 93 579 127 567 q 59 618 59 591 q 90 646 59 646 q 174 659 132 648 q 283 693 216 671 l 283 99 m 2 927 l 409 927 q 433 907 433 927 l 433 848 q 409 827 433 827 l 2 827 q -21 848 -21 827 l -21 907 q 2 927 -21 927 z "},"":{"ha":468,"x_min":11,"x_max":457,"o":"m 312 852 l 312 100 q 346 52 312 64 q 380 14 380 40 q 349 -14 380 -14 l 119 -14 q 88 14 88 -14 q 122 52 88 40 q 156 99 156 64 l 156 852 q 122 900 156 888 q 88 938 88 911 q 119 966 88 966 l 349 966 q 380 938 380 966 q 346 900 380 911 q 312 852 312 888 m 234 1019 q 56 1102 117 1019 q 11 1234 15 1156 l 11 1236 q 46 1266 11 1266 q 81 1237 73 1266 q 233 1135 106 1137 l 237 1135 q 387 1237 361 1135 q 422 1266 395 1266 q 457 1236 457 1266 l 457 1234 q 412 1102 452 1156 q 234 1019 351 1019 z "},"":{"ha":402,"x_min":-17,"x_max":429,"o":"m 283 99 q 317 52 283 64 q 351 14 351 40 q 320 -14 351 -14 l 90 -14 q 59 14 59 -14 q 93 52 59 40 q 127 99 127 64 l 127 533 q 93 579 127 567 q 59 618 59 591 q 90 646 59 646 q 174 659 132 648 q 283 693 216 671 l 283 99 m 205 743 q 28 825 88 743 q -17 958 -14 880 l -17 959 q 18 989 -17 989 q 52 960 44 989 q 205 859 79 859 l 208 859 q 358 960 332 859 q 393 989 366 989 q 429 959 429 989 l 429 958 q 384 825 424 880 q 205 743 322 743 z "},"":{"ha":468,"x_min":88,"x_max":380,"o":"m 261 -21 q 281 -73 281 -52 q 271 -104 281 -90 q 231 -156 253 -134 q 199 -207 199 -186 q 214 -229 199 -220 q 247 -240 230 -240 q 336 -196 271 -240 l 315 -286 q 207 -309 249 -309 l 196 -309 q 96 -233 99 -301 l 96 -227 q 139 -134 96 -171 q 189 -90 165 -112 q 201 -61 201 -79 q 191 -21 201 -50 l 261 -21 m 312 852 l 312 100 q 346 52 312 64 q 380 14 380 40 q 349 -14 380 -14 l 119 -14 q 88 14 88 -14 q 122 52 88 40 q 156 99 156 64 l 156 852 q 122 900 156 888 q 88 938 88 911 q 119 966 88 966 l 349 966 q 380 938 380 966 q 346 900 380 911 q 312 852 312 888 z "},"":{"ha":402,"x_min":59,"x_max":351,"o":"m 230 -15 q 250 -66 250 -45 q 240 -98 250 -84 q 199 -150 222 -128 q 168 -201 168 -180 q 182 -223 168 -214 q 216 -234 199 -234 q 304 -190 239 -234 l 284 -280 q 176 -302 218 -302 l 165 -302 q 64 -227 68 -295 l 64 -221 q 108 -128 64 -165 q 158 -83 134 -106 q 170 -55 170 -73 q 160 -15 170 -44 l 230 -15 m 283 99 q 317 52 283 64 q 351 14 351 40 q 320 -14 351 -14 l 90 -14 q 59 14 59 -14 q 93 52 59 40 q 127 99 127 64 l 127 533 q 93 579 127 567 q 59 618 59 591 q 90 646 59 646 q 174 659 132 648 q 283 693 216 671 l 283 99 z "},"":{"ha":468,"x_min":88,"x_max":380,"o":"m 312 852 l 312 100 q 346 52 312 64 q 380 14 380 40 q 349 -14 380 -14 l 119 -14 q 88 14 88 -14 q 122 52 88 40 q 156 99 156 64 l 156 852 q 122 900 156 888 q 88 938 88 911 q 119 966 88 966 l 349 966 q 380 938 380 966 q 346 900 380 911 q 312 852 312 888 m 234 1124 q 193 1132 211 1124 q 162 1152 177 1139 q 140 1183 149 1164 q 134 1219 134 1200 q 140 1257 134 1239 q 162 1288 149 1276 q 193 1309 174 1300 q 234 1318 211 1318 q 276 1309 256 1318 q 307 1287 293 1300 q 328 1257 320 1273 q 334 1219 334 1239 q 328 1183 334 1200 q 307 1152 320 1166 q 275 1132 291 1139 q 234 1124 256 1124 z "},"":{"ha":402,"x_min":59,"x_max":351,"o":"m 283 99 q 317 52 283 64 q 351 14 351 40 q 320 -14 351 -14 l 90 -14 q 59 14 59 -14 q 93 52 59 40 q 127 99 127 64 l 127 533 q 93 579 127 567 q 59 618 59 591 q 90 646 59 646 q 174 659 132 648 q 283 693 216 671 l 283 99 z "},"":{"ha":930,"x_min":88,"x_max":837,"o":"m 312 852 l 312 100 q 346 52 312 64 q 380 14 380 40 q 349 -14 380 -14 l 119 -14 q 88 14 88 -14 q 122 52 88 40 q 156 99 156 64 l 156 852 q 122 900 156 888 q 88 938 88 911 q 119 966 88 966 l 349 966 q 380 938 380 966 q 346 900 380 911 q 312 852 312 888 m 769 852 l 769 -101 q 743 -205 765 -163 q 656 -273 715 -252 q 564 -286 616 -285 q 528 -287 547 -287 q 447 -285 490 -287 q 416 -257 416 -285 q 454 -221 416 -224 q 525 -208 491 -218 q 586 -168 558 -197 q 613 -64 613 -139 l 613 852 q 579 899 613 887 q 545 938 545 911 q 576 966 545 966 l 806 966 q 837 938 837 966 q 803 899 837 911 q 769 852 769 887 z "},"":{"ha":703,"x_min":59,"x_max":689,"o":"m 283 99 q 317 52 283 64 q 351 14 351 40 q 320 -14 351 -14 l 90 -14 q 59 14 59 -14 q 93 52 59 40 q 127 99 127 64 l 127 533 q 93 579 127 567 q 59 618 59 591 q 90 646 59 646 q 174 659 132 648 q 283 693 216 671 l 283 99 m 598 963 q 689 875 689 963 q 598 786 689 786 q 507 875 507 786 q 598 963 507 963 m 198 963 q 289 875 289 963 q 198 786 289 786 q 107 875 107 786 q 198 963 107 963 m 686 7 q 668 -189 686 -123 q 606 -302 650 -254 q 441 -393 541 -368 l 441 -334 q 493 -293 472 -315 q 526 -232 513 -271 q 533 -159 533 -208 q 534 4 534 -111 l 534 518 q 500 563 534 551 q 467 601 467 575 q 498 628 467 628 q 579 641 538 630 q 686 674 621 652 l 686 7 z "},"":{"ha":463,"x_min":12,"x_max":456,"o":"m 12 1042 l 184 1304 l 283 1304 l 456 1042 l 382 1042 l 234 1176 l 85 1042 l 12 1042 m 309 122 q 290 -80 309 -13 q 225 -196 271 -147 q 58 -290 161 -262 l 58 -230 q 110 -188 89 -211 q 144 -125 132 -164 q 152 -50 151 -99 q 152 118 152 0 l 152 853 q 118 900 152 888 q 84 939 84 912 q 115 966 84 966 l 345 966 q 376 939 376 966 q 342 900 376 912 q 309 853 309 888 l 309 122 z "},"":{"ha":325,"x_min":-70,"x_max":375,"o":"m -70 730 l 103 992 l 202 992 l 375 730 l 301 730 l 153 865 l 5 730 l -70 730 m 273 7 q 255 -189 273 -123 q 192 -302 237 -254 q 28 -393 127 -368 l 28 -334 q 79 -293 58 -315 q 112 -232 100 -271 q 120 -159 119 -208 q 120 4 120 -111 l 120 518 q 87 563 120 551 q 54 601 54 575 q 84 628 54 628 q 166 641 125 630 q 273 674 207 652 l 273 7 z "},"":{"ha":1008,"x_min":88,"x_max":1001,"o":"m 437 3 l 508 3 q 498 -39 498 -27 q 509 -66 498 -56 q 559 -111 533 -88 q 603 -203 603 -147 l 603 -210 q 503 -285 600 -277 l 492 -285 q 384 -262 450 -285 l 363 -172 q 452 -216 428 -216 q 485 -205 469 -216 q 499 -182 499 -196 q 469 -132 499 -162 q 427 -81 446 -111 q 418 -49 418 -66 q 437 3 418 -28 m 312 543 l 637 850 q 726 935 690 900 q 788 965 755 965 q 821 957 805 965 l 894 922 q 913 894 913 910 q 910 881 913 888 l 869 766 l 804 793 q 763 803 781 803 q 714 782 736 803 l 450 524 l 951 62 q 982 41 963 50 q 1001 14 1001 33 q 970 -14 1001 -14 l 741 -14 q 709 14 709 -14 q 722 35 709 24 q 730 45 730 43 q 711 66 730 49 l 312 434 l 312 99 q 346 52 312 64 q 380 14 380 40 q 349 -14 380 -14 l 119 -14 q 88 14 88 -14 q 122 52 88 40 q 156 99 156 64 l 156 852 q 122 899 156 887 q 88 938 88 911 q 119 966 88 966 l 349 966 q 380 938 380 966 q 346 899 380 911 q 312 852 312 887 l 312 543 z "},"":{"ha":789,"x_min":52,"x_max":789,"o":"m 372 8 l 443 8 q 433 -33 433 -22 q 444 -60 433 -50 q 494 -105 468 -83 q 538 -198 538 -142 l 538 -204 q 438 -279 534 -272 l 427 -279 q 319 -257 385 -279 l 298 -166 q 387 -211 363 -211 q 420 -200 404 -211 q 434 -177 434 -191 q 404 -127 434 -157 q 362 -75 380 -105 q 353 -43 353 -61 q 372 8 353 -22 m 276 294 l 276 99 q 310 52 276 64 q 344 14 344 40 q 313 -14 344 -14 l 83 -14 q 52 14 52 -14 q 86 52 52 40 q 120 99 120 64 l 120 852 q 86 899 120 887 q 52 938 52 911 q 83 966 52 966 q 167 979 125 968 q 276 1013 210 990 l 276 406 l 487 575 q 562 630 530 610 q 607 644 585 644 q 640 635 624 644 l 691 604 q 706 581 706 593 q 703 569 706 574 l 664 482 l 612 509 q 582 517 596 517 q 550 505 566 517 q 388 382 452 432 l 614 161 q 704 83 685 92 q 728 78 716 78 q 738 79 732 78 q 752 81 745 81 q 787 61 777 81 q 789 50 789 54 q 773 28 789 35 l 730 8 q 656 -9 690 -9 q 611 -1 632 -9 q 525 56 564 18 l 279 295 q 282 298 282 298 q 276 294 281 298 z "},"":{"ha":780,"x_min":60,"x_max":793,"o":"m 283 707 l 283 409 l 490 575 q 566 630 537 612 q 610 644 588 644 q 644 635 627 644 l 696 603 q 710 580 710 593 q 707 570 710 576 l 667 481 l 616 509 q 586 517 602 517 q 554 505 570 517 q 391 382 462 438 l 618 161 q 708 83 689 92 q 732 78 720 78 q 743 79 735 78 q 755 80 749 80 q 791 61 783 80 q 793 51 793 56 q 777 29 793 36 l 734 8 q 660 -9 694 -9 q 614 -1 635 -9 q 529 56 568 18 q 283 298 290 298 l 283 99 q 317 52 283 64 q 351 14 351 40 q 321 -14 351 -14 l 91 -14 q 60 14 60 -14 q 104 56 60 40 q 127 99 127 64 l 127 542 q 94 591 127 577 q 60 631 60 605 q 90 659 60 659 q 175 672 132 661 q 283 707 217 683 z "},"":{"ha":848,"x_min":87,"x_max":808,"o":"m 313 77 l 585 77 q 681 123 640 77 q 744 195 722 168 q 777 216 762 216 q 808 189 808 216 q 806 172 808 178 l 754 -14 l 119 -14 q 88 14 88 -14 q 122 52 88 40 q 156 99 156 64 l 156 852 q 122 899 156 887 q 88 938 88 911 q 119 966 88 966 l 349 966 q 380 938 380 966 q 346 899 380 911 q 312 852 312 887 l 313 77 m 170 1047 q 113 1026 136 1026 q 104 1027 106 1026 q 87 1046 87 1029 q 114 1088 87 1059 l 195 1172 q 256 1235 212 1189 q 319 1293 300 1281 q 357 1303 337 1303 q 388 1297 372 1303 q 424 1241 424 1282 q 408 1201 424 1217 q 374 1173 391 1184 l 170 1047 z "},"":{"ha":404,"x_min":60,"x_max":424,"o":"m 283 1013 l 283 99 q 317 52 283 64 q 351 14 351 40 q 321 -14 351 -14 l 91 -14 q 60 14 60 -14 q 94 52 60 40 q 127 99 127 64 l 127 852 q 94 899 127 887 q 60 938 60 911 q 90 966 60 966 q 175 979 132 968 q 283 1013 217 990 m 170 1047 q 113 1026 136 1026 q 104 1027 106 1026 q 87 1046 87 1029 q 114 1088 87 1059 l 195 1172 q 256 1235 212 1189 q 319 1293 300 1281 q 357 1303 337 1303 q 388 1297 372 1303 q 424 1241 424 1282 q 408 1201 424 1217 q 374 1173 391 1184 l 170 1047 z "},"":{"ha":848,"x_min":88,"x_max":808,"o":"m 372 -20 l 443 -20 q 433 -62 433 -50 q 444 -89 433 -79 q 494 -134 468 -111 q 538 -227 538 -170 l 538 -233 q 438 -308 534 -300 l 427 -308 q 319 -286 385 -308 l 298 -195 q 387 -239 363 -239 q 420 -229 404 -239 q 434 -205 434 -219 q 404 -155 434 -185 q 362 -104 380 -134 q 353 -72 353 -90 q 372 -20 353 -51 m 313 77 l 585 77 q 681 123 640 77 q 744 195 722 168 q 777 216 762 216 q 808 189 808 216 q 806 172 808 178 l 754 -14 l 119 -14 q 88 14 88 -14 q 122 52 88 40 q 156 99 156 64 l 156 852 q 122 899 156 887 q 88 938 88 911 q 119 966 88 966 l 349 966 q 380 938 380 966 q 346 899 380 911 q 312 852 312 887 l 313 77 z "},"":{"ha":404,"x_min":60,"x_max":351,"o":"m 169 -21 l 239 -21 q 230 -62 230 -51 q 241 -90 230 -79 q 291 -134 264 -112 q 334 -227 334 -171 l 334 -233 q 235 -309 331 -301 l 224 -309 q 115 -286 181 -309 l 95 -195 q 183 -240 159 -240 q 216 -229 200 -240 q 231 -206 231 -220 q 200 -156 231 -186 q 159 -104 177 -134 q 149 -73 149 -90 q 169 -21 149 -52 m 283 1013 l 283 99 q 317 52 283 64 q 351 14 351 40 q 321 -14 351 -14 l 91 -14 q 60 14 60 -14 q 94 52 60 40 q 127 99 127 64 l 127 852 q 94 899 127 887 q 60 938 60 911 q 90 966 60 966 q 175 979 132 968 q 283 1013 217 990 z "},"":{"ha":848,"x_min":88,"x_max":808,"o":"m 313 77 l 585 77 q 681 123 640 77 q 744 195 722 168 q 777 216 762 216 q 808 189 808 216 q 806 172 808 178 l 754 -14 l 119 -14 q 88 14 88 -14 q 122 52 88 40 q 156 99 156 64 l 156 852 q 122 899 156 887 q 88 938 88 911 q 119 966 88 966 l 349 966 q 380 938 380 966 q 346 899 380 911 q 312 852 312 887 l 313 77 m 467 1105 l 471 1105 q 559 1035 556 1105 l 560 979 q 554 943 560 964 q 544 909 548 923 q 439 772 517 829 q 387 751 409 751 q 359 762 370 751 q 349 781 349 771 q 357 801 349 791 q 388 827 370 815 q 452 905 444 862 l 464 905 q 378 976 378 905 l 376 1031 l 376 1034 q 467 1105 376 1104 z "},"":{"ha":451,"x_min":35,"x_max":601,"o":"m 134 506 q 167 490 150 500 q 175 483 172 487 l 175 545 q 134 506 140 517 m 175 365 q 114 343 157 345 l 110 343 q 36 403 37 343 l 35 447 l 35 450 q 40 477 35 462 q 48 504 44 493 q 82 560 57 530 q 175 642 107 590 l 175 852 q 141 899 175 887 q 107 938 107 911 q 138 966 107 966 q 222 979 180 968 q 331 1013 264 990 l 331 756 q 458 858 425 823 q 492 905 490 892 l 505 905 q 418 976 419 905 l 417 1031 l 417 1034 q 507 1105 417 1104 l 512 1105 q 600 1035 597 1105 l 601 979 q 595 943 601 964 q 585 909 589 923 q 528 817 571 867 q 336 664 485 766 q 331 661 333 662 l 331 99 q 365 52 331 64 q 399 14 399 40 q 368 -14 399 -14 l 138 -14 q 107 14 107 -14 q 141 52 107 40 q 175 99 175 64 l 175 365 z "},"":{"ha":848,"x_min":88,"x_max":808,"o":"m 313 77 l 585 77 q 681 123 640 77 q 744 195 722 168 q 777 216 762 216 q 808 189 808 216 q 806 172 808 178 l 754 -14 l 119 -14 q 88 14 88 -14 q 122 52 88 40 q 156 99 156 64 l 156 852 q 122 899 156 887 q 88 938 88 911 q 119 966 88 966 l 349 966 q 380 938 380 966 q 346 899 380 911 q 312 852 312 887 l 313 77 m 452 379 q 412 387 431 379 q 380 408 391 396 q 359 438 368 418 q 352 475 352 455 q 359 511 352 494 q 380 543 368 532 q 412 565 393 555 q 452 573 433 573 q 493 565 472 573 q 525 543 511 555 q 546 511 538 529 q 553 475 553 494 q 546 438 553 455 q 524 407 538 421 q 492 387 512 395 q 452 379 473 379 z "},"":{"ha":510,"x_min":60,"x_max":553,"o":"m 283 1013 l 283 99 q 317 52 283 64 q 351 14 351 40 q 321 -14 351 -14 l 91 -14 q 60 14 60 -14 q 94 52 60 40 q 127 99 127 64 l 127 852 q 94 899 127 887 q 60 938 60 911 q 90 966 60 966 q 175 979 132 968 q 283 1013 217 990 m 452 379 q 412 387 431 379 q 380 408 391 396 q 359 438 368 418 q 352 475 352 455 q 359 511 352 494 q 380 543 368 532 q 412 565 393 555 q 452 573 433 573 q 493 565 472 573 q 525 543 511 555 q 546 511 538 529 q 553 475 553 494 q 546 438 553 455 q 524 407 538 421 q 492 387 512 395 q 452 379 473 379 z "},"":{"ha":848,"x_min":-10,"x_max":808,"o":"m 313 77 l 585 77 q 681 123 640 77 q 744 195 722 168 q 777 216 762 216 q 808 189 808 216 q 806 172 808 178 l 754 -14 l 119 -14 q 88 14 88 -14 q 122 52 88 40 q 156 99 156 64 l 156 549 l 36 517 q 25 516 30 516 q -2 536 3 516 l -9 562 q -10 570 -10 566 q 12 594 -10 587 l 156 632 l 156 852 q 122 899 156 887 q 88 938 88 911 q 119 966 88 966 l 349 966 q 380 938 380 966 q 346 899 380 911 q 312 852 312 887 l 312 675 l 454 713 l 460 713 q 490 693 483 713 l 497 667 q 498 659 498 663 q 475 635 498 640 l 312 591 l 313 77 z "},"":{"ha":510,"x_min":-10,"x_max":498,"o":"m 283 1013 l 283 667 l 454 713 l 460 713 q 490 693 483 713 l 497 667 q 498 659 498 663 q 475 635 498 640 l 283 584 l 283 99 q 317 52 283 64 q 351 14 351 40 q 321 -14 351 -14 l 91 -14 q 60 14 60 -14 q 94 52 60 40 q 127 99 127 64 l 127 541 l 36 517 q 25 516 30 516 q -2 536 3 516 l -9 562 q -10 570 -10 566 q 12 594 -10 587 l 127 625 l 127 852 q 94 899 127 887 q 60 938 60 911 q 90 966 60 966 q 175 979 132 968 q 283 1013 217 990 z "},"":{"ha":1115,"x_min":74,"x_max":1079,"o":"m 911 184 l 911 852 q 878 899 911 887 q 844 938 844 911 q 875 966 844 966 l 1048 966 q 1079 938 1079 966 q 1045 899 1079 911 q 1011 852 1011 887 l 1010 -47 l 863 -12 l 241 760 l 241 99 q 275 52 241 64 q 309 14 309 40 q 277 -14 309 -14 l 105 -14 q 74 14 74 -14 q 108 52 74 40 q 142 99 142 64 l 142 852 q 108 899 142 887 q 74 938 74 911 q 105 966 74 966 l 289 966 l 911 184 m 490 1047 q 433 1026 456 1026 q 425 1027 427 1026 q 407 1046 407 1029 q 434 1088 407 1059 l 515 1172 q 576 1235 532 1189 q 639 1293 621 1281 q 677 1303 657 1303 q 708 1297 692 1303 q 744 1241 744 1282 q 728 1201 744 1217 q 694 1173 711 1184 l 490 1047 z "},"":{"ha":808,"x_min":31,"x_max":782,"o":"m 255 670 l 255 604 l 372 648 q 459 665 416 665 q 483 664 471 665 q 580 635 538 658 q 683 526 655 592 q 710 290 710 459 l 710 98 q 746 51 711 63 q 782 13 782 39 q 751 -14 782 -14 l 587 -14 q 562 13 562 -14 l 562 353 q 498 544 562 482 q 410 581 460 581 q 344 568 380 581 l 255 534 l 255 99 q 289 52 255 64 q 323 14 323 40 q 292 -14 323 -14 l 62 -14 q 31 14 31 -14 q 65 52 31 40 q 99 99 99 64 l 99 510 q 65 556 99 545 q 31 595 31 568 q 62 623 31 623 q 146 636 104 625 q 255 670 189 648 m 320 751 q 263 730 286 730 q 254 732 256 730 q 237 749 237 734 q 264 792 237 764 l 346 876 q 407 939 362 893 q 469 997 451 985 q 507 1008 488 1008 q 539 1001 523 1008 q 574 945 574 985 q 558 905 574 922 q 526 878 542 888 l 320 751 z "},"":{"ha":1115,"x_min":74,"x_max":1079,"o":"m 478 9 l 549 9 q 539 -33 539 -21 q 550 -60 539 -50 q 600 -104 574 -82 q 644 -197 644 -141 l 644 -203 q 544 -279 640 -271 l 533 -279 q 425 -256 490 -279 l 404 -165 q 492 -210 469 -210 q 526 -199 509 -210 q 540 -176 540 -190 q 509 -126 540 -156 q 468 -75 486 -104 q 458 -43 458 -60 q 478 9 458 -22 m 911 184 l 911 852 q 878 899 911 887 q 844 938 844 911 q 875 966 844 966 l 1048 966 q 1079 938 1079 966 q 1045 899 1079 911 q 1011 852 1011 887 l 1010 -47 l 863 -12 l 241 760 l 241 99 q 275 52 241 64 q 309 14 309 40 q 277 -14 309 -14 l 105 -14 q 74 14 74 -14 q 108 52 74 40 q 142 99 142 64 l 142 852 q 108 899 142 887 q 74 938 74 911 q 105 966 74 966 l 289 966 l 911 184 z "},"":{"ha":808,"x_min":31,"x_max":782,"o":"m 360 9 l 431 9 q 421 -33 421 -21 q 432 -60 421 -50 q 482 -104 456 -82 q 526 -197 526 -141 l 526 -203 q 426 -279 522 -271 l 415 -279 q 307 -256 372 -279 l 286 -165 q 374 -210 351 -210 q 408 -199 391 -210 q 422 -176 422 -190 q 391 -126 422 -156 q 350 -75 368 -104 q 340 -43 340 -60 q 360 9 340 -22 m 255 670 l 255 604 l 372 648 q 459 665 416 665 q 483 664 471 665 q 580 635 538 658 q 683 526 655 592 q 710 290 710 459 l 710 98 q 746 51 711 63 q 782 13 782 39 q 751 -14 782 -14 l 587 -14 q 562 13 562 -14 l 562 353 q 498 544 562 482 q 410 581 460 581 q 344 568 380 581 l 255 534 l 255 99 q 289 52 255 64 q 323 14 323 40 q 292 -14 323 -14 l 62 -14 q 31 14 31 -14 q 65 52 31 40 q 99 99 99 64 l 99 510 q 65 556 99 545 q 31 595 31 568 q 62 623 31 623 q 146 636 104 625 q 255 670 189 648 z "},"":{"ha":1115,"x_min":74,"x_max":1079,"o":"m 911 184 l 911 852 q 878 899 911 887 q 844 938 844 911 q 875 966 844 966 l 1048 966 q 1079 938 1079 966 q 1045 899 1079 911 q 1011 852 1011 887 l 1010 -47 l 863 -12 l 241 760 l 241 99 q 275 52 241 64 q 309 14 309 40 q 277 -14 309 -14 l 105 -14 q 74 14 74 -14 q 108 52 74 40 q 142 99 142 64 l 142 852 q 108 899 142 887 q 74 938 74 911 q 105 966 74 966 l 289 966 l 911 184 m 353 1304 l 428 1304 l 576 1169 l 725 1304 l 799 1304 l 626 1042 l 527 1042 l 353 1304 z "},"":{"ha":808,"x_min":31,"x_max":782,"o":"m 255 670 l 255 604 l 372 648 q 459 665 416 665 q 483 664 471 665 q 580 635 538 658 q 683 526 655 592 q 710 290 710 459 l 710 98 q 746 51 711 63 q 782 13 782 39 q 751 -14 782 -14 l 587 -14 q 562 13 562 -14 l 562 353 q 498 544 562 482 q 410 581 460 581 q 344 568 380 581 l 255 534 l 255 99 q 289 52 255 64 q 323 14 323 40 q 292 -14 323 -14 l 62 -14 q 31 14 31 -14 q 65 52 31 40 q 99 99 99 64 l 99 510 q 65 556 99 545 q 31 595 31 568 q 62 623 31 623 q 146 636 104 625 q 255 670 189 648 m 184 992 l 258 992 l 406 857 l 555 992 l 629 992 l 456 730 l 357 730 l 184 992 z "},"":{"ha":1002,"x_min":63,"x_max":996,"o":"m 469 670 l 469 604 l 586 648 q 673 665 630 665 q 697 664 686 665 q 794 635 752 658 q 897 526 869 592 q 924 290 924 459 l 924 98 q 961 51 925 63 q 996 13 996 39 q 965 -14 996 -14 l 801 -14 q 776 13 776 -14 l 776 353 q 712 544 776 482 q 625 581 674 581 q 558 568 594 581 l 469 534 l 469 99 q 503 52 469 64 q 537 14 537 40 q 506 -14 537 -14 l 276 -14 q 245 14 245 -14 q 279 52 245 40 q 313 99 313 64 l 313 510 q 279 556 313 545 q 245 595 245 568 q 276 623 245 623 q 360 636 318 625 q 469 670 403 648 m 168 656 q 138 635 168 635 l 127 635 q 98 656 98 635 l 63 955 l 63 958 q 117 992 63 992 l 149 992 q 202 959 202 992 l 202 955 l 168 656 z "},"":{"ha":1115,"x_min":74,"x_max":1090,"o":"m 867 241 l 867 853 q 833 900 867 888 q 799 939 799 912 q 829 966 799 966 l 1059 966 q 1090 939 1090 966 q 1057 900 1090 912 q 1023 853 1023 888 l 1023 122 q 1004 -80 1023 -13 q 939 -196 985 -147 q 772 -290 874 -262 l 772 -230 q 824 -188 803 -211 q 858 -125 846 -164 q 867 -13 867 -97 l 863 -12 l 241 760 l 241 99 q 275 52 241 64 q 309 14 309 40 q 277 -14 309 -14 l 105 -14 q 74 14 74 -14 q 108 52 74 40 q 142 99 142 64 l 142 852 q 108 899 142 887 q 74 938 74 911 q 105 966 74 966 l 289 966 l 867 241 z "},"":{"ha":810,"x_min":39,"x_max":720,"o":"m 720 8 q 701 -194 720 -127 q 637 -310 683 -261 q 469 -403 572 -377 l 469 -344 q 555 -239 535 -304 q 563 -163 563 -213 q 564 4 564 -114 l 564 343 q 506 543 564 487 q 422 577 471 577 q 358 566 393 577 q 320 552 343 560 q 281 536 298 543 q 262 530 265 531 l 262 99 q 296 52 262 64 q 330 14 330 40 q 300 -14 330 -14 l 70 -14 q 39 14 39 -14 q 73 52 39 40 q 106 99 106 64 l 106 533 q 73 579 106 567 q 39 618 39 591 q 69 646 39 646 q 154 659 111 648 q 262 693 196 671 l 262 600 q 304 616 276 605 q 359 635 333 627 q 493 665 424 659 q 512 666 503 666 q 632 623 576 666 q 720 343 720 556 l 720 8 z "},"":{"ha":1092,"x_min":16,"x_max":1082,"o":"m 548 907 q 271 781 350 907 q 191 476 191 656 q 291 171 191 296 q 548 45 391 46 l 551 45 q 804 176 704 45 q 904 472 904 310 l 904 476 q 819 774 903 642 q 548 907 736 907 m 345 1169 l 752 1169 q 776 1148 776 1169 l 776 1090 q 752 1069 776 1069 l 345 1069 q 321 1090 321 1069 l 321 1148 q 345 1169 321 1169 m 548 994 l 555 994 q 937 855 781 994 q 1082 515 1082 726 q 1080 477 1082 496 q 914 107 1066 239 q 547 -37 762 -25 q 515 -38 532 -38 q 169 97 319 -38 q 16 454 16 234 q 16 479 16 466 q 170 853 24 714 q 548 994 316 991 z "},"":{"ha":751,"x_min":25,"x_max":726,"o":"m 392 662 q 628 555 532 656 q 726 315 724 454 l 726 311 q 626 73 726 171 q 375 -31 524 -26 l 364 -31 q 126 71 226 -31 q 25 313 25 174 l 25 315 q 141 574 26 469 q 184 597 157 588 q 261 625 211 607 q 327 649 291 636 q 389 662 364 662 l 392 662 m 376 589 l 369 589 q 247 519 299 589 q 189 326 189 441 q 245 129 189 211 q 376 43 301 46 l 385 43 q 506 113 454 43 q 564 305 564 190 q 507 503 564 420 q 376 589 451 585 m 176 927 l 583 927 q 607 907 607 927 l 607 848 q 583 827 607 827 l 176 827 q 153 848 153 827 l 153 907 q 176 927 153 927 z "},"":{"ha":1092,"x_min":16,"x_max":1082,"o":"m 548 907 q 271 781 350 907 q 191 476 191 656 q 291 171 191 296 q 548 45 391 46 l 551 45 q 804 176 704 45 q 904 472 904 310 l 904 476 q 819 774 903 642 q 548 907 736 907 m 549 1019 q 370 1102 431 1019 q 326 1234 330 1156 l 326 1236 q 361 1266 326 1266 q 395 1237 387 1266 q 548 1135 421 1137 l 551 1135 q 701 1237 675 1135 q 736 1266 709 1266 q 772 1236 772 1266 l 772 1234 q 727 1102 767 1156 q 549 1019 665 1019 m 548 994 l 555 994 q 937 855 781 994 q 1082 515 1082 726 q 1080 477 1082 496 q 914 107 1066 239 q 547 -37 762 -25 q 515 -38 532 -38 q 169 97 319 -38 q 16 454 16 234 q 16 479 16 466 q 170 853 24 714 q 548 994 316 991 z "},"":{"ha":751,"x_min":25,"x_max":726,"o":"m 392 662 q 628 555 532 656 q 726 315 724 454 l 726 311 q 626 73 726 171 q 375 -31 524 -26 l 364 -31 q 126 71 226 -31 q 25 313 25 174 l 25 315 q 141 574 26 469 q 184 597 157 588 q 261 625 211 607 q 327 649 291 636 q 389 662 364 662 l 392 662 m 376 589 l 369 589 q 247 519 299 589 q 189 326 189 441 q 245 129 189 211 q 376 43 301 46 l 385 43 q 506 113 454 43 q 564 305 564 190 q 507 503 564 420 q 376 589 451 585 m 380 743 q 201 825 261 743 q 157 958 161 880 l 157 960 q 191 989 157 989 q 227 960 220 989 q 378 859 252 859 l 382 859 q 532 960 507 859 q 568 989 541 989 q 603 959 603 989 l 603 958 q 558 825 598 880 q 380 743 496 743 z "},"":{"ha":1092,"x_min":16,"x_max":1082,"o":"m 548 907 q 271 781 350 907 q 191 476 191 656 q 291 171 191 296 q 548 45 391 46 l 551 45 q 804 176 704 45 q 904 472 904 310 l 904 476 q 819 774 903 642 q 548 907 736 907 m 570 1047 q 513 1026 536 1026 q 504 1027 506 1026 q 486 1045 486 1029 q 514 1088 486 1059 l 596 1173 q 655 1235 611 1189 q 720 1293 700 1281 q 757 1303 737 1303 q 788 1297 772 1303 q 824 1241 824 1282 q 807 1201 824 1217 q 773 1173 791 1184 l 570 1047 m 355 1047 q 298 1026 321 1026 q 290 1027 292 1026 q 272 1045 272 1029 q 300 1088 272 1059 l 382 1173 q 441 1235 397 1189 q 506 1293 486 1281 q 543 1303 523 1303 q 574 1297 558 1303 q 610 1241 610 1282 q 593 1201 610 1217 q 559 1173 576 1184 l 355 1047 m 548 994 l 555 994 q 937 855 781 994 q 1082 515 1082 726 q 1080 477 1082 496 q 914 107 1066 239 q 547 -37 762 -25 q 515 -38 532 -38 q 169 97 319 -38 q 16 454 16 234 q 16 479 16 466 q 170 853 24 714 q 548 994 316 991 z "},"":{"ha":751,"x_min":25,"x_max":726,"o":"m 392 662 q 628 555 532 656 q 726 315 724 454 l 726 311 q 626 73 726 171 q 375 -31 524 -26 l 364 -31 q 126 71 226 -31 q 25 313 25 174 l 25 315 q 141 574 26 469 q 184 597 157 588 q 261 625 211 607 q 327 649 291 636 q 389 662 364 662 l 392 662 m 376 589 l 369 589 q 247 519 299 589 q 189 326 189 441 q 245 129 189 211 q 376 43 301 46 l 385 43 q 506 113 454 43 q 564 305 564 190 q 507 503 564 420 q 376 589 451 585 m 193 751 q 136 730 159 730 q 127 732 130 730 q 110 749 110 734 q 138 792 110 764 l 219 876 q 280 939 235 893 q 342 997 324 985 q 380 1008 361 1008 q 412 1001 396 1008 q 448 945 448 985 q 431 905 448 922 q 399 878 415 888 l 193 751 m 393 751 q 336 730 359 730 q 328 732 330 730 q 310 749 310 734 q 338 792 310 764 l 420 878 q 479 939 435 893 q 543 997 524 985 q 581 1008 561 1008 q 612 1001 596 1008 q 648 945 648 985 q 631 905 648 922 q 597 878 614 888 l 393 751 z "},"":{"ha":1386,"x_min":30,"x_max":1403,"o":"m 710 -14 q 530 -38 627 -37 q 182 98 334 -38 q 30 453 30 232 q 30 476 30 465 q 184 853 37 713 q 568 994 333 994 q 766 966 686 994 l 1360 966 l 1360 778 q 1329 750 1360 750 q 1284 790 1312 750 q 1234 853 1256 830 q 1180 876 1212 876 l 907 876 l 907 534 l 1046 534 q 1090 569 1077 534 q 1134 604 1103 604 q 1164 576 1164 604 l 1164 404 q 1134 376 1164 376 q 1088 411 1104 376 q 1041 446 1073 446 l 907 446 l 907 77 l 1180 77 q 1275 123 1234 77 q 1336 192 1316 168 q 1372 216 1356 216 q 1403 189 1403 216 q 1401 172 1403 178 l 1349 -14 l 710 -14 m 562 907 q 285 782 365 907 q 205 476 205 656 q 305 171 205 296 q 566 45 406 45 q 750 109 669 45 l 750 857 q 712 882 750 857 q 562 907 674 907 z "},"":{"ha":1241,"x_min":25,"x_max":1199,"o":"m 392 662 q 639 545 555 654 q 900 662 711 662 q 1199 374 1198 662 q 1196 328 1198 346 q 1152 311 1193 311 l 740 311 q 796 133 740 206 q 952 60 852 60 q 1008 67 978 60 q 1083 97 1039 74 q 1145 120 1127 120 q 1164 113 1157 120 q 1168 100 1168 106 q 1158 69 1168 88 q 1133 34 1148 47 q 1022 -19 1084 -8 q 900 -31 959 -31 q 635 82 708 -31 q 375 -31 548 -26 l 364 -31 q 126 71 226 -31 q 25 313 25 174 l 25 315 q 141 574 26 469 q 184 597 157 588 q 261 625 211 607 q 327 649 291 636 q 389 662 364 662 l 392 662 m 740 387 l 1061 387 q 1022 531 1061 485 q 900 576 983 576 q 779 520 819 576 q 740 387 740 463 m 376 589 l 369 589 q 247 519 299 589 q 189 326 189 441 q 245 129 189 211 q 376 43 301 46 l 385 43 q 506 113 454 43 q 564 305 564 190 q 507 503 564 420 q 376 589 451 585 z "},"":{"ha":928,"x_min":74,"x_max":942,"o":"m 870 57 q 908 44 883 46 q 942 16 942 40 l 942 14 q 911 -14 938 -14 l 730 -14 q 671 43 714 -14 q 576 172 629 99 q 468 322 523 245 q 380 439 412 399 l 298 439 l 298 99 q 332 52 298 64 q 366 14 366 40 q 335 -14 366 -14 l 105 -14 q 74 14 74 -14 q 108 52 74 40 q 142 99 142 64 l 142 852 q 108 899 142 887 q 74 938 74 911 q 105 966 74 966 l 505 966 q 659 940 578 966 q 784 837 739 913 q 818 693 818 777 q 772 549 817 613 q 671 470 735 497 q 576 441 607 443 l 870 57 m 422 1047 q 365 1026 388 1026 q 356 1027 358 1026 q 338 1045 338 1029 q 366 1088 338 1059 l 448 1173 q 508 1235 463 1189 q 572 1293 552 1281 q 609 1303 589 1303 q 640 1297 625 1303 q 676 1241 676 1282 q 660 1201 676 1217 q 625 1173 643 1184 l 422 1047 m 298 882 l 298 513 l 438 513 q 527 526 482 513 q 603 570 571 538 q 653 700 653 618 q 601 829 653 778 q 452 882 546 882 l 298 882 z "},"":{"ha":564,"x_min":66,"x_max":551,"o":"m 290 404 l 290 99 q 324 52 290 64 q 357 14 357 40 q 327 -14 357 -14 l 97 -14 q 66 14 66 -14 q 100 52 66 40 q 134 99 134 64 l 134 533 q 100 579 134 567 q 66 618 66 591 q 96 646 66 646 q 181 659 138 648 q 290 693 223 671 l 290 605 l 361 631 q 443 661 413 651 q 470 665 455 665 q 551 646 498 665 l 534 454 l 474 454 q 386 553 448 553 q 373 552 379 553 q 312 506 332 547 q 290 404 292 464 m 216 751 q 159 730 182 730 q 151 732 154 730 q 132 750 132 734 q 160 792 132 764 l 241 876 q 302 939 258 893 q 365 997 347 985 q 403 1008 383 1008 q 435 1001 418 1008 q 470 945 470 985 q 454 905 470 922 q 420 878 437 888 l 216 751 z "},"":{"ha":928,"x_min":74,"x_max":942,"o":"m 421 3 l 492 3 q 482 -39 482 -27 q 493 -66 482 -56 q 543 -111 517 -88 q 587 -203 587 -147 l 587 -210 q 487 -285 583 -277 l 476 -285 q 368 -262 433 -285 l 347 -172 q 435 -216 412 -216 q 469 -205 452 -216 q 483 -182 483 -196 q 452 -132 483 -162 q 411 -81 429 -111 q 401 -49 401 -66 q 421 3 401 -28 m 870 57 q 908 44 883 46 q 942 16 942 40 l 942 14 q 911 -14 938 -14 l 730 -14 q 671 43 714 -14 q 576 172 629 99 q 468 322 523 245 q 380 439 412 399 l 298 439 l 298 99 q 332 52 298 64 q 366 14 366 40 q 335 -14 366 -14 l 105 -14 q 74 14 74 -14 q 108 52 74 40 q 142 99 142 64 l 142 852 q 108 899 142 887 q 74 938 74 911 q 105 966 74 966 l 505 966 q 659 940 578 966 q 784 837 739 913 q 818 693 818 777 q 772 549 817 613 q 671 470 735 497 q 576 441 607 443 l 870 57 m 298 882 l 298 513 l 438 513 q 527 526 482 513 q 603 570 571 538 q 653 700 653 618 q 601 829 653 778 q 452 882 546 882 l 298 882 z "},"":{"ha":564,"x_min":66,"x_max":551,"o":"m 182 -22 l 253 -22 q 243 -63 243 -52 q 254 -90 243 -80 q 304 -135 278 -113 q 348 -228 348 -172 l 348 -234 q 248 -309 345 -302 l 237 -309 q 129 -287 195 -309 l 109 -196 q 197 -241 173 -241 q 230 -230 214 -241 q 244 -207 244 -220 q 214 -157 244 -186 q 172 -105 191 -135 q 163 -73 163 -91 q 182 -22 163 -52 m 290 404 l 290 99 q 324 52 290 64 q 357 14 357 40 q 327 -14 357 -14 l 97 -14 q 66 14 66 -14 q 100 52 66 40 q 134 99 134 64 l 134 533 q 100 579 134 567 q 66 618 66 591 q 96 646 66 646 q 181 659 138 648 q 290 693 223 671 l 290 605 l 361 631 q 443 661 413 651 q 470 665 455 665 q 551 646 498 665 l 534 454 l 474 454 q 386 553 448 553 q 373 552 379 553 q 312 506 332 547 q 290 404 292 464 z "},"":{"ha":928,"x_min":74,"x_max":942,"o":"m 870 57 q 908 44 883 46 q 942 16 942 40 l 942 14 q 911 -14 938 -14 l 730 -14 q 671 43 714 -14 q 576 172 629 99 q 468 322 523 245 q 380 439 412 399 l 298 439 l 298 99 q 332 52 298 64 q 366 14 366 40 q 335 -14 366 -14 l 105 -14 q 74 14 74 -14 q 108 52 74 40 q 142 99 142 64 l 142 852 q 108 899 142 887 q 74 938 74 911 q 105 966 74 966 l 505 966 q 659 940 578 966 q 784 837 739 913 q 818 693 818 777 q 772 549 817 613 q 671 470 735 497 q 576 441 607 443 l 870 57 m 286 1304 l 359 1304 l 508 1169 l 656 1304 l 730 1304 l 557 1042 l 458 1042 l 286 1304 m 298 882 l 298 513 l 438 513 q 527 526 482 513 q 603 570 571 538 q 653 700 653 618 q 601 829 653 778 q 452 882 546 882 l 298 882 z "},"":{"ha":564,"x_min":66,"x_max":551,"o":"m 290 404 l 290 99 q 324 52 290 64 q 357 14 357 40 q 327 -14 357 -14 l 97 -14 q 66 14 66 -14 q 100 52 66 40 q 134 99 134 64 l 134 533 q 100 579 134 567 q 66 618 66 591 q 96 646 66 646 q 181 659 138 648 q 290 693 223 671 l 290 605 l 361 631 q 443 661 413 651 q 470 665 455 665 q 551 646 498 665 l 534 454 l 474 454 q 386 553 448 553 q 373 552 379 553 q 312 506 332 547 q 290 404 292 464 m 79 992 l 153 992 l 302 857 l 451 992 l 525 992 l 351 730 l 252 730 l 79 992 z "},"":{"ha":729,"x_min":26,"x_max":716,"o":"m 361 51 q 459 78 412 54 q 534 146 506 101 q 564 263 564 195 l 564 271 q 511 378 562 341 q 455 405 488 395 q 309 432 385 424 q 163 475 233 441 q 66 564 98 505 q 35 690 35 623 q 127 907 35 823 q 370 996 224 996 l 391 996 q 665 913 547 989 l 648 764 q 618 739 645 739 l 614 739 q 582 767 594 741 q 503 865 555 825 q 393 908 451 905 l 382 908 q 280 888 324 908 q 234 855 251 873 q 205 812 218 838 q 189 762 195 791 q 184 723 184 741 q 192 677 184 699 q 236 614 205 636 q 287 590 259 597 q 328 581 304 585 q 378 573 351 577 q 460 560 416 567 q 546 541 504 553 q 654 479 618 517 q 697 414 680 449 q 716 311 716 367 q 593 60 716 161 q 452 -17 530 8 q 319 -39 390 -37 q 290 -40 304 -40 q 95 -10 193 -40 l 28 175 q 26 186 26 180 q 33 205 26 196 q 65 222 43 222 q 95 193 83 217 q 197 74 136 103 q 326 50 248 50 q 361 51 343 50 m 286 1047 q 229 1026 252 1026 q 220 1027 222 1026 q 202 1046 202 1029 q 229 1088 202 1059 l 311 1172 q 371 1235 327 1189 q 434 1293 416 1281 q 472 1303 452 1303 q 503 1297 488 1303 q 539 1241 539 1282 q 523 1201 539 1217 q 489 1173 507 1184 l 286 1047 z "},"":{"ha":600,"x_min":35,"x_max":571,"o":"m 334 663 q 538 595 438 658 l 524 469 q 496 447 520 447 l 493 447 q 463 472 473 448 q 397 551 440 520 q 306 585 354 583 l 304 585 q 231 566 267 585 q 187 509 195 547 q 184 484 184 494 q 214 434 184 448 q 321 397 260 411 q 487 341 411 377 q 571 192 564 306 l 571 185 q 530 78 571 132 q 400 -9 485 20 q 285 -29 348 -27 l 266 -29 q 93 -4 180 -29 l 35 154 l 37 170 q 66 193 38 193 l 69 193 q 97 168 86 189 q 168 78 127 104 q 272 51 209 53 l 280 51 q 378 72 324 51 q 434 148 432 93 l 434 152 q 376 232 434 216 q 250 268 304 252 q 119 329 180 287 q 54 456 54 372 l 54 459 q 143 620 55 571 q 316 664 221 664 q 334 663 325 664 m 210 730 q 155 709 177 709 q 146 711 148 709 q 128 728 128 713 q 155 770 128 743 l 234 852 q 293 913 250 868 q 355 969 336 958 q 393 980 373 980 q 422 974 408 980 q 457 919 457 959 q 441 880 457 896 q 410 854 425 863 l 210 730 z "},"":{"ha":729,"x_min":26,"x_max":716,"o":"m 361 51 q 459 78 412 54 q 534 146 506 101 q 564 263 564 195 l 564 271 q 511 378 562 341 q 455 405 488 395 q 309 432 385 424 q 163 475 233 441 q 66 564 98 505 q 35 690 35 623 q 127 907 35 823 q 370 996 224 996 l 391 996 q 665 913 547 989 l 648 764 q 618 739 645 739 l 614 739 q 582 767 594 741 q 503 865 555 825 q 393 908 451 905 l 382 908 q 280 888 324 908 q 234 855 251 873 q 205 812 218 838 q 189 762 195 791 q 184 723 184 741 q 192 677 184 699 q 236 614 205 636 q 287 590 259 597 q 328 581 304 585 q 378 573 351 577 q 460 560 416 567 q 546 541 504 553 q 654 479 618 517 q 697 414 680 449 q 716 311 716 367 q 593 60 716 161 q 452 -17 530 8 q 319 -39 390 -37 q 290 -40 304 -40 q 95 -10 193 -40 l 28 175 q 26 186 26 180 q 33 205 26 196 q 65 222 43 222 q 95 193 83 217 q 197 74 136 103 q 326 50 248 50 q 361 51 343 50 m 149 1042 l 322 1304 l 421 1304 l 594 1042 l 520 1042 l 372 1176 l 223 1042 l 149 1042 z "},"":{"ha":600,"x_min":35,"x_max":571,"o":"m 334 663 q 538 595 438 658 l 524 469 q 496 447 520 447 l 493 447 q 463 472 473 448 q 397 551 440 520 q 306 585 354 583 l 304 585 q 231 566 267 585 q 187 509 195 547 q 184 484 184 494 q 214 434 184 448 q 321 397 260 411 q 487 341 411 377 q 571 192 564 306 l 571 185 q 530 78 571 132 q 400 -9 485 20 q 285 -29 348 -27 l 266 -29 q 93 -4 180 -29 l 35 154 l 37 170 q 66 193 38 193 l 69 193 q 97 168 86 189 q 168 78 127 104 q 272 51 209 53 l 280 51 q 378 72 324 51 q 434 148 432 93 l 434 152 q 376 232 434 216 q 250 268 304 252 q 119 329 180 287 q 54 456 54 372 l 54 459 q 143 620 55 571 q 316 664 221 664 q 334 663 325 664 m 77 709 l 245 964 l 342 964 l 511 709 l 438 709 l 294 840 l 149 709 l 77 709 z "},"":{"ha":729,"x_min":26,"x_max":716,"o":"m 279 -58 l 349 -58 q 340 -100 340 -88 q 351 -127 340 -117 q 401 -172 374 -149 q 444 -264 444 -208 l 444 -271 q 345 -346 441 -338 l 334 -346 q 225 -323 291 -346 l 205 -233 q 293 -277 269 -277 q 326 -267 310 -277 q 340 -243 340 -257 q 310 -193 340 -223 q 269 -142 287 -172 q 259 -110 259 -127 q 279 -58 259 -89 m 361 51 q 459 78 412 54 q 534 146 506 101 q 564 263 564 195 l 564 271 q 511 378 562 341 q 455 405 488 395 q 309 432 385 424 q 163 475 233 441 q 66 564 98 505 q 35 690 35 623 q 127 907 35 823 q 370 996 224 996 l 391 996 q 665 913 547 989 l 648 764 q 618 739 645 739 l 614 739 q 582 767 594 741 q 503 865 555 825 q 393 908 451 905 l 382 908 q 280 888 324 908 q 234 855 251 873 q 205 812 218 838 q 189 762 195 791 q 184 723 184 741 q 192 677 184 699 q 236 614 205 636 q 287 590 259 597 q 328 581 304 585 q 378 573 351 577 q 460 560 416 567 q 546 541 504 553 q 654 479 618 517 q 697 414 680 449 q 716 311 716 367 q 593 60 716 161 q 452 -17 530 8 q 319 -39 390 -37 q 290 -40 304 -40 q 95 -10 193 -40 l 28 175 q 26 186 26 180 q 33 205 26 196 q 65 222 43 222 q 95 193 83 217 q 197 74 136 103 q 326 50 248 50 q 361 51 343 50 z "},"":{"ha":600,"x_min":35,"x_max":571,"o":"m 334 663 q 538 595 438 658 l 524 469 q 496 447 520 447 l 493 447 q 463 472 473 448 q 397 551 440 520 q 306 585 354 583 l 304 585 q 231 566 267 585 q 187 509 195 547 q 184 484 184 494 q 214 434 184 448 q 321 397 260 411 q 487 341 411 377 q 571 192 564 306 l 571 185 q 530 78 571 132 q 400 -9 485 20 q 285 -29 348 -27 l 266 -29 q 93 -4 180 -29 l 35 154 l 37 170 q 66 193 38 193 l 69 193 q 97 168 86 189 q 168 78 127 104 q 272 51 209 53 l 280 51 q 378 72 324 51 q 434 148 432 93 l 434 152 q 376 232 434 216 q 250 268 304 252 q 119 329 180 287 q 54 456 54 372 l 54 459 q 143 620 55 571 q 316 664 221 664 q 334 663 325 664 m 248 -31 l 319 -31 q 309 -73 309 -61 q 320 -100 309 -90 q 370 -144 344 -122 q 414 -237 414 -181 l 414 -243 q 314 -319 410 -311 l 303 -319 q 195 -296 260 -319 l 174 -205 q 262 -250 239 -250 q 296 -239 279 -250 q 310 -216 310 -230 q 279 -166 310 -196 q 238 -115 256 -144 q 229 -83 229 -100 q 248 -31 229 -62 z "},"":{"ha":729,"x_min":26,"x_max":716,"o":"m 361 51 q 459 78 412 54 q 534 146 506 101 q 564 263 564 195 l 564 271 q 511 378 562 341 q 455 405 488 395 q 309 432 385 424 q 163 475 233 441 q 66 564 98 505 q 35 690 35 623 q 127 907 35 823 q 370 996 224 996 l 391 996 q 665 913 547 989 l 648 764 q 618 739 645 739 l 614 739 q 582 767 594 741 q 503 865 555 825 q 393 908 451 905 l 382 908 q 280 888 324 908 q 234 855 251 873 q 205 812 218 838 q 189 762 195 791 q 184 723 184 741 q 192 677 184 699 q 236 614 205 636 q 287 590 259 597 q 328 581 304 585 q 378 573 351 577 q 460 560 416 567 q 546 541 504 553 q 654 479 618 517 q 697 414 680 449 q 716 311 716 367 q 593 60 716 161 q 452 -17 530 8 q 319 -39 390 -37 q 290 -40 304 -40 q 95 -10 193 -40 l 28 175 q 26 186 26 180 q 33 205 26 196 q 65 222 43 222 q 95 193 83 217 q 197 74 136 103 q 326 50 248 50 q 361 51 343 50 m 149 1304 l 223 1304 l 372 1169 l 520 1304 l 594 1304 l 421 1042 l 322 1042 l 149 1304 z "},"":{"ha":600,"x_min":35,"x_max":571,"o":"m 334 663 q 538 595 438 658 l 524 469 q 496 447 520 447 l 493 447 q 463 472 473 448 q 397 551 440 520 q 306 585 354 583 l 304 585 q 231 566 267 585 q 187 509 195 547 q 184 484 184 494 q 214 434 184 448 q 321 397 260 411 q 487 341 411 377 q 571 192 564 306 l 571 185 q 530 78 571 132 q 400 -9 485 20 q 285 -29 348 -27 l 266 -29 q 93 -4 180 -29 l 35 154 l 37 170 q 66 193 38 193 l 69 193 q 97 168 86 189 q 168 78 127 104 q 272 51 209 53 l 280 51 q 378 72 324 51 q 434 148 432 93 l 434 152 q 376 232 434 216 q 250 268 304 252 q 119 329 180 287 q 54 456 54 372 l 54 459 q 143 620 55 571 q 316 664 221 664 q 334 663 325 664 m 71 974 l 144 974 l 294 839 l 442 974 l 516 974 l 342 711 l 243 711 l 71 974 z "},"":{"ha":851,"x_min":12,"x_max":841,"o":"m 380 -24 l 451 -24 q 441 -66 441 -54 q 452 -93 441 -83 q 503 -138 476 -115 q 546 -231 546 -174 l 546 -237 q 446 -312 543 -304 l 435 -312 q 327 -290 393 -312 l 307 -199 q 395 -243 371 -243 q 428 -233 412 -243 q 442 -210 442 -223 q 412 -159 442 -189 q 370 -108 389 -138 q 361 -76 361 -94 q 380 -24 361 -55 m 841 778 q 810 750 841 750 q 769 784 794 750 q 713 853 735 830 q 659 876 692 876 l 506 876 l 506 99 q 540 52 506 64 q 574 14 574 39 q 543 -14 574 -14 l 313 -14 q 282 14 282 -14 q 316 52 282 39 q 350 99 350 64 l 350 876 l 194 876 q 139 853 161 876 q 83 784 117 830 q 43 750 60 750 q 12 778 12 750 l 12 903 q 31 958 12 947 q 106 969 49 969 l 747 969 q 825 959 809 969 q 841 903 841 948 l 841 778 z "},"":{"ha":439,"x_min":29,"x_max":452,"o":"m 123 559 q 64 556 115 559 l 60 556 q 29 583 31 556 l 29 585 q 51 613 29 603 q 106 642 64 619 q 128 652 117 648 q 130 654 130 653 q 123 654 130 654 l 123 757 q 140 811 123 795 q 210 852 157 827 q 248 863 232 863 q 280 832 280 863 l 280 657 l 425 660 l 425 660 q 452 629 452 660 q 450 604 452 618 q 402 560 440 560 l 280 561 l 280 149 q 318 66 280 94 q 397 34 357 39 l 397 -13 q 200 8 276 -13 q 123 170 123 29 l 123 559 m 191 -5 l 262 -5 q 252 -47 252 -35 q 263 -74 252 -64 q 313 -119 287 -96 q 357 -212 357 -155 l 357 -218 q 257 -293 353 -286 l 246 -293 q 138 -271 203 -293 l 117 -180 q 205 -224 182 -224 q 239 -214 222 -224 q 253 -191 253 -204 q 222 -140 253 -170 q 181 -89 199 -119 q 172 -57 172 -75 q 191 -5 172 -36 z "},"":{"ha":851,"x_min":12,"x_max":841,"o":"m 841 778 q 810 750 841 750 q 769 784 794 750 q 713 853 735 830 q 659 876 692 876 l 506 876 l 506 99 q 540 52 506 64 q 574 14 574 39 q 543 -14 574 -14 l 313 -14 q 282 14 282 -14 q 316 52 282 39 q 350 99 350 64 l 350 876 l 194 876 q 139 853 161 876 q 83 784 117 830 q 43 750 60 750 q 12 778 12 750 l 12 903 q 31 958 12 947 q 106 969 49 969 l 747 969 q 825 959 809 969 q 841 903 841 948 l 841 778 m 203 1304 l 278 1304 l 427 1169 l 575 1304 l 649 1304 l 476 1042 l 377 1042 l 203 1304 z "},"":{"ha":439,"x_min":5,"x_max":450,"o":"m 117 559 q 57 556 109 559 l 53 556 q 22 583 24 556 l 22 585 q 44 613 22 603 q 99 642 57 619 q 122 653 116 651 q 134 654 127 654 l 245 656 l 418 660 l 418 660 q 446 629 446 660 q 443 604 446 618 q 395 560 433 560 l 273 561 l 273 147 q 312 65 273 92 q 390 33 350 38 l 390 -14 q 193 7 269 -14 q 117 168 117 28 l 117 559 m 5 992 l 79 992 l 228 857 l 376 992 l 450 992 l 277 730 l 178 730 l 5 992 z "},"":{"ha":851,"x_min":12,"x_max":841,"o":"m 841 778 q 810 750 841 750 q 769 784 794 750 q 713 853 735 830 q 659 876 692 876 l 506 876 l 506 652 l 783 652 q 822 625 822 652 l 822 598 q 783 572 822 572 l 506 572 l 506 99 q 540 52 506 64 q 574 14 574 39 q 543 -14 574 -14 l 313 -14 q 282 14 282 -14 q 316 52 282 39 q 350 99 350 64 l 350 572 l 70 572 q 31 598 31 572 l 31 625 q 70 652 31 652 l 350 652 l 350 876 l 194 876 q 139 853 161 876 q 83 784 117 830 q 43 750 60 750 q 12 778 12 750 l 12 903 q 31 958 12 947 q 106 969 49 969 l 747 969 q 825 959 809 969 q 841 903 841 948 l 841 778 z "},"":{"ha":450,"x_min":29,"x_max":452,"o":"m 280 424 l 404 423 q 431 397 431 423 l 431 371 q 404 345 431 345 l 280 344 l 280 149 q 317 67 280 92 q 397 34 360 39 l 397 -13 q 200 8 276 -13 q 123 170 123 29 l 123 345 l 60 345 q 32 371 32 345 l 32 397 q 59 423 32 423 l 123 423 l 123 559 q 64 556 115 559 l 60 556 q 29 583 31 556 l 29 585 q 51 613 29 603 q 106 642 64 619 q 129 653 123 651 l 130 654 q 123 654 130 654 l 123 757 q 140 811 123 795 q 210 852 157 827 q 248 863 232 863 q 280 832 280 863 l 280 657 l 425 660 l 425 660 q 452 629 452 660 q 450 604 452 618 q 402 560 440 560 l 280 561 l 280 424 z "},"":{"ha":1054,"x_min":74,"x_max":1007,"o":"m 142 399 l 142 853 q 108 900 142 888 q 74 938 74 911 q 105 966 74 966 l 335 966 q 366 938 366 966 q 332 900 366 911 q 299 854 299 889 l 299 489 q 306 307 299 386 q 340 175 313 228 q 419 98 366 124 q 569 72 472 72 q 795 204 736 72 q 840 489 840 300 l 840 852 q 806 899 840 887 q 772 938 772 911 q 804 966 772 966 l 977 966 q 1007 938 1007 966 q 974 899 1007 911 q 940 852 940 887 l 940 399 q 921 211 939 296 q 852 66 903 125 q 569 -40 761 -40 q 365 -17 450 -40 q 227 66 279 5 q 142 399 142 165 m 827 1219 q 770 1104 800 1143 q 697 1061 738 1061 q 568 1122 636 1061 q 513 1149 537 1149 q 479 1134 501 1149 q 465 1122 477 1133 q 449 1104 456 1114 q 422 1057 431 1079 q 397 1041 414 1041 q 377 1049 387 1041 q 366 1072 368 1057 q 370 1092 366 1082 q 418 1196 393 1140 q 503 1253 442 1253 q 637 1189 572 1253 q 689 1162 665 1162 q 732 1181 709 1162 q 774 1248 755 1200 q 800 1266 780 1266 q 810 1264 806 1266 q 830 1238 827 1261 l 830 1234 q 827 1219 830 1227 z "},"":{"ha":840,"x_min":41,"x_max":790,"o":"m 722 99 q 756 52 722 64 q 790 14 790 40 q 759 -14 790 -14 l 594 -14 q 566 9 566 -14 l 566 31 q 524 15 553 26 q 469 -5 494 4 q 336 -33 404 -26 q 315 -34 325 -34 q 197 7 252 -34 q 109 288 109 75 l 109 533 q 75 579 109 567 q 41 618 41 591 q 71 646 41 646 q 156 659 113 648 q 265 693 198 671 l 265 288 q 323 88 265 144 q 406 54 357 54 q 472 66 435 54 q 508 79 485 71 q 547 94 531 88 q 558 98 551 96 l 566 101 l 566 533 q 532 579 566 567 q 498 618 498 591 q 528 646 498 646 q 613 659 570 648 q 722 693 655 671 l 722 99 m 637 917 q 580 801 608 838 q 506 758 547 758 q 377 819 446 758 q 322 846 346 846 q 287 831 304 846 q 274 819 281 825 q 258 801 267 812 q 230 753 241 779 q 205 738 222 738 q 185 746 195 738 q 174 768 174 755 q 179 789 174 777 q 226 893 201 837 q 312 949 251 949 q 446 886 380 949 q 498 859 473 859 q 541 878 518 859 q 583 945 564 897 q 609 962 590 962 l 614 962 q 639 935 635 957 l 639 931 q 637 917 639 924 z "},"":{"ha":1054,"x_min":74,"x_max":1007,"o":"m 142 399 l 142 853 q 108 900 142 888 q 74 938 74 911 q 105 966 74 966 l 335 966 q 366 938 366 966 q 332 900 366 911 q 299 854 299 889 l 299 489 q 306 307 299 386 q 340 175 313 228 q 419 98 366 124 q 569 72 472 72 q 795 204 736 72 q 840 489 840 300 l 840 852 q 806 899 840 887 q 772 938 772 911 q 804 966 772 966 l 977 966 q 1007 938 1007 966 q 974 899 1007 911 q 940 852 940 887 l 940 399 q 921 211 939 296 q 852 66 903 125 q 569 -40 761 -40 q 365 -17 450 -40 q 227 66 279 5 q 142 399 142 165 m 337 1169 l 744 1169 q 768 1148 768 1169 l 768 1090 q 744 1069 768 1069 l 337 1069 q 313 1090 313 1069 l 313 1148 q 337 1169 313 1169 z "},"":{"ha":840,"x_min":41,"x_max":790,"o":"m 722 99 q 756 52 722 64 q 790 14 790 40 q 759 -14 790 -14 l 594 -14 q 566 9 566 -14 l 566 31 q 524 15 553 26 q 469 -5 494 4 q 336 -33 404 -26 q 315 -34 325 -34 q 197 7 252 -34 q 109 288 109 75 l 109 533 q 75 579 109 567 q 41 618 41 591 q 71 646 41 646 q 156 659 113 648 q 265 693 198 671 l 265 288 q 323 88 265 144 q 406 54 357 54 q 472 66 435 54 q 508 79 485 71 q 547 94 531 88 q 558 98 551 96 l 566 101 l 566 533 q 532 579 566 567 q 498 618 498 591 q 528 646 498 646 q 613 659 570 648 q 722 693 655 671 l 722 99 m 204 927 l 610 927 q 635 907 635 927 l 635 848 q 610 827 635 827 l 204 827 q 180 848 180 827 l 180 907 q 204 927 180 927 z "}}}
